<?xml version="1.0" encoding="UTF-8" standalone="no"?>
<!-- Created with Inkscape (http://www.inkscape.org/) -->

<svg
   xmlns:dc="http://purl.org/dc/elements/1.1/"
   xmlns:cc="http://creativecommons.org/ns#"
   xmlns:rdf="http://www.w3.org/1999/02/22-rdf-syntax-ns#"
   xmlns:svg="http://www.w3.org/2000/svg"
   xmlns="http://www.w3.org/2000/svg"
   version="1.1"
   width="1000"
   height="786"
   id="svg2">
  <metadata
     id="metadata8">
    <rdf:RDF>
      <cc:Work
         rdf:about="">
        <dc:format>image/svg+xml</dc:format>
        <dc:type
           rdf:resource="http://purl.org/dc/dcmitype/StillImage" />
        <dc:title></dc:title>
      </cc:Work>
    </rdf:RDF>
  </metadata>
  <defs
     id="defs6" />
  <path
     d="M 358.214,711.81822 C 356.4463,709.51823 355,707.28372 355,706.85263 355,705.5487 344.09015,689.11172 336.51314,679 330.10673,670.45047 322.15958,659.32708 319.5,655.18721 c -0.55,-0.85612 -4.85292,-6.76098 -9.56205,-13.1219 -16.68638,-22.53935 -17.38758,-24.01335 -15.94506,-33.51844 L 294.68293,604 l -12.20498,0 c -12.61779,0 -22.73006,-1.30984 -23.31128,-3.01951 C 258.98333,600.44122 258.02048,600 257.02698,600 c -0.99349,0 -5.35169,-3.4875 -9.6849,-7.75 -7.29976,-7.18065 -32.50573,-29.58585 -53.1157,-47.21375 -9.08752,-7.77263 -40.74976,-39.22959 -64.52078,-64.10245 L 115.91121,466.5 l 1.0218,-14 c 0.56199,-7.7 1.31029,-23.9 1.66288,-36 0.55225,-18.95142 0.89165,-22.35355 2.44926,-24.55138 1.68291,-2.37462 1.69202,-2.62628 0.13151,-3.63271 -0.92216,-0.59474 -1.44919,-1.32409 -1.17117,-1.62078 0.27802,-0.2967 6.12802,-0.84213 13,-1.21207 6.87198,-0.36994 14.06951,-0.85753 15.99451,-1.08354 1.925,-0.22601 13.33508,-0.60056 25.35574,-0.83234 l 21.85574,-0.42142 -0.27348,-13.82288 c -0.37633,-19.02083 -0.15246,-28.06084 0.99856,-40.32288 0.54209,-5.775 1.01091,-17.475 1.04182,-26 0.0309,-8.525 0.47682,-23.825 0.99089,-34 0.51408,-10.175 1.42172,-32.675 2.01698,-50 0.59526,-17.325 1.54237,-38.925 2.10469,-48 1.403,-22.64257 2.71006,-41.52548 3.2879,-47.5 0.26598,-2.75 0.78752,-11.80107 1.15899,-20.11349 0.37147,-8.312412 1.03747,-15.699328 1.48,-16.415363 0.48519,-0.78505 2.32856,-1.202616 4.64339,-1.051836 26.0015,1.693658 297.42209,4.098964 310.83878,2.754627 2.75,-0.275547 32.95465,-0.572029 67.12145,-0.65885 l 62.12146,-0.157856 2.87854,2.704924 c 1.5832,1.487708 6.02855,5.419646 9.87855,8.73764 17.98983,15.503944 47.09822,43.712674 54.36415,52.683904 4.23347,5.22707 8.82831,14.44109 9.48304,19.0163 0.95622,6.68213 1.62882,16.58584 2.20378,32.44988 0.31793,8.77244 0.77379,16.26658 1.01301,16.65364 0.23922,0.38706 0.66767,11.65962 0.95212,25.05012 0.28444,13.3905 0.93721,28.17136 1.45059,32.84636 0.51337,4.675 1.19619,14.24058 1.51738,21.25685 0.32118,7.01627 0.76692,13.31627 0.99053,14 0.22361,0.68373 0.65514,7.31815 0.95896,14.74315 0.30381,7.425 0.97912,17.1 1.50068,21.5 0.52156,4.4 1.22264,12.275 1.55795,17.5 0.62531,9.74398 2.41992,28.61383 3.01919,31.74595 0.18458,0.96473 0.37003,4.35567 0.41211,7.53543 0.0543,4.1036 0.50192,5.94463 1.54238,6.3439 2.5973,0.99667 26.11322,26.09935 37.53413,40.06676 5.52527,6.75724 29.30827,31.30796 30.32893,31.30796 2.39224,0 12.88406,12.65201 16.41299,19.79231 3.90051,7.89215 4.71752,11.85395 6.22952,30.20769 0.52106,6.325 1.16077,12.4 1.42157,13.5 0.26081,1.1 0.78008,5.15 1.15393,9 0.37386,3.85 0.89252,7.35729 1.15259,7.79398 0.89226,1.49819 -2.85626,5.87356 -6.24519,7.28955 -1.86456,0.77906 -4.728,1.41647 -6.3632,1.41647 -1.63521,0 -3.1683,0.3375 -3.40687,0.75 -0.98249,1.69874 25.65783,48.33894 36.41323,63.75 3.83845,5.5 8.12413,12.37235 9.52373,15.27188 1.39959,2.89954 3.64097,6.57471 4.98083,8.16704 2.43747,2.89677 9.21514,16.81343 9.69902,19.91508 0.14123,0.9053 0.50098,2.096 0.79945,2.646 1.31553,2.42415 0.81266,6.38999 -0.86688,6.83672 -1.83139,0.48712 -26.22373,1.0428 -39.73365,0.90517 -4.73128,-0.0482 -7.18282,0.23387 -6,0.69034 4.30224,1.66032 -2.34358,2.11381 -21.61603,1.47501 C 808.22278,693.05387 798.6,692.74353 797.5,692.7176 c -6.51418,-0.15357 -60.87298,3.61217 -82,5.68061 -8.25,0.80771 -21.3,1.75033 -29,2.0947 -7.7,0.34438 -23.45,1.52746 -35,2.62907 -28.35767,2.70468 -27.38119,2.6485 -58,3.33686 -23.93443,0.53808 -46.60295,1.60319 -65,3.05411 -3.3,0.26026 -14.73894,0.947 -25.41986,1.52608 -10.68092,0.57909 -19.75353,1.25912 -20.16136,1.51117 -0.40783,0.25205 -13.9439,0.71133 -30.08015,1.02061 -16.13625,0.30928 -32.63369,0.98238 -36.66099,1.49576 -4.0273,0.51339 -17.9935,0.93343 -31.036,0.93343 l -23.71364,0 -3.214,-4.18178 z M 464.5,710.506 c 8.25,-0.28934 18.6,-0.97327 23,-1.51983 17.49552,-2.17329 27.12876,-2.87583 54,-3.93815 15.4,-0.60882 35.875,-1.54567 45.5,-2.08189 9.625,-0.53622 22,-1.19799 27.5,-1.47058 18.07437,-0.89583 25.90443,-1.49197 33,-2.51244 3.85,-0.5537 15.55,-1.42375 26,-1.93344 10.45,-0.50969 31.6,-2.04473 47,-3.4112 15.4,-1.36647 35.65,-2.78469 45,-3.15162 20.15989,-0.79113 23.72082,-1.02055 37.5,-2.41595 17.81082,-1.80368 35.73489,-2.95884 54.0591,-3.48396 18.42907,-0.52813 20.43624,-0.82942 21.34763,-3.20448 0.4857,-1.2657 -2.36839,-1.39408 -21.17268,-0.95239 -11.95373,0.28079 -24.65905,0.95175 -28.23405,1.49104 -3.575,0.53929 -11.675,1.23687 -18,1.55019 -6.325,0.31332 -16,0.99214 -21.5,1.50849 -5.5,0.51636 -17.65,1.18767 -27,1.4918 -9.35,0.30412 -21.5,0.79402 -27,1.08866 -6.92411,0.37093 -11.08849,0.13646 -13.53877,-0.76227 -3.17249,-1.16363 -1.77516,-1.32202 13.5,-1.53025 15.34197,-0.20914 32.07072,-0.93644 43.03877,-1.87116 2.2,-0.18749 11.2,-0.80853 20,-1.3801 8.8,-0.57157 24.1,-1.91535 34,-2.98619 9.9,-1.07083 22.725,-2.23419 28.5,-2.58524 5.775,-0.35105 12.14153,-1.04976 14.14784,-1.55269 l 3.64784,-0.91442 -3.05049,-5.73897 c -1.67776,-3.15643 -3.64384,-6.43509 -4.36906,-7.28591 -0.72522,-0.85082 -2.46266,-3.69866 -3.86098,-6.32852 -5.50869,-10.36044 -8.98132,-16.40697 -13.1366,-22.87342 -2.38522,-3.71189 -5.257,-8.43689 -6.38172,-10.5 C 846.8721,619.188 844.17232,614.8 841.99731,611.5 c -2.17501,-3.3 -5.3638,-8.7 -7.08619,-12 -1.72239,-3.3 -4.13184,-7.35 -5.35433,-9 -2.15227,-2.90491 -7.74038,-12.60536 -9.96621,-17.30041 -1.04201,-2.19796 -1.44688,-2.27399 -9.09058,-1.7072 -4.4,0.32626 -18.35,0.75758 -31,0.95848 -12.65,0.2009 -24.125,0.6033 -25.5,0.89423 -5.57125,1.17877 -11.52674,1.57901 -9.5,0.63844 1.32504,-0.61492 -2.62003,-0.87236 -11.68971,-0.76281 -7.52934,0.091 -13.49523,0.48003 -13.25754,0.86463 0.2377,0.38459 -4.62693,0.93984 -10.81029,1.23388 -6.18335,0.29403 -16.64246,0.98042 -23.24246,1.5253 -6.6,0.54488 -24.15,1.26189 -39,1.59337 -43.98529,0.98182 -61.75771,1.5253 -85,2.59928 -23.14346,1.06942 -56.1536,3.63069 -57.49747,4.46124 -0.4353,0.26904 -8.15145,0.70832 -17.147,0.97617 -8.99554,0.26786 -22.65553,0.8202 -30.35553,1.22742 -7.7,0.40722 -14.63797,0.67828 -15.41772,0.60235 -0.77975,-0.0759 -7.52975,0.50801 -15,1.29765 -7.47025,0.78964 -29.78228,1.86325 -49.58228,2.38581 -19.8,0.52256 -37.35,1.19803 -39,1.50104 -1.65,0.30301 -10.11649,0.94597 -18.81443,1.4288 -8.69794,0.48282 -16.06623,1.12965 -16.37397,1.4374 -0.30775,0.30774 0.34744,2.04125 1.45597,3.85223 4.49078,7.33653 27.03174,45.18877 31.23243,52.44754 2.475,4.27678 5.43887,9.36653 6.58639,11.31056 4.02945,6.82641 7.41361,13.11216 7.41361,13.77008 0,1.34878 -1.92119,-1.39499 -5.06631,-7.23548 -1.77706,-3.3 -5.90146,-10.5 -9.16534,-16 -3.26388,-5.5 -6.31974,-10.675 -6.79079,-11.5 -4.92949,-8.63343 -18.87033,-31.16249 -20.72959,-33.5 -1.31241,-1.65 -3.7051,-4.74938 -5.31709,-6.8875 L 299,598.72499 l 0,3.41525 c 0,3.58779 4.12057,17.24253 6.74747,22.35976 0.84701,1.65 4.14232,6.375 7.3229,10.5 3.18057,4.125 7.36454,10.2 9.2977,13.5 11.49991,19.63092 34.54157,54.5 36.01386,54.5 0.6862,0 1.99871,1.575 2.91668,3.5 1.68087,3.52482 3.06061,4.34582 4.20139,2.5 0.33992,-0.55 0.22496,-1 -0.25546,-1 -0.91181,0 -1.99975,-1.86457 -10.94028,-18.75 -2.98495,-5.6375 -5.20755,-10.25 -4.93911,-10.25 0.44485,0 2.3437,3.17254 8.67866,14.5 1.23036,2.2 3.1195,5.575 4.19809,7.5 3.34629,5.97228 4.40903,6.724 9.02541,6.38403 24.09311,-1.77431 36.76086,-2.53086 57.23269,-3.41805 23.37419,-1.01297 30.16015,-1.4121 41.5,-2.44088 3.025,-0.27443 10.225,-0.73243 16,-1.01776 5.775,-0.28534 17.25,-0.96886 25.5,-1.51894 65.7909,-4.38666 95.5,-5.67355 95.5,-4.1367 0,0.63156 -1.0125,1.15526 -2.25,1.16377 -1.2375,0.009 -8.775,0.42879 -16.75,0.93395 -7.975,0.50516 -20.125,1.18405 -27,1.50865 -6.875,0.32459 -14.75,0.79456 -17.5,1.04438 -2.75,0.24982 -9.95,0.6976 -16,0.99508 -6.05,0.29748 -16.4,0.96841 -23,1.49096 -6.6,0.52255 -17.4,1.20546 -24,1.51758 -6.6,0.31212 -15.825,0.97928 -20.5,1.48258 -4.675,0.5033 -13,1.15841 -18.5,1.45579 -5.5,0.29738 -11.35,0.74973 -13,1.00522 -1.65,0.25548 -9.75,0.53528 -18,0.62176 -8.25,0.0865 -17.025,0.47791 -19.5,0.86984 l -4.5,0.71261 3.5,0.65337 c 1.925,0.35936 4.625,0.82464 6,1.03397 2.9664,0.4516 47.18065,-0.0875 68.5,-0.83521 z m 151.92894,-16.26827 c 0.98971,-0.98972 20.44724,-2.93229 21.68828,-2.16529 0.97059,0.59986 -1.85743,0.98113 -17.977,2.42365 -2.39789,0.21458 -4.06796,0.0983 -3.71128,-0.25836 z m 24.84189,-2.8419 c 0.33229,-0.33229 1.1948,-0.36781 1.91667,-0.0789 0.79773,0.31922 0.56078,0.55618 -0.60417,0.60416 -1.05416,0.0434 -1.64479,-0.19293 -1.3125,-0.52522 z m 3.97638,0.0236 c 0.3193,-0.3193 4.7818,-0.73909 9.91666,-0.93287 5.84595,-0.22061 8.40154,-0.0408 6.83613,0.48086 -2.83311,0.94421 -17.64462,1.34384 -16.75279,0.45201 z M 675.75,689.33772 c 0.6875,-0.27741 1.8125,-0.27741 2.5,0 0.6875,0.27741 0.125,0.50439 -1.25,0.50439 -1.375,0 -1.9375,-0.22698 -1.25,-0.50439 z m -291.82739,-2.6764 c -0.85544,-0.63872 -2.87548,-3.62465 -4.48897,-6.63539 -1.6135,-3.01073 -3.60864,-6.16924 -4.43364,-7.0189 -2.16429,-2.22898 -23.44764,-45.23827 -26.42554,-53.40061 -1.38326,-3.79147 -2.27683,-7.27897 -1.98572,-7.75 0.29111,-0.47103 3.09024,-0.86422 6.22028,-0.87375 3.13004,-0.01 9.74098,-0.43751 14.69098,-0.95106 4.95,-0.51355 14.4,-1.19505 21,-1.51444 6.6,-0.31939 13.125,-0.78241 14.5,-1.02894 5.19116,-0.93073 28.25652,-2.62205 48.5,-3.55637 11.55,-0.53308 25.725,-1.40203 31.5,-1.931 5.775,-0.52896 18.6,-1.41089 28.5,-1.95983 9.9,-0.54895 21.15,-1.22252 25,-1.49684 3.85,-0.27432 14.65,-0.7542 24,-1.0664 9.35,-0.3122 28.475,-1.44249 42.5,-2.51176 14.025,-1.06927 43.05,-2.84902 64.5,-3.955 21.45,-1.10599 47.1,-2.45692 57,-3.00208 9.9,-0.54516 33.39998,-1.28243 52.22217,-1.63838 l 34.22217,-0.64716 1.02826,2.88829 c 0.56555,1.58857 1.55282,3.7883 2.19394,4.8883 0.64112,1.1 2.74166,5.15 4.66787,9 1.92621,3.85 5.73912,10.825 8.47314,15.5 2.73401,4.675 6.54788,11.425 8.47526,15 1.92738,3.575 6.40785,11.36004 9.9566,17.30008 8.25317,13.81452 7.9614,16.05097 -2.23941,17.1655 -1.65,0.18028 -14.925,0.61792 -29.5,0.97254 -23.39656,0.56926 -40.67353,1.34197 -68.5,3.06366 -4.4,0.27224 -15.2,0.71164 -24,0.97644 -8.8,0.2648 -20.725,0.73101 -26.5,1.03603 -14.44999,0.7632 -42.13634,2.42584 -50,3.00264 -9.15031,0.67118 -41.78157,2.30007 -59,2.94517 -19.63106,0.73549 -38.54388,1.66308 -44,2.15799 -2.475,0.2245 -12.15,0.57399 -21.5,0.77663 -27.80753,0.60268 -49.92552,1.78192 -51.10529,2.72472 -1.78622,1.42745 -16.74408,0.33369 -17.26906,-1.26277 -0.24572,-0.74724 -3.29952,-4.17451 -6.78621,-7.61614 C 439.4128,670.39244 437.82007,668 439.85212,668 c 0.46866,0 2.38116,1.10767 4.25,2.46148 4.47146,3.23921 12.62065,7.58392 16.38867,8.73757 4.98399,1.52594 21.58826,2.77211 28.29988,2.12394 l 6.29066,-0.60751 -2.27361,-2.42015 c -1.25048,-1.33108 -3.68242,-3.29084 -5.4043,-4.35502 -2.6639,-1.64638 -3.13069,-2.53168 -3.13069,-5.93759 l 0,-4.00272 11.11363,-0.16126 c 6.1125,-0.0887 16.96364,-0.0476 24.11364,0.0913 7.15,0.13892 22,-0.21987 33,-0.7973 11,-0.57743 26.075,-1.30421 33.5,-1.61507 7.425,-0.31085 17.325,-0.7935 22,-1.07255 31.55083,-1.88329 44.227,-2.42931 57,-2.45528 7.975,-0.0162 17.57075,-0.47345 21.3239,-1.01608 l 6.82389,-0.98658 4.67611,3.70637 c 2.57185,2.03851 5.02732,3.9901 5.45658,4.33688 0.42927,0.34678 0.37772,1.71929 -0.11455,3.05002 -0.65261,1.76418 -1.67657,2.43853 -3.78048,2.4897 -1.587,0.0386 -17.73545,0.40158 -35.88545,0.80664 -18.15,0.40505 -34.125,0.92242 -35.5,1.14971 -1.375,0.22728 -11.95,0.65472 -23.5,0.94985 -18.76546,0.4795 -47.37641,1.81948 -64,2.99741 -3.3,0.23383 -9.73906,0.44789 -14.30902,0.47568 -4.58907,0.0279 -8.06266,0.44914 -7.75875,0.94088 0.70768,1.14504 -4.11897,1.92312 -12.83911,2.06973 -3.79879,0.0639 -7.57136,0.48799 -8.3835,0.94249 -1.76791,0.98937 26.82886,0.40049 45.84694,-0.94411 7.45611,-0.52715 18.25611,-0.95448 24,-0.94962 5.74389,0.005 18.09344,-0.45928 27.44344,-1.03143 45.39809,-2.77805 108.21005,-5.98321 127.5,-6.50605 11.825,-0.32052 22.625,-0.97626 24,-1.45721 1.375,-0.48096 7.9,-1.60469 14.5,-2.49718 6.6,-0.8925 14.7,-2.0582 18,-2.59044 3.3,-0.53225 14.98081,-1.25733 25.95735,-1.61131 10.97654,-0.35397 19.16914,-0.92007 18.20578,-1.258 -0.96336,-0.33793 -2.82724,-2.50816 -4.14194,-4.82273 -2.18885,-3.85355 -2.24835,-4.28848 -0.70578,-5.15913 1.34912,-0.76146 1.43566,-1.20217 0.43459,-2.21308 -2.68078,-2.70711 -1.44236,-4.35076 3.50037,-4.64575 13.87605,-0.82816 12.53033,-1.15103 14.91775,3.57922 2.03324,4.02849 4.65136,10.70425 4.19803,10.70425 -0.11226,0 0.33776,1.0125 1.00005,2.25 1.2151,2.27042 4.52389,3.04587 5.59583,1.31144 0.5557,-0.89914 -3.82706,-9.81946 -7.40004,-15.06144 -2.41644,-3.54521 -21.25512,-38.15154 -25.23561,-46.35739 L 811.5,593.78523 779,594.42364 c -19.7686,0.38832 -36.61322,1.21926 -43,2.12118 -5.775,0.81552 -13.03717,1.7595 -16.13816,2.09772 l -5.63816,0.61495 3.16683,2.78052 c 2.70932,2.37881 4.1944,2.82975 10.27937,3.12125 l 7.11254,0.34074 -2.39121,-2.38636 c -2.37155,-2.36675 -3.08354,-4.13928 -1.64121,-4.08586 0.4125,0.0153 2.01744,1.32021 3.56653,2.89986 1.87356,1.91052 2.436,3.10727 1.67992,3.57455 -0.62513,0.38636 -1.4626,1.58372 -1.86105,2.66082 -0.60797,1.6435 -1.81382,1.9977 -7.50036,2.20311 -6.4168,0.2318 -6.88236,0.0953 -8.78432,-2.57576 -1.10462,-1.5513 -3.32292,-3.5003 -4.92956,-4.33113 C 711.31452,602.62841 710,601.26285 710,600.42466 c 0,-1.27551 -1.01898,-1.41275 -6.25,-0.84178 -3.4375,0.3752 -6.43474,0.84479 -6.66054,1.04352 -0.22579,0.19874 0.43132,1.29157 1.46024,2.42852 1.60063,1.76867 1.65991,2.20056 0.41054,2.99082 -1.17216,0.74142 -1.18948,0.92666 -0.0878,0.93895 1.03452,0.0115 1.09821,0.34574 0.25868,1.35732 -0.61257,0.7381 -0.88028,1.5755 -0.5949,1.86088 0.28538,0.28538 -2.50084,0.76126 -6.19159,1.05752 l -6.71046,0.53865 -5.18808,-5.39953 C 675.3868,601.13405 675.11973,601 669.68802,601 c -5.62497,0 -8.34499,1.33343 -4.67677,2.29269 2.41056,0.63038 2.60351,2.53418 0.34468,3.40097 -1.09325,0.41952 -2.29383,-0.26107 -3.58341,-2.03138 C 660.0385,602.28185 659.18701,602 653.7295,602 l -6.10368,0 2.87418,3 c 2.5831,2.69618 3.49664,3 9.02042,3 3.38044,0 6.45374,0.30749 6.82957,0.68332 1.10279,1.1028 -5.56611,3.60666 -9.01168,3.38347 -1.85716,-0.1203 -3.50758,0.38103 -4,1.21504 -1.10435,1.87045 -14.68223,3.25632 -14.08237,1.43737 0.23687,-0.71826 2.74314,-1.34275 6.09983,-1.5199 l 5.69776,-0.3007 -5.99053,-5.00557 c -5.59108,-4.6718 -6.30968,-4.98515 -10.77677,-4.6993 L 629.5,603.5 l 2.75,2.79545 C 635.0784,609.1706 635.7589,611 634,611 c -0.55,0 -1,0.675 -1,1.5 0,1.04895 -1.12764,1.52997 -3.75,1.59968 -4.81731,0.12805 -8.75097,1.22785 -8.74648,2.4454 0.002,0.52521 -1.12306,0.99042 -2.5,1.03382 -8.99845,0.28359 -9.96968,1.22536 -5.54777,5.37953 1.35067,1.26888 2.36317,2.80982 2.25,3.42431 -0.13644,0.74088 2.91037,1.21412 9.04425,1.40479 5.0875,0.15814 9.25,0.72064 9.25,1.25 0,0.52936 -0.62252,0.96247 -1.38337,0.96247 -0.76085,0 -1.60064,0.83084 -1.86619,1.8463 -0.39622,1.51518 -1.62771,1.89221 -6.86663,2.10229 -3.51109,0.14079 -6.9131,0.28496 -7.56002,0.32037 -0.64691,0.0354 1.04059,2.32822 3.75,5.09514 4.83798,4.94067 6.40471,8.14048 3.42621,6.99753 -0.825,-0.31659 -1.51319,-1.08996 -1.52931,-1.71862 -0.0161,-0.62865 -1.37571,-2.62334 -3.0213,-4.43262 -2.60812,-2.86757 -3.8052,-3.36556 -9.3304,-3.88151 -4.24589,-0.39649 -6.5704,-0.21652 -7.04113,0.54513 -0.38775,0.6274 0.94799,3.15149 2.98017,5.63151 3.66401,4.47143 3.71561,4.49448 10.06243,4.49448 5.00404,0 6.37954,0.32342 6.37954,1.5 0,0.8655 -0.95175,1.53339 -2.25,1.57895 -1.2375,0.0434 -1.6847,0.30685 -0.99377,0.58541 3.01192,1.21429 -0.44192,2.33564 -7.19393,2.33564 -7.21163,0 -7.33824,-0.0449 -8.57894,-3.04016 -0.6926,-1.67209 -3.03565,-4.56068 -5.20678,-6.41908 -3.81906,-3.26897 -3.87897,-3.41559 -1.84137,-4.50608 1.15837,-0.61994 2.54682,-0.8548 3.08546,-0.52191 C 598.56233,638.84754 599,637.97438 599,636.55902 599,634.12384 599.26618,634 604.5,634 c 5.43775,0 6.48223,-0.61777 4.46131,-2.63869 -0.57128,-0.57128 -1.13378,-4.37378 -1.25,-8.45 L 607.5,615.5 l 6.0782,-0.29326 6.0782,-0.29326 -5.47202,-5.60474 -5.47202,-5.60474 -20.60618,0.65113 c -25.5321,0.80679 -43.46485,1.67021 -43.90875,2.11411 -0.18533,0.18532 0.60359,2.18056 1.75313,4.43385 2.08469,4.08632 2.10511,4.09691 7.9031,4.09691 6.76743,0 7.8622,0.64455 5.1258,3.01782 -1.3395,1.16173 -3.88824,1.7639 -7.84444,1.85333 l -5.86027,0.13247 -2.63737,-5.87686 C 541.18682,610.89449 540,607.74368 540,607.12495 c 0,-1.41463 -1.97412,-1.40915 -20.75,0.0576 -8.3875,0.65524 -15.25,1.58753 -15.25,2.07176 0,0.48423 0.89247,0.59716 1.98326,0.25095 1.61896,-0.51384 2.28181,0.11668 3.60858,3.43262 1.54832,3.86963 1.82948,4.06207 5.93495,4.06207 5.26312,0 7.47321,0.77098 7.47321,2.60699 0,1.02183 -1.46552,1.39301 -5.5,1.39301 -4,0 -5.5,0.375 -5.5,1.375 0,1.48109 -4.19432,2.625 -9.625,2.625 -4.17472,0 -4.22264,0.96499 -0.27141,5.4652 2.9453,3.35451 3.42984,3.5348 9.5,3.5348 6.66131,0 7.2755,0.41552 5.07086,3.43054 -1.01257,1.38477 -2.31122,1.7188 -5.5,1.41471 -2.44516,-0.23319 -4.17601,0.0271 -4.17823,0.62832 -0.002,0.57185 -2.96471,1.14726 -6.6895,1.29927 -3.67715,0.15006 -6.87909,0.4662 -7.11542,0.70252 -0.23632,0.23633 1.76146,3.12549 4.43951,6.42036 l 4.86919,5.99068 6.25,0.0568 c 6.46407,0.0587 7.90113,1.02858 4,2.69946 -3.19875,1.37005 -14.29696,1.67017 -16.57994,0.44836 -3.07233,-1.64427 -8.50885,-10.80443 -7.62268,-12.8437 0.41763,-0.96102 0.80281,-2.42232 0.85597,-3.24732 0.096,-1.48957 0.6277,-1.66304 5.77684,-1.88465 2.51722,-0.10834 2.62548,-0.30616 1.78029,-3.25314 -0.49495,-1.72579 -1.58853,-3.89872 -2.43019,-4.82874 -1.94444,-2.14858 -1.92703,-3.49834 0.0847,-6.56865 C 496.0937,622.20804 496.86248,622 503.72316,622 l 7.49315,0 -4.97471,-4.47269 c -4.13465,-3.71741 -4.88958,-4.91797 -4.47061,-7.10966 0.46749,-2.44549 0.2944,-2.59676 -2.38345,-2.08315 -1.58815,0.3046 -8.40004,1.09561 -15.13754,1.75778 -13.27599,1.3048 -14.08482,1.82487 -9.88533,6.3562 2.03517,2.19598 3.21138,2.55152 8.44098,2.55152 3.34198,0 6.35443,0.45 6.69435,1 0.33992,0.55 -0.0835,1 -0.94098,1 -0.85746,0 -1.55902,0.45 -1.55902,1 0,0.55 -1.78417,1 -3.96482,1 -2.90923,0 -4.24302,0.51984 -5.00978,1.95254 -0.82602,1.54344 -2.30514,2.01486 -7.0596,2.25 l -6.01464,0.29746 3.09722,3.75 c 3.03008,3.6687 3.24613,3.75 9.96541,3.75 3.7775,0 7.11478,0.39901 7.41618,0.88669 1.00493,1.62602 -2.68739,3.61254 -6.83356,3.67656 -2.25302,0.0348 -5.03209,0.37823 -6.17569,0.76321 -1.71377,0.5769 -2.91078,-0.37078 -6.80936,-5.39104 -3.01727,-3.88537 -4.61805,-6.87756 -4.42072,-8.2632 0.28098,-1.97294 1.04327,-2.21809 8.30936,-2.67222 5.22052,-0.32628 7.30513,-0.76552 6,-1.26422 -1.1,-0.42032 -3.27871,-2.57455 -4.84158,-4.78718 -2.35344,-3.33188 -2.62471,-4.28429 -1.57912,-5.54415 1.11108,-1.33877 0.46256,-1.49528 -5.40842,-1.30522 -7.2579,0.23497 -7.78855,0.83087 -5.67958,6.37788 0.85761,2.25569 0.58325,3.00619 -2.03448,5.5651 -2.47229,2.41674 -3.88835,2.96335 -7.7413,2.9882 -3.70344,0.0239 -4.33822,0.25012 -2.9576,1.05412 0.96686,0.56304 2.09442,0.81574 2.50571,0.56156 0.41128,-0.25419 2.0119,1.29646 3.55693,3.44587 3.32603,4.62712 2.25455,5.16154 -1.82056,0.90804 -2.59922,-2.713 -3.47812,-3 -9.18709,-3 -6.72704,0 -7.4939,0.62124 -4.31644,3.4968 1.5137,1.36989 1.72828,2.12993 0.88737,3.14316 -1.76462,2.12624 1.46704,2.76651 7.67291,1.52019 6.44919,-1.29518 8.66236,-0.70013 8.24612,2.21713 -0.26561,1.86157 -0.85686,2.08345 -4.80585,1.80355 -2.47664,-0.17554 -5.82484,0.18341 -7.44044,0.79766 -2.77258,1.05413 -3.21479,0.83949 -7.87834,-3.82406 -4.56094,-4.56094 -4.88994,-5.21243 -4.27841,-8.47219 l 0.66248,-3.5313 5.46885,0.56443 c 5.60677,0.57867 6.87927,-0.29993 3.95245,-2.72898 -1.16039,-0.96303 -1.36402,-2.40721 -0.86733,-6.1514 l 0.64907,-4.89291 -13.88268,0.52492 C 406.68686,614.1361 399,614.94796 399,616.14785 c 0,0.52331 0.78513,2.39162 1.74474,4.15181 0.9596,1.76019 1.75983,5.22534 1.77827,7.70034 0.0278,3.7324 0.37684,4.54983 2.04614,4.79215 C 408.13098,633.30918 411.34184,648 407.89301,648 407.40186,648 407,648.43654 407,648.9701 c 0,0.53355 1.6875,0.87105 3.75,0.75 2.75074,-0.16145 3.67121,0.14951 3.45431,1.16698 -0.38563,1.80893 3.17308,9.35131 5.20972,11.04157 2.12386,1.76265 2.13369,5.21876 0.0125,4.40479 -1.27377,-0.48879 -1.51184,0.0409 -1.25,2.78139 0.308,3.22353 0.51283,3.38517 4.28965,3.38517 3.5925,0 4.17431,0.3769 6.17473,4 1.21469,2.2 2.69239,4.54351 3.28379,5.20779 1.78664,2.00685 1.25927,3.48538 -0.9887,2.77191 -1.6271,-0.51642 -1.99752,-0.2661 -1.75,1.18261 0.25906,1.51628 -0.29818,1.81002 -3.18603,1.67946 -10.85779,-0.49086 -38.86798,-0.5414 -39.62828,-0.0715 -0.49158,0.30381 -1.59368,0.0298 -2.44911,-0.60895 z M 429,681.09559 c 0,-0.36912 -1.2375,-2.09059 -2.75,-3.82548 -2.46374,-2.826 -3.13568,-3.0823 -6.45517,-2.46223 l -3.70517,0.69212 1.55292,3.19393 c 1.18313,2.43338 2.30355,3.26862 4.70517,3.50757 3.64369,0.36253 6.65225,-0.13763 6.65225,-1.10591 z m -30.13593,-0.68215 c 0.20023,-0.16953 -0.59835,-1.86547 -1.77464,-3.76874 -1.35882,-2.19861 -2.76787,-3.33966 -3.86407,-3.12911 -0.94895,0.18226 -2.51286,0.36582 -3.47536,0.4079 -1.98373,0.0867 -2.33443,3.11597 -0.71176,6.14795 0.87185,1.62908 1.71318,1.83663 5.25,1.2951 2.31647,-0.35467 4.37559,-0.78357 4.57583,-0.9531 z m 126.7807,-6.82891 c 16.42038,-0.23512 30.98023,-0.69815 32.35523,-1.02894 1.375,-0.3308 18.025,-1.02449 37,-1.54154 75.93833,-2.06923 98.64485,-3.0382 103.3898,-4.41199 l 3.97649,-1.1513 -5.28173,-3.79454 c -3.35402,-2.40962 -5.88445,-3.5619 -6.93314,-3.15712 -0.90828,0.35058 -12.90142,1.04292 -26.65142,1.53852 -22.90664,0.82566 -51.67569,2.22498 -70.5,3.4291 -4.125,0.26387 -14.7,0.76984 -23.5,1.1244 -8.8,0.35456 -17.575,0.84309 -19.5,1.08562 -1.925,0.24254 -15.875,0.58066 -31,0.75138 -15.125,0.17073 -28.58002,0.36925 -29.90004,0.44115 -2.18785,0.11917 -2.02977,0.39895 1.78809,3.16459 2.44058,1.76795 3.89913,3.50147 3.49553,4.15451 -0.39685,0.64213 -0.24455,0.84374 0.35668,0.47216 0.5771,-0.35667 14.48413,-0.84087 30.90451,-1.076 z M 385.70219,659.75 c -1.9505,-3.73595 -2.68212,-4.28818 -6.04875,-4.56562 -3.58015,-0.29505 -3.78742,-0.16464 -3.17881,2 1.63568,5.81756 2.68343,6.81562 7.15489,6.81562 l 4.29156,0 -2.21889,-4.25 z m 30.19016,0.5 c -5.23427,-8.64397 -4.96263,-8.39228 -8.2884,-7.67978 -1.70717,0.36574 -3.41885,0.84964 -3.80372,1.07535 -0.53673,0.31476 1.414,4.55418 3.74234,8.133 0.15565,0.23924 7.34009,1.7892 9.78899,2.11186 0.45736,0.0603 -0.19029,-1.57793 -1.43921,-3.64043 z m 422.01412,-3.87515 c 0.87725,-0.765 -3.3773,-8.55647 -5.20699,-9.53568 -1.14219,-0.61128 -4.14294,-0.76433 -7.28613,-0.37161 l -5.34415,0.66771 2.7154,5.28289 2.7154,5.2829 6,-0.48587 c 3.3,-0.26723 6.18291,-0.64538 6.40647,-0.84034 z M 378.99626,644.1365 c -0.002,-0.35007 -0.89544,-2.099 -1.9853,-3.8865 -1.69803,-2.78497 -2.54757,-3.25 -5.93724,-3.25 -4.80617,0 -5.27523,0.61547 -3.56639,4.6796 0.85519,2.0339 2.15954,3.28021 3.66063,3.49774 2.98425,0.43245 7.83317,-0.21226 7.8283,-1.04084 z m 27.83465,-1.63408 c 0.24106,-0.24106 -0.11595,-1.77635 -0.79335,-3.41175 -1.19287,-2.87984 -1.39388,-2.95515 -6.3846,-2.39195 -2.83413,0.31983 -5.19771,0.63095 -5.2524,0.69139 -0.0547,0.0604 0.30695,1.61592 0.80366,3.45661 l 0.90309,3.34673 5.14265,-0.62637 c 2.82846,-0.3445 5.33989,-0.82359 5.58095,-1.06466 z m -35.04877,-16.98214 c 0.15518,-0.13817 -0.28174,-2.35952 -0.97093,-4.93633 l -1.25307,-4.68509 -4.02907,0.66481 c -2.21599,0.36565 -4.20367,0.8255 -4.41706,1.02189 -0.21339,0.1964 0.19052,2.42332 0.89759,4.94873 l 1.28558,4.59164 4.10241,-0.67721 c 2.25633,-0.37246 4.22937,-0.79026 4.38455,-0.92844 z m 26.51131,-3.14706 c 0.34473,-0.34474 -0.0418,-1.91974 -0.85901,-3.5 C 396.31359,616.70574 395.23256,616 393.03334,616 c -3.46071,0 -4.44132,1.23835 -3.60843,4.55684 0.5162,2.05669 1.21656,2.44316 4.42748,2.44316 2.09785,0 4.09633,-0.28205 4.44106,-0.62678 z m 58.33656,-2.6687 c 0.43685,-0.43751 0.24881,-1.66891 -0.41786,-2.73643 C 455.54547,615.90057 455,614.28335 455,613.37428 c 0,-1.40734 -0.77986,-1.55919 -5.25,-1.02226 -2.8875,0.34683 -6.2625,0.63451 -7.5,0.63929 -2.45054,0.009 -2.7957,1.44318 -1.29667,5.38594 0.90256,2.37391 1.32423,2.4972 7.91787,2.3151 3.83049,-0.10579 7.32196,-0.55032 7.75881,-0.98783 z m 88.49408,-5.97119 c -0.98762,-0.98026 -1.10248,-0.8654 -0.5598,0.5598 0.37553,0.98622 0.93469,1.54122 1.24258,1.23333 0.30789,-0.30789 6.4e-4,-1.11479 -0.68278,-1.79313 z M 375.25,611.33772 c -0.6875,-0.27741 -1.8125,-0.27741 -2.5,0 -0.6875,0.27741 -0.125,0.50439 1.25,0.50439 1.375,0 1.9375,-0.22698 1.25,-0.50439 z m 43.25,-1.26833 c 7.7,-0.51673 24.125,-1.21293 36.5,-1.54712 12.375,-0.33418 30.6,-1.25219 40.5,-2.04001 9.9,-0.78782 25.875,-1.9517 35.5,-2.58639 9.625,-0.6347 19.3,-1.29704 21.5,-1.47187 2.2,-0.17483 13.9,-0.58761 26,-0.9173 12.1,-0.32969 25.825,-1.01584 30.5,-1.5248 9.09409,-0.99004 19.38041,-1.40337 75,-3.01369 41.15088,-1.19142 44.65022,-1.47982 42.94122,-3.53903 -1.42865,-1.72142 -11.22628,-1.83427 -39.94122,-0.46002 -10.725,0.51327 -28.05,1.18881 -38.5,1.50118 -16.59652,0.4961 -30.26054,1.37684 -46.5,2.99723 -2.475,0.24696 -16.875,0.92471 -32,1.50611 -41.02152,1.57686 -61.33542,2.64611 -76.5,4.02669 -27.76617,2.52781 -32.03874,2.84678 -47,3.50873 -12.29456,0.54397 -57.95732,3.95288 -65.5,4.88984 -5.52039,0.68574 22.01858,-0.29064 37.5,-1.32955 z m 211.70349,-3.06307 c -1.63213,-2.86826 -1.99153,-2.99394 -8.57919,-3 l -6.87571,-0.006 2.87571,2.87139 c 2.44746,2.4438 3.72505,2.89055 8.57919,3 l 5.70349,0.12861 -1.70349,-2.99368 z m 66.68197,-1.6127 c 0.212,-0.18216 -0.36087,-1.47025 -1.27305,-2.86241 -1.76803,-2.69835 -3.81275,-3.01031 -11.11241,-1.69543 l -4,0.72051 3.82692,2.61638 c 3.11658,2.13074 4.6015,2.51761 8,2.08427 2.29519,-0.29266 4.34654,-0.68116 4.55854,-0.86332 z m -263.87072,52.84639 c -1.16228,-2.068 -3.46176,-4.53394 -5.10995,-5.47987 -2.57983,-1.48062 -2.84477,-2.00377 -1.9045,-3.76067 0.60071,-1.12244 0.81983,-2.4815 0.48694,-3.02014 -0.68117,-1.10214 0.22745,-1.24129 9.76667,-1.49568 l 6.7539,-0.18012 3.56305,4.34824 c 2.30512,2.8131 3.05307,4.34823 2.11854,4.34823 -0.79447,0 -2.04361,-0.72188 -2.77585,-1.60418 -1.9411,-2.33888 -5.48669,-3.43119 -8.91311,-2.74591 -3.28146,0.6563 -3.69078,1.5087 -1.69448,3.52866 0.71828,0.72679 1.62001,2.15024 2.00384,3.16322 0.59486,1.56988 1.6076,1.79133 6.85988,1.5 4.29518,-0.23824 6.28847,0.0369 6.57949,0.90821 0.29611,0.88656 -1.00493,1.25 -4.4747,1.25 -2.75344,0 -5.74082,0.64186 -6.83333,1.4682 -2.97845,2.25278 -4.13292,1.8525 -6.42639,-2.22819 z m 323.73526,0.002 c -2.79964,-1.73578 -3.76988,-5.17736 -1.5,-5.32072 1,-0.0632 1,-0.17982 0,-0.58333 -1.63819,-0.66103 -1.58512,-2.14546 0.13832,-3.86889 0.88882,-0.88883 4.21681,-1.49275 9.25,-1.67857 6.44684,-0.23802 7.86512,-0.0201 7.88079,1.21105 0.0105,0.82572 0.79801,2.61335 1.75,3.97251 2.3061,3.29241 2.18543,4.02618 -0.66212,4.02618 -1.31616,0 -2.64264,0.65052 -2.94774,1.44561 -0.39725,1.03521 -1.5271,1.28782 -3.97986,0.88979 -2.02054,-0.32789 -3.7065,-0.10055 -4.11128,0.55439 -0.94845,1.53463 -2.59319,1.35144 -5.81811,-0.64802 z M 771.18237,651.5 c -2.94064,-2.47439 -8.78724,-3.35633 -12.5861,-1.89857 -1.32227,0.5074 -1.21779,0.89307 0.66821,2.46673 1.65125,1.37779 3.88907,1.874 8.56225,1.89857 l 6.32672,0.0333 -2.97108,-2.5 z m 14.0206,7.30297 C 784.54134,658.14134 784,656.8528 784,655.93955 c 0,-0.91325 -1.15086,-3.35634 -2.55746,-5.42908 -1.4066,-2.07274 -2.31419,-4.40257 -2.01686,-5.1774 0.29733,-0.77483 -0.12681,-1.66489 -0.94254,-1.97791 -2.43807,-0.93558 -1.68098,-3.15858 1.26686,-3.71982 1.5125,-0.28797 7.63701,-0.66122 13.61002,-0.82946 l 10.86003,-0.30588 2.48133,4.7217 c 1.36474,2.59693 2.72448,6.53443 3.02165,8.75 l 0.54031,4.0283 -3.88167,0.006 c -2.13492,0.003 -5.45667,0.43331 -7.38167,0.9561 -1.925,0.52279 -4.74136,1.16618 -6.25858,1.42976 -1.51721,0.26357 -3.56338,0.73466 -4.54703,1.04686 -0.98365,0.3122 -2.32979,0.0263 -2.99142,-0.63533 z m 22.37006,-8.18784 c -0.33907,-1.69532 -1.74043,-4.7808 -3.11414,-6.85661 l -2.49765,-3.7742 -8.23062,0.56453 c -13.8764,0.95177 -13.37157,0.53752 -8.79761,7.21907 l 3.92398,5.73208 9.66626,0.0988 9.66626,0.0988 -0.61648,-3.0824 z m -344.58963,5.24225 c -1.26814,-1.84656 -3.12432,-4.03238 -4.12484,-4.85738 -1.00052,-0.825 -2.10493,-2.94089 -2.45424,-4.70199 -0.5554,-2.80011 -0.33824,-3.26454 1.73028,-3.70045 1.30097,-0.27417 4.60852,-0.40827 7.3501,-0.29802 3.68661,0.14826 5.06609,0.62094 5.29726,1.8151 0.23195,1.19827 -0.74906,1.78439 -3.80429,2.27294 l -4.11684,0.65831 2.52781,3.00413 c 1.49086,1.77179 2.27821,3.65459 1.91935,4.58977 -0.53154,1.38514 0.42202,1.53883 7.54177,1.2155 6.07539,-0.27589 8.15024,-0.05 8.15024,0.8873 0,0.84881 -1.70599,1.26099 -5.25,1.26842 -2.8875,0.006 -6.87245,0.27937 -8.85544,0.60738 -3.26091,0.53939 -3.82578,0.27555 -5.91116,-2.76101 z m 63.12935,-1.75457 c -3.48808,-3.71007 -5.63017,-9.89719 -4.57624,-13.21783 0.50965,-1.60579 1.61633,-1.88498 7.47186,-1.88498 3.78048,0 7.12577,0.40803 7.43399,0.90674 0.30822,0.49871 -0.22772,0.70605 -1.19098,0.46077 -0.96326,-0.24529 -4.09927,-0.0908 -6.96891,0.34325 l -5.21753,0.78924 5.05037,5.75 5.05037,5.75 5.91716,0 c 3.25444,0 5.91716,0.25714 5.91716,0.57143 0,1.83822 -3.3403,3.1806 -9.02348,3.62629 -6.40213,0.50207 -6.51542,0.46652 -9.86377,-3.09491 z m 31.54863,-2.84179 c -5.80026,-6.17801 -6.07397,-6.87178 -4.23771,-10.74141 1.55545,-3.27788 1.75566,-3.36386 8.58628,-3.68787 l 6.9937,-0.33174 4.74818,6.5 c 5.48659,7.51085 5.75716,8 4.42531,8 C 577.02679,651 570,641.50132 570,639.9463 c 0,-1.17206 -10.18728,-1.06662 -12.11601,0.1254 -0.82041,0.50704 0.0147,2.28698 2.71562,5.78767 l 3.90039,5.05544 6.19098,0.0426 c 3.40504,0.0234 6.43759,0.44161 6.73899,0.92929 1.17249,1.89713 -2.85176,3.51285 -9.1084,3.657 -6.46515,0.14895 -6.52037,0.12676 -10.66019,-4.28267 z m 85.1853,2.06827 c -0.90932,-0.24128 -2.88061,-2.29327 -4.38064,-4.55997 -2.29803,-3.47256 -2.53644,-4.42695 -1.51458,-6.0632 0.78041,-1.24964 0.86822,-2.28644 0.24631,-2.90835 -2.12061,-2.12061 -0.0682,-4.69678 4.15694,-5.21777 7.42828,-0.91594 8.88836,-0.35116 14.55633,5.63066 6.11663,6.45532 7.5435,10.78934 3.55213,10.78934 -1.72285,0 -2.23793,0.4234 -1.8248,1.5 0.47962,1.24987 -0.56783,1.48066 -6.28138,1.384 -3.77135,-0.0638 -7.60098,-0.31342 -8.51031,-0.55471 z M 659,647.21376 c 0,-0.43242 -1.69021,-2.71024 -3.75602,-5.06181 -3.57726,-4.0721 -4.05319,-4.29039 -10,-4.58664 -3.43419,-0.17107 -6.24398,-0.0755 -6.24398,0.21247 0,0.28794 1.9125,2.65994 4.25,5.27112 4.10065,4.58077 4.45207,4.75118 10,4.84935 3.1625,0.056 5.75,-0.25206 5.75,-0.68449 z m 48.90422,4.18429 C 706.66516,650.07912 705.10589,649 704.43919,649 c -1.57744,0 -2.47555,-5.97316 -1.25007,-8.31392 0.63913,-1.22078 0.55994,-2.28352 -0.24217,-3.25 C 702.09992,636.41547 702.07984,636 702.87756,636 703.4949,636 704,635.325 704,634.5 c 0,-1.63065 0.51153,-1.76683 6.5,-1.73037 2.2,0.0134 3.325,-0.18816 2.5,-0.44789 -2.19426,-0.69081 -10,-12.85846 -10,-15.58809 0,-1.28351 0.54,-2.87365 1.2,-3.53365 1.46358,-1.46358 14.8,-1.64381 14.8,-0.2 0,0.55 -2.44844,1 -5.44098,1 -6.11369,0 -7.69895,1.27675 -4.75525,3.82981 1.09308,0.94802 2.86374,3.28664 3.93481,5.19693 l 1.9474,3.47326 7.84327,0.0588 c 8.43745,0.0632 9.76085,0.91163 6.80575,4.36294 -1.27682,1.49122 -2.9643,2.07828 -5.97391,2.07828 -2.4666,0 -4.3661,0.51492 -4.61119,1.25 -0.29368,0.88083 -2.38564,1.14927 -7.08333,0.90894 -7.91518,-0.40494 -8.49853,0.67313 -3.16265,5.84486 2.46609,2.39023 3.32591,3.95699 2.90292,5.28971 -0.56629,1.78424 -0.0757,1.86819 8.49608,1.45384 7.17547,-0.34686 9.09708,-0.15538 9.09708,0.90645 0,0.74041 -0.96289,1.3462 -2.13976,1.3462 -1.17686,0 -2.63936,0.62334 -3.25,1.38521 -0.62881,0.78455 -3.78633,1.60759 -7.2817,1.89805 -5.57008,0.46287 -6.391,0.27916 -8.42432,-1.88521 z M 476.18763,648.69118 C 472.10174,644.52797 471.18908,643 472.78824,643 c 1.01307,0 8.5534,8.9917 8.00239,9.54271 -0.22845,0.22845 -2.2998,-1.50474 -4.603,-3.85153 z M 512.08775,647.5 c -2.2839,-3.025 -3.57546,-5.49467 -2.87014,-5.48815 0.70531,0.007 2.99688,2.48151 5.09237,5.5 4.95701,7.14041 3.17059,7.13089 -2.22223,-0.0118 z m 163.35722,2.77567 c -0.98178,-1.49838 -2.61666,-3.61696 -3.63308,-4.70796 -1.40179,-1.50465 -1.77322,-3.20114 -1.53819,-7.02567 l 0.30984,-5.04204 6.77356,-0.13786 c 4.03771,-0.0822 7.1308,0.32172 7.65804,1 0.48646,0.62582 2.53442,3.05036 4.55103,5.38786 2.56237,2.97011 3.19398,4.25 2.09732,4.25 -0.86309,0 -3.01576,-1.8 -4.78373,-4 -3.02543,-3.76474 -3.52813,-4 -8.54712,-4 -6.40266,0 -6.73555,1.07754 -1.94777,6.30458 2.45658,2.68197 4.2049,3.69542 6.375,3.69542 4.37719,0 9.24013,1.11836 9.24013,2.125 0,0.48125 -0.84752,0.875 -1.88337,0.875 -1.04236,0 -2.11691,0.89308 -2.40638,2 -0.43466,1.66215 -1.36401,2 -5.50162,2 -4.31635,0 -5.21606,-0.36239 -6.76366,-2.72433 z M 544,651.26333 c 0,-0.49683 -1.58307,-2.75279 -3.51792,-5.01324 -1.93486,-2.26044 -3.1212,-4.35509 -2.6363,-4.65478 0.9103,-0.56259 7.86107,7.12743 8.04867,8.90469 0.058,0.55 -0.34445,1.15 -0.89445,1.33333 -0.55,0.18334 -1,-0.0732 -1,-0.57 z M 722.78349,641.25 c -2.25677,-2.58721 -3.98652,-6.25 -2.95156,-6.25 0.49626,0 2.09348,1.8 3.54937,4 2.65759,4.01588 2.25715,5.523 -0.59781,2.25 z m -192.56837,-8.53218 c -5.67014,-5.74145 -6.17219,-7.30829 -3.37509,-10.53337 1.53273,-1.76725 3.14608,-2.16857 9.66035,-2.40301 5.57321,-0.20057 7.94186,0.0777 8.2433,0.96856 0.31077,0.91839 -1.38982,1.25406 -6.41035,1.26531 -3.75833,0.008 -7.45348,0.40811 -8.21145,0.8882 -1.57998,1.00074 -0.66747,3.09649 1.34824,3.09649 0.74365,0 2.48804,1.35 3.87643,3 2.34031,2.7813 3.01068,3 9.19588,3 5.67274,0 6.58067,0.23681 6.06456,1.58179 -0.33385,0.86998 -0.60699,2.1219 -0.60699,2.78203 0,0.80395 -2.40535,1.27198 -7.28488,1.41748 l -7.28489,0.21724 -5.21511,-5.28072 z m 41.2815,-0.81537 c -6.44171,-5.31448 -6.50367,-5.43956 -5.09849,-10.29293 l 1.18982,-4.10952 7.20602,0 c 8.29661,0 10.33854,1.67418 2.43421,1.9958 -2.8995,0.11798 -5.45266,0.39535 -5.67369,0.61638 -0.22103,0.22103 1.02629,2.59054 2.77182,5.26558 l 3.17369,4.86371 6.72808,-0.56072 c 4.48753,-0.37398 6.96084,-0.18408 7.42705,0.57025 0.38443,0.62203 0.1693,1.30752 -0.47808,1.52332 -0.64738,0.21579 -1.17705,0.9537 -1.17705,1.6398 0,0.84669 -1.68661,1.22594 -5.25,1.18051 -2.8875,-0.0368 -5.92652,0.26989 -6.75338,0.68157 -1.00867,0.5022 -3.14761,-0.60799 -6.5,-3.37375 z m 181.70538,1.81257 c -1.2111,-1.28916 -2.202,-2.84476 -2.202,-3.45689 0,-0.61213 -1.125,-1.99789 -2.5,-3.07947 -4.75202,-3.73794 -2.9269,-5.04787 7.97422,-5.72326 3.86418,-0.23941 7.70078,0.003 8.52578,0.53934 0.825,0.53605 1.05,1.02288 0.5,1.08184 -2.10288,0.22544 -6.12818,0.54144 -9.28138,0.72863 -4.16914,0.24749 -4.97278,2.32693 -2.33237,6.03505 1.9636,2.75762 2.48174,2.91916 9.81909,3.06121 10.37859,0.20093 12.25622,2.09853 2.07645,2.09853 -4.19002,0 -8.23912,0.23826 -8.998,0.52947 -0.75888,0.29121 -2.37069,-0.52529 -3.58179,-1.81445 z m 30.87205,0.87421 c -0.64396,-0.77592 -1.44211,-3.08245 -1.77367,-5.12562 -0.46976,-2.8948 -0.22293,-3.92745 1.11817,-4.67796 1.6157,-0.9042 1.60966,-1.0451 -0.0988,-2.30297 -2.57664,-1.8971 -1.07465,-2.22563 12.87984,-2.81724 l 11.69961,-0.49602 1.50349,5.12887 c 1.93118,6.5879 1.28821,7.17734 -1.52127,1.39458 l -2.21005,-4.54896 -7.0857,0.49108 c -11.47425,0.79521 -11.15886,0.62627 -10.75064,5.75887 l 0.35599,4.476 7.15448,-0.5938 c 11.24303,-0.93313 12.93374,-0.86481 13.41537,0.54213 0.24818,0.72501 -0.15899,1.21104 -0.90483,1.08007 C 805.4475,632.47531 797,634.1991 797,635.11354 c 0,1.51746 -11.6227,1.04601 -12.92595,-0.52431 z M 482.75,630.06887 C 479.83874,625.95244 479.48033,625 480.84253,625 c 0.46339,0 1.69072,1.575 2.7274,3.5 1.03668,1.925 2.23255,3.5 2.65747,3.5 0.42493,0 0.7726,0.45 0.7726,1 0,1.96184 -1.54138,0.89879 -4.25,-2.93113 z m 162.97963,-1.35394 c -2.07601,-2.5335 -4.46119,-4.43754 -5.45843,-4.35735 -1.35638,0.10906 -1.8438,-0.73437 -2.08119,-3.60134 -0.28595,-3.45341 -0.11623,-3.72773 2.18845,-3.53699 1.64953,0.13652 3.78683,1.8333 6.29027,4.99376 l 3.79182,4.78699 8.26973,0 c 4.84648,0 8.26972,0.41395 8.26972,1 0,0.55 -0.45,1 -1,1 -0.55,0 -1,0.675 -1,1.5 0,1.03575 -1.04005,1.5 -3.36043,1.5 -1.84823,0 -5.35444,0.27331 -7.79157,0.60736 -4.3084,0.59053 -4.53327,0.48271 -8.11837,-3.89243 z m 29.74715,-1.61436 c -1.99042,-2.77053 -4.78499,-5.88672 -6.21014,-6.92487 -1.9732,-1.43738 -2.39421,-2.33928 -1.76528,-3.78163 0.45425,-1.04174 0.86477,-2.34407 0.91227,-2.89407 0.13681,-1.58404 15.82458,-1.28537 16.35684,0.3114 0.34496,1.03489 -0.84986,1.16579 -5.66667,0.62083 -3.61156,-0.4086 -6.1038,-0.30884 -6.1038,0.24432 0,0.51419 1.16384,2.48482 2.5863,4.37917 1.42247,1.89435 3.00343,4.50174 3.51324,5.7942 0.88537,2.24455 1.29627,2.33423 9.1637,2 8.21252,-0.34889 8.23676,-0.34256 8.23676,2.15008 0,2.07266 -0.42734,2.45342 -2.5,2.22752 -3.83692,-0.4182 -9.20859,-0.26236 -12.20213,0.354 -2.35746,0.4854 -3.16375,-0.0862 -6.32109,-4.48095 z m 94.70504,0.35504 C 766.73559,622.56641 766.5047,622 767.95785,622 c 1.0884,0 6.52008,8.8554 5.84546,9.53002 -0.24182,0.24182 -1.87149,-1.59166 -3.62149,-4.07441 z m -359.14742,0.60867 c -1.35357,-2.52918 -0.96932,-12.67953 0.4656,-12.2993 0.55,0.14575 1.48742,1.72075 2.08315,3.5 0.93943,2.80578 1.59703,3.27783 4.956,3.55767 2.13006,0.17745 5.40995,0.0343 7.28863,-0.31816 l 3.4158,-0.64081 -2.62179,-2.73656 c -2.52084,-2.63119 -3.43919,-5.14061 -1.87179,-5.11474 1.02749,0.017 5.25,6.65343 5.25,8.25135 0,2.24648 -4.03446,4.85844 -8.85034,5.72983 -2.55731,0.46273 -5.62363,1.14588 -6.81404,1.51812 -1.60917,0.50319 -2.456,0.1319 -3.30122,-1.4474 z M 515.80709,628.25 c -2.34203,-2.72712 -3.0199,-4.25 -1.89179,-4.25 0.56834,0 1.73145,1.35 2.5847,3 1.75386,3.3916 1.51552,3.82156 -0.69291,1.25 z m 30.89623,-0.78142 C 545.71514,626.11086 545.30789,625 545.79833,625 546.8017,625 550,628.29503 550,629.32874 c 0,1.4002 -1.56742,0.51578 -3.29668,-1.86016 z M 587.75,623.53047 c -0.9625,-1.32368 -1.75,-2.71464 -1.75,-3.09102 0,-1.05414 2.98817,1.66993 4.08978,3.72831 1.42073,2.65466 -0.28361,2.19044 -2.33978,-0.63729 z M 628.86038,623.25 c -3.74481,-4.52087 -4.37441,-5.57988 -3.05911,-5.14553 0.71569,0.23634 2.22238,1.88452 3.3482,3.66262 2.21207,3.49373 2.0529,4.31023 -0.28909,1.48291 z m 30.82671,-3.05472 C 657.06721,617.46071 656.17906,615 657.81194,615 c 0.73324,0 3.64468,3.53379 5.56122,6.75 1.35354,2.27142 -0.95208,1.29896 -3.68607,-1.55472 z m 64.10313,-1.60163 C 720.44788,614.68282 719.93364,613 722.08089,613 c 0.41116,0 2.132,2.25 3.82409,5 3.77522,6.13552 2.84476,6.39672 -2.11476,0.59365 z m -34.60216,0.44684 c -2.32177,-3.14036 -2.80608,-4.54048 -1.23462,-3.56927 1.59056,0.98302 5.24542,6.52878 4.30271,6.52878 -0.48402,0 -1.86466,-1.33178 -3.06809,-2.95951 z m 55.86964,-0.47097 C 744.34128,617.70629 744.01525,617 744.3332,617 c 0.31794,0 -0.0164,-1.6875 -0.74293,-3.75 -0.72656,-2.0625 -1.10552,-5.2125 -0.84214,-7 l 0.47887,-3.25 10.76405,0 c 12.10676,0 12.33739,0.11818 14.545,7.45354 l 1.36829,4.54646 -5.38478,0 c -4.50653,0 -5.48832,0.3262 -6.01956,2 -0.48218,1.5192 -1.52007,2.00328 -4.31739,2.01365 -2.02543,0.008 -4.61405,0.2638 -5.75247,0.56953 -1.23633,0.33202 -2.5944,-0.0762 -3.37244,-1.01366 z M 767,612.45034 c 0,-0.85231 -0.68656,-2.87731 -1.52568,-4.5 C 763.97978,605.06021 763.7871,605 756.03334,605 c -4.35342,0 -8.17432,0.41909 -8.49089,0.93132 -0.31658,0.51223 0.19021,2.53723 1.12619,4.5 l 1.70178,3.56868 8.31479,0 C 765.52789,614 767,613.72564 767,612.45034 z m -279.83948,3.00261 c -1.48533,-3.25993 -1.46068,-5.59134 0.0312,-2.95295 0.622,1.1 1.73332,2.35986 2.46959,2.79969 1.72797,1.03224 1.72747,2.70031 -8e-4,2.70031 -0.73672,0 -1.86172,-1.14617 -2.5,-2.54705 z m 293.25134,-0.29726 c -0.3184,-1.46063 -0.81678,-3.33069 -1.10751,-4.15569 -0.29073,-0.825 -0.69167,-3.20168 -0.89098,-5.28151 l -0.36237,-3.78152 11.70702,0.28152 11.70703,0.28151 2.34121,4.24785 c 1.28767,2.33632 2.17478,5.03632 1.97135,6 -0.26339,1.24771 -0.92205,0.61177 -2.28784,-2.20893 -1.8439,-3.80809 -1.94301,-3.86602 -2.56623,-1.5 -0.67653,2.56847 -1.45924,1.63376 -2.12605,-2.53892 -0.28538,-1.78581 -1.21059,-2.03124 -8.63919,-2.29175 -8.26769,-0.28992 -8.31512,-0.27745 -7.60541,2 2.19093,7.03063 1.8616,6.79175 9.36334,6.79175 3.83116,0 7.1876,0.35899 7.45877,0.79775 1.23439,1.99727 -1.52818,2.99728 -9.62962,3.48577 l -8.75461,0.52787 -0.57891,-2.6557 z M 520.16052,614.45295 C 518.61638,611.06394 518.69749,610 520.5,610 c 0.825,0 1.5,0.87344 1.5,1.94098 0,1.06754 0.45734,2.22364 1.01631,2.5691 1.07615,0.6651 0.4057,2.48992 -0.91481,2.48992 -0.42926,0 -1.3027,-1.14617 -1.94098,-2.54705 z m 59.03172,-1.49748 c -4.91095,-4.81394 -5.24601,-6.44976 -1.38139,-6.74423 2.1041,-0.16033 3.36882,0.54051 5.02994,2.78729 2.10702,2.84989 2.58118,3.00147 9.38915,3.00147 5.57671,0 6.90339,-0.26667 5.97006,-1.2 -0.66,-0.66 -1.2,-1.80601 -1.2,-2.54668 0,-1.00547 0.61574,-0.89144 2.43008,0.45 3.10126,2.29291 4.03299,5.29668 1.64297,5.29668 -0.95685,0 -2.07072,0.33101 -2.47529,0.73557 -0.40456,0.40456 -2.03888,0.80112 -3.63181,0.88123 -1.59294,0.0801 -4.85043,0.43871 -7.23886,0.79688 -4.10269,0.61523 -4.57424,0.42416 -8.53485,-3.45821 z M 558.602,611.84216 c -2.36739,-3.37991 -1.94673,-4.55014 0.512,-1.42436 1.16271,1.47814 1.88361,2.91793 1.602,3.19953 -0.2816,0.2816 -1.2329,-0.51722 -2.114,-1.77517 z M 295,597.16218 l 0,-2.94986 9.25,-0.65543 c 5.0875,-0.36049 13.525,-1.06483 18.75,-1.5652 13.05638,-1.25033 36.73496,-2.24283 60,-2.51494 10.725,-0.12544 28.725,-0.96754 40,-1.87134 11.275,-0.90379 25.225,-1.8654 31,-2.1369 5.775,-0.2715 14.55,-0.78925 19.5,-1.15057 4.95,-0.36132 12.375,-0.79 16.5,-0.95263 4.125,-0.16263 12.675,-0.75147 19,-1.30853 17.85618,-1.57265 54.19723,-3.54374 102.5,-5.55946 12.09647,-0.5048 31.35869,-1.68693 32.5,-1.99454 0.275,-0.0741 8.6,-0.46526 18.5,-0.8692 9.9,-0.40394 21.375,-0.9139 25.5,-1.13324 20.21445,-1.07485 31.20677,-1.52341 50.5,-2.06071 31.6877,-0.88248 40.75449,-1.31964 43.5,-2.09738 1.375,-0.38951 10.7125,-0.87869 20.75,-1.08707 16.06793,-0.33357 18.25,-0.1914 18.25,1.18904 0,1.28552 1.01948,1.49709 5.66055,1.17473 4.50974,-0.31325 6.02343,-0.87356 7.44549,-2.75606 2.20418,-2.91786 3.36652,-12.85714 2.47576,-21.17042 -0.94894,-8.85622 -4.52759,-31.52942 -5.66377,-35.88382 -1.21671,-4.66305 -10.88263,-14.1981 -14.75288,-14.55314 -11.62877,-1.06677 -77.11024,-1.29634 -94.66515,-0.33189 -11.55,0.63455 -38.50381,1.57704 -59.89736,2.09443 -21.39354,0.51739 -39.61854,1.14343 -40.5,1.39119 -0.88145,0.24777 -21.17764,0.71152 -45.10264,1.03056 -23.925,0.31904 -50.25,0.8026 -58.5,1.07459 -27.0447,0.89162 -63.45202,1.47806 -95.5,1.53828 -17.325,0.0326 -35.1,0.46377 -39.5,0.95826 -4.4,0.49448 -16.93386,1.14641 -27.85302,1.44872 -10.91917,0.30231 -20.20403,0.76659 -20.63304,1.03173 -0.429,0.26514 -9.62432,0.68744 -20.43403,0.93845 -32.89032,0.76372 -40.20918,1.81195 -45.33415,6.49289 -4.87147,4.44939 -5.67332,13.39553 -4.39883,49.07728 1.2839,35.94549 1.33469,36.115 11.15307,37.22195 1.375,0.15502 6.4375,0.41871 11.25,0.58597 l 8.75,0.30412 0,-2.94986 z m 2,-22.89351 c -1.925,-0.2262 -3.92451,-0.82619 -4.44335,-1.33332 -0.51884,-0.50712 -1.02195,-5.68675 -1.11802,-11.51027 -0.16747,-10.15108 -0.08,-10.63138 2.1196,-11.63357 1.26186,-0.57494 3.33997,-0.78161 4.61803,-0.45926 2.22873,0.56212 2.32939,1.00161 2.46189,10.74877 0.0872,6.41785 0.56033,10.42361 1.28387,10.87078 1.14185,0.70571 0.44329,4.19238 -0.77901,3.88816 -0.35365,-0.088 -2.21801,-0.3451 -4.14301,-0.57129 z m 1.53554,-12.79988 c -0.0334,-8.94841 -0.15783,-9.51401 -2.03554,-9.25 -1.773,0.24929 -1.97725,0.96221 -1.79957,6.28121 0.2766,8.27979 1.16467,12.5 2.63042,12.5 0.9027,0 1.23055,-2.59387 1.20469,-9.53121 z m 7.76002,11.32567 c -1.37582,-1.7407 -1.07128,-22.41874 0.35113,-23.84115 0.60445,-0.60445 2.61218,-0.95372 4.46162,-0.77615 l 3.36263,0.32284 0.0543,11.82091 c 0.0299,6.50149 -0.18859,11.96108 -0.48547,12.1324 -2.17963,1.25782 -6.85684,1.46386 -7.74422,0.34115 z M 312,561 c 0,-5.5 -0.4132,-10 -0.91821,-10 -3.24032,0 -3.57928,1.09159 -3.26317,10.50848 0.28878,8.60247 0.49953,9.49152 2.25,9.49152 C 311.84837,571 312,570.2149 312,561 z m 20.55103,9.85477 C 332.25422,569.55965 332.34631,563.775 332.75569,558 l 0.74431,-10.5 3.5,-0.2935 3.5,-0.29351 0,12.46262 c 0,10.4136 -0.24662,12.46175 -1.5,12.45729 -0.825,-0.003 -2.49209,0.3056 -3.70465,0.68565 -1.77519,0.55639 -2.30978,0.23228 -2.74432,-1.66378 z M 338,559.41667 c 0,-7.22092 -0.30814,-9.48123 -1.25,-9.16911 -0.8496,0.28154 -1.3421,3.35126 -1.53753,9.58333 -0.2417,7.70778 -0.0425,9.16911 1.25,9.16911 1.27641,0 1.53753,-1.62753 1.53753,-9.58333 z m -17.33333,11.91666 C 320.3,570.96667 320,566.00254 320,560.30195 c 0,-11.0579 0.0549,-11.17592 5.39367,-11.58858 l 2.76036,-0.21337 0.33139,11.15732 c 0.31841,10.72023 0.24684,11.18 -1.82701,11.73635 -2.88854,0.77489 -5.17959,0.75182 -5.99174,-0.0603 z M 326,560.03138 c 0,-7.56125 -0.23538,-8.87829 -1.5,-8.39301 -1.53513,0.58909 -1.70413,1.62627 -1.89188,11.61111 -0.0912,4.85004 0.16565,5.74957 1.64188,5.75 1.53662,4.6e-4 1.75,-1.09303 1.75,-8.9681 z m 20.98728,10.76821 c -2.17498,-0.80457 -2.20843,-1.06243 -1.50015,-11.56126 0.39844,-5.90608 0.9284,-11.07583 1.17767,-11.48833 0.57889,-0.95794 4.52457,-0.94759 5.8352,0.0153 0.55,0.40408 1,3.20969 1,6.23469 0,3.025 0.30028,8.04189 0.66729,11.14864 0.66377,5.61892 0.65249,5.65081 -2.14407,6.06126 -1.54625,0.22694 -3.81242,0.0423 -5.03594,-0.41031 z m 4.42939,-4.06329 c -0.0458,-0.95496 -0.15834,-5.1488 -0.25,-9.31963 -0.12227,-5.56317 -0.49967,-7.47385 -1.41667,-7.17236 -1.37997,0.45371 -2.45889,9.04958 -1.88999,15.05783 0.27262,2.87924 0.75808,3.72547 2,3.4863 0.90199,-0.1737 1.60249,-1.09717 1.55666,-2.05214 z m 7.57422,0.22986 c -0.68588,-2.54716 -0.85255,-7.12772 -0.43396,-11.92637 l 0.67961,-7.79089 4.19212,-0.0842 4.19212,-0.0841 -0.029,10.96169 c -0.0314,11.88042 0.4387,10.85829 -5.78957,12.58786 -1.29246,0.35891 -1.96363,-0.51582 -2.81134,-3.664 z m 6.40807,-7.71616 c -0.22625,-8.67339 -0.45556,-9.75 -2.07665,-9.75 -1.5857,0 -1.86072,1.03366 -2.11817,7.9611 -0.27145,7.30401 -0.10637,8.10692 2,9.72777 1.26272,0.97166 2.33035,1.77666 2.37251,1.78889 0.0422,0.0122 -0.0378,-4.36526 -0.17769,-9.72776 z m 8.98883,10.56844 c -0.79575,-1.28755 -1.02672,-22.81971 -0.24478,-22.81901 1.31673,0.001 1.85699,3.39808 1.85699,11.67598 0,7.67083 0.19761,8.5635 2,9.03484 1.1,0.28766 2,0.86807 2,1.2898 0,1.14915 -4.96071,1.87253 -5.61221,0.81839 z m 45.89529,0.47293 c -1.59313,-0.30312 -2.35604,-1.31794 -2.71132,-3.60659 C 416.70879,561.12572 416.33037,546 417.05427,546 c 0.38265,0 1.99262,0.25938 3.57771,0.5764 l 2.88199,0.57639 0.32584,9.17361 c 0.17922,5.04548 0.40107,10.25306 0.49302,11.57239 0.18034,2.58776 -0.60021,3.04891 -4.04975,2.39258 z M 422,564.64669 c 0,-6.50648 -1.28985,-15.58558 -2.13961,-15.06041 -1.01159,0.6252 -1.09531,5.8132 -0.21241,13.16372 0.69916,5.82081 2.35202,7.15369 2.35202,1.89669 z m -26.44713,4.43885 c -0.34673,-0.56102 -1.96297,-0.75352 -3.59164,-0.42779 L 389,569.25 l -0.0136,-9.375 c -0.008,-5.15625 -0.26979,-10.32936 -0.58285,-11.4958 -0.44851,-1.67116 -0.0216,-2.25824 2.01366,-2.76905 1.42056,-0.35654 3.62251,-0.38731 4.89321,-0.0684 2.08488,0.52327 2.30449,1.13515 2.25,6.26905 -0.0332,3.12906 0.16463,8.34773 0.43963,11.59706 0.33711,3.9832 0.12263,6.03653 -0.65836,6.30279 -0.6371,0.2172 -1.44204,-0.0641 -1.78877,-0.62512 z m 0.0721,-6.21054 c -0.34375,-1.71875 -0.625,-5.95162 -0.625,-9.40638 0,-5.61633 -0.19562,-6.23023 -1.84758,-5.79823 -1.62679,0.42542 -1.8426,1.54954 -1.80586,9.40638 0.041,8.77232 0.0828,8.92323 2.47258,8.92323 2.18923,0 2.36873,-0.31063 1.80586,-3.125 z m -15.16487,-0.40269 c -0.38448,-3.59023 -0.43155,-7.86523 -0.10459,-9.5 C 380.8451,550.52452 380.62036,550 379.08199,550 c -1.86454,0 -3.62648,-2.57301 -2.28832,-3.34168 0.38848,-0.22316 1.83133,-0.31093 3.20633,-0.19505 2.45983,0.2073 2.50079,0.35389 2.54916,9.12371 0.027,4.90216 0.41703,9.92552 0.86664,11.16302 0.622,1.71199 0.44994,2.25 -0.71957,2.25 -1.15435,0 -1.71109,-1.62526 -2.2361,-6.52769 z m 25.04983,5.16723 c -0.18838,-0.62675 -0.60252,-5.67704 -0.92033,-11.22287 l -0.57782,-10.08334 3.24409,-0.0304 c 1.78426,-0.0167 3.6941,0.32488 4.2441,0.75905 0.55,0.43417 1,5.37687 1,10.98378 l 0,10.19438 -3.32377,0.26945 c -1.8409,0.14923 -3.47658,-0.23895 -3.66627,-0.87009 z m 5.13802,-6.88954 c -0.34683,-2.8875 -0.63451,-6.7125 -0.63929,-8.5 -0.007,-2.4439 -0.44936,-3.25 -1.78537,-3.25 -1.82235,0 -1.82454,0.1211 -0.29447,16.25 0.0391,0.4125 0.80883,0.75 1.71044,0.75 1.39097,0 1.54377,-0.79528 1.00869,-5.25 z m 35.64423,6 c -1.61837,-1.77071 -2.20181,-4.19198 -2.73894,-11.36647 -0.66856,-8.93002 -0.63554,-9.12875 1.61486,-9.71725 1.26356,-0.33042 2.66129,-0.23686 3.10607,0.20792 0.44478,0.44478 0.99543,4.22975 1.22367,8.41104 0.22824,4.1813 0.95561,8.46804 1.61638,9.52609 1.38582,2.21906 0.57967,5.18867 -1.40855,5.18867 -0.74639,0 -2.28246,-1.0125 -3.41349,-2.25 z m 0.70821,-11.25 c -0.80001,-9.16153 -1.22921,-8.96032 -1.00231,0.4699 0.13786,5.72985 0.70479,8.7945 1.45153,7.84663 0.13715,-0.17409 -0.065,-3.91653 -0.44922,-8.31653 z m 30.11216,10.20647 c -0.55758,-1.76356 -1.74584,-6.10582 -2.64057,-9.64946 -2.06497,-8.17846 -4.12625,-14.47786 -6.39943,-19.55701 -1.87457,-4.1885 -3.35406,-12.49544 -2.22742,-12.50632 0.36016,-0.003 1.41025,-1.33403 2.33353,-2.95679 1.86396,-3.2761 6.53822,-5.6025 13.03306,-6.48661 7.68589,-1.04625 33.60617,-2.29837 64.28825,-3.10554 11.55,-0.30386 24.15,-0.7151 28,-0.91388 3.85,-0.19877 19.6,-0.86413 35,-1.47856 15.4,-0.61443 38.35,-1.59584 51,-2.18092 12.65,-0.58507 28.175,-1.22583 34.5,-1.42391 6.325,-0.19808 20.05,-0.66107 30.5,-1.02887 10.45,-0.36781 28,-0.82921 39,-1.02533 11,-0.19613 23.70054,-0.59064 28.22342,-0.87668 l 8.22342,-0.52007 1.77571,3.25174 c 0.97665,1.78846 2.05476,5.05174 2.3958,7.25174 0.34105,2.2 1.82322,7.825 3.29372,12.5 4.36719,13.88416 7.47446,26.13212 6.96588,27.45747 -0.32259,0.84064 -5.62759,1.63207 -16.47284,2.45751 -8.79836,0.66966 -16.98884,1.43146 -18.20107,1.6929 -2.39843,0.51727 -23.05112,1.80528 -53.70404,3.34928 -10.725,0.54022 -30.975,1.64397 -45,2.45279 -14.025,0.80881 -34.275,1.72923 -45,2.04536 -23.7833,0.70105 -46.28282,1.60348 -55,2.206 -3.575,0.2471 -25.4,0.62287 -48.5,0.83503 -23.1,0.21217 -44.78407,0.6177 -48.18681,0.90118 l -6.18682,0.51543 -1.01379,-3.20648 z M 582.5,564.45241 c 12.1,-0.67314 32.8,-1.51644 46,-1.874 26.31992,-0.71294 55.04629,-2.02307 77.5,-3.53457 7.975,-0.53685 20.575,-1.23372 28,-1.5486 22.1308,-0.93855 42.01731,-2.27301 50,-3.35519 4.125,-0.55921 11.01145,-1.31013 15.30323,-1.66871 5.23902,-0.43772 7.67763,-1.03304 7.421,-1.81165 -0.55959,-1.69777 -10.32292,-1.97996 -25.72423,-0.7435 -7.425,0.5961 -24.975,1.16475 -39,1.26367 -14.025,0.0989 -30.45,0.52416 -36.5,0.94499 -6.05,0.42082 -18.65,1.25172 -28,1.84643 -9.35,0.59471 -20.6,1.31473 -25,1.60005 -7.01622,0.45498 -68.7096,1.33233 -98.68045,1.40336 -10.26061,0.0243 -10.69301,0.11255 -11,2.2446 -0.27356,1.89988 -0.9672,2.23223 -4.81955,2.30924 -13.89206,0.27769 -41.99487,1.66435 -45,2.22042 l -3.5,0.64763 4.5,0.58341 c 8.19356,1.06228 66.13021,0.7169 88.5,-0.52758 z M 526,555.57026 c 5.775,-0.29242 33.45,-0.7664 61.5,-1.05329 45.70541,-0.46746 86.52684,-1.791 92,-2.98288 1.1,-0.23955 6.5,-0.51553 12,-0.61329 5.5,-0.0978 13.15,-0.57711 17,-1.0652 3.85,-0.4881 16.225,-1.54497 27.5,-2.34859 53.36498,-3.80358 58.26989,-4.34833 60.65841,-6.73684 1.34405,-1.34405 1.40487,-2.85922 0.45804,-11.41002 C 796.51594,523.93707 795.19079,516.575 794.17165,513 l -1.85297,-6.5 -29.90934,0 c -33.42429,0 -71.52693,1.08777 -90.40934,2.58104 -6.875,0.54369 -20.02464,1.38837 -29.22142,1.87707 -9.19678,0.48869 -17.07178,1.09226 -17.5,1.34126 -1.37777,0.80115 -26.78205,1.6637 -66.77858,2.26733 -83.67346,1.26279 -88.37807,1.94062 -88.4682,12.7463 -0.0326,3.90705 5.58506,25.23605 7.21074,27.37764 0.4971,0.65485 2.10839,1.3581 3.58064,1.56276 3.28855,0.45717 30.90395,0.0396 45.17682,-0.68314 z m 131.5,-11.33499 c -0.55,-0.4044 -1.075,-1.18527 -1.16667,-1.73527 -0.0917,-0.55 -0.31666,-1.675 -0.5,-2.5 -0.27901,-1.25556 1.2963,-1.5 9.66667,-1.5 9.94926,0 10,0.0124 10,2.45332 0,2.15744 -0.48243,2.4809 -4,2.68196 -2.2,0.12575 -6.025,0.47762 -8.5,0.78195 -2.475,0.30432 -4.95,0.22244 -5.5,-0.18196 z M 610,541.90621 C 610,540.2007 610.78967,540 617.5,540 c 4.125,0 7.49311,0.3375 7.48469,0.75 -0.0418,2.04925 -2.0655,2.76344 -8.23469,2.90621 -6.02726,0.13949 -6.75,-0.0479 -6.75,-1.75 z m -115.29496,-9.5345 C 494.31727,531.98393 494,530.37347 494,528.79289 l 0,-2.87377 8.25,0.29044 8.25,0.29044 0,3 0,3 -7.54496,0.28837 c -4.14973,0.15861 -7.86223,-0.0289 -8.25,-0.41666 z M 507,529 c 0,-1.27893 -7.021,-1.27893 -9,0 -1.07384,0.69397 -0.008,0.97372 3.75,0.98469 C 504.6375,529.99311 507,529.55 507,529 z m 50.41518,0.0833 C 557.18683,528.85417 557,527.54997 557,526.18512 l 0,-2.48155 8.18279,0.63101 c 8.64263,0.66647 11.67749,2.02263 8.51657,3.80573 -1.7485,0.98633 -15.45036,1.77982 -16.28418,0.94302 z M 734.98407,514.48081 C 733.63055,512.84991 734.99428,509 736.9255,509 c 0.93073,0 2.51022,0.59812 3.50998,1.32917 1.48582,1.08645 1.61168,1.71418 0.68928,3.43771 -1.18399,2.21232 -4.57039,2.60603 -6.14069,0.71393 z M 724.18045,512.75 c 0.48384,-3.40677 5.03402,-3.59782 7.1935,-0.30203 l 1.67216,2.55203 -4.59261,0 c -4.19071,0 -4.56464,-0.19689 -4.27305,-2.25 z m 21.18118,0.75 c -0.9901,-2.58015 0.44752,-4.50071 3.35699,-4.48469 3.89011,0.0214 5.30587,1.17505 4.62715,3.77047 -0.4551,1.7403 -1.30991,2.21422 -3.99379,2.21422 -2.11284,0 -3.6342,-0.57189 -3.99035,-1.5 z m -314.78678,53.31084 c -0.22499,-0.72096 -0.67627,-5.63867 -1.00283,-10.92823 l -0.59375,-9.6174 3.66707,-0.59508 c 2.01689,-0.3273 3.97918,-0.40219 4.36065,-0.16643 0.38148,0.23577 0.77868,4.38138 0.88267,9.21248 0.104,4.8311 0.28409,9.68382 0.40021,10.78382 0.17276,1.63651 -0.47187,2.05649 -3.54691,2.31084 -2.44896,0.20257 -3.90053,-0.14577 -4.16711,-1 z M 435.54101,556.75 c -0.39449,-4.5375 -0.93939,-8.47429 -1.21089,-8.74843 -0.78635,-0.79398 -3.23857,3.07171 -2.75667,4.34563 0.36559,0.96646 0.77963,4.52403 1.32707,11.4028 0.0547,0.6875 0.83259,1.25 1.72861,1.25 1.43181,0 1.54225,-0.9992 0.91188,-8.25 z M 294.30818,542.27659 c -0.73394,-1.70986 -1.05412,-6.22642 -0.83338,-11.7562 l 0.35844,-8.97961 3.11148,-0.80626 c 1.71131,-0.44345 7.48633,-0.67762 12.83338,-0.52039 L 319.5,520.5 l 0,12 0,12 -12,0.27659 -12,0.2766 -1.19182,-2.7766 z M 311,537.7434 c 0,-3.45016 -1.81253,-9.00698 -3.23173,-9.90778 -0.69755,-0.44275 -3.40577,-0.81189 -6.01827,-0.82031 -5.25161,-0.0169 -4.71011,-0.96318 -5.14157,8.98469 -0.14905,3.4365 0.93494,3.96703 8.14157,3.98469 5.82476,0.0143 6.25,-0.13823 6.25,-2.24129 z M 261.45605,579.25 c -0.3705,-8.6625 -0.84369,-17.325 -1.05153,-19.25 -0.20785,-1.925 -0.61418,-11.21285 -0.90296,-20.63967 -0.47654,-15.55561 -0.34375,-17.54266 1.43682,-21.5 5.25975,-11.68987 9.14127,-12.96784 43.70569,-14.38992 7.22924,-0.29743 15.77924,-1.00156 19,-1.56474 3.28332,-0.57411 29.79876,-1.21 60.35593,-1.44744 29.975,-0.23292 66.2,-0.63095 80.5,-0.88452 14.3,-0.25358 40.4,-0.70993 58,-1.01412 17.6,-0.3042 41.675,-0.7912 53.5,-1.08223 11.825,-0.29103 30.725,-0.73278 42,-0.98166 36.50583,-0.80583 61.03469,-1.52536 84,-2.46407 12.375,-0.50583 23.175,-0.90577 24,-0.88876 7.4108,0.15282 70.36462,-1.17415 70.68029,-1.48983 0.22678,-0.22678 -26.49601,-0.80319 -59.38398,-1.2809 -79.63316,-1.15672 -135.06788,-0.7587 -160.79631,1.15451 -16.34149,1.21519 -90.32296,3.4371 -131.5,3.9494 -42.75129,0.53188 -79.02683,1.75188 -98.86888,3.3251 -7.58009,0.60101 -9.47068,0.47754 -9.90208,-0.64666 -0.42709,-1.11299 -2.44312,-1.26782 -10.13112,-0.77806 -5.27886,0.33628 -17.24792,0.63559 -26.59792,0.66513 -16.68696,0.0527 -27.31826,1.07242 -32.72488,3.13882 -3.43143,1.31149 -10.54924,8.94932 -11.19278,12.01051 -1.86798,8.88558 -2.82861,23.27592 -2.94613,44.13306 -0.11545,20.49109 0.13115,25.03998 1.6179,29.84409 1.6548,5.34713 2.8488,6.5715 7.56074,7.75301 0.17316,0.0434 0.0117,-7.00855 -0.3588,-15.67105 z m -17.81844,-7.01531 c 1.57306,-1.01591 3.99358,-7.09224 4.85405,-12.18535 0.39464,-2.33582 0.82344,-11.73999 0.95289,-20.89815 0.34744,-24.57929 3.57752,-35.49231 11.76587,-39.75171 7.17742,-3.73354 15.87518,-4.89054 37.28958,-4.96035 11.55,-0.0377 42.375,-0.39401 68.5,-0.79188 26.125,-0.39788 64.15,-0.9505 84.5,-1.22804 20.35,-0.27755 42.175,-0.96853 48.5,-1.53552 6.325,-0.567 27.025,-1.18936 46,-1.38303 18.975,-0.19367 52.95,-0.83493 75.5,-1.42503 34.38273,-0.89973 61.4264,-1.06336 105.5,-0.63832 14.37657,0.13865 72.34457,-1.53223 73.28319,-2.11233 0.55277,-0.34163 2.30211,-0.58427 3.88742,-0.53919 l 2.8824,0.082 -5.33151,-6.18387 C 798.78917,475.28274 794.08502,469.575 791.26784,466 c -10.73769,-13.62612 -26.60541,-27.02957 -31.94591,-26.98469 -4.01969,0.0338 -4.43164,1.28282 -4.97438,15.08244 -0.65137,16.56135 -2.78288,23.16668 -8.41219,26.06845 -4.44606,2.29184 -22.25706,3.6681 -32.93536,2.54493 -8.74485,-0.91981 -86.70642,0.81596 -104.96301,2.33694 -10.44684,0.87034 -143.75094,2.38344 -185.03699,2.1003 -6.875,-0.0471 -34.55,-0.21232 -61.5,-0.36705 l -49,-0.28132 -7.05507,-3.56038 c -3.88029,-1.9582 -10.18029,-5.78171 -14,-8.49667 -7.4044,-5.26288 -7.49687,-5.33502 -17.44493,-13.61103 -3.575,-2.97412 -13.83929,-10.2762 -22.80953,-16.22684 -8.97024,-5.95065 -16.0605,-11.06838 -15.75613,-11.37275 0.30437,-0.30437 1.45616,0.26358 2.55953,1.26212 1.10337,0.99854 2.00613,1.53849 2.00613,1.1999 0,-0.75195 -10.25703,-8.32315 -27.23376,-20.10252 -7.05538,-4.8954 -12.44914,-9.2959 -12.09549,-9.86811 0.38063,-0.61587 0.14625,-0.72865 -0.58064,-0.27941 -0.71328,0.44083 -3.37233,-0.67646 -6.41007,-2.6934 -13.87365,-9.21159 -23.85289,-11.6008 -54.88311,-13.14003 -2.03669,-0.10102 -3.96554,-0.44615 -4.28633,-0.76695 -0.85859,-0.85859 -7.1229,1.49524 -9.35481,3.51508 -2.41861,2.18882 -3.23755,11.53617 -2.07122,23.64099 0.45045,4.675 1.01793,15.82134 1.26107,24.76965 0.29248,10.76408 0.85633,16.76878 1.66624,17.74467 0.67329,0.81126 0.98802,2.37805 0.6994,3.48173 -0.28862,1.10369 -0.17063,1.78784 0.26221,1.52034 0.43283,-0.26751 2.41701,2.85646 4.40928,6.94216 4.89059,10.02948 11.42562,18.30715 24.21516,30.67241 10.75384,10.39708 12.69072,12.35604 18.67665,18.88948 6.53893,7.13703 34.30538,32.59105 36.72542,33.66687 1.375,0.61125 4.82825,3.06916 7.67388,5.46203 9.82182,8.25907 13.35349,10.9835 16.08497,12.40839 2.96044,1.54434 7.05256,1.85634 8.87876,0.67696 z M 356.91667,495.36466 C 357.14583,495.1641 354.08178,495 350.10765,495 c -4.05762,0 -6.98042,0.39685 -6.66628,0.90514 0.50475,0.8167 12.47305,0.33667 13.4753,-0.54048 z M 458,482.57709 c 1.925,-0.33408 25.775,-1.04937 53,-1.58955 53.58118,-1.06311 69.65022,-1.5095 109.5,-3.04187 49.85191,-1.91698 79.13018,-2.96783 98,-3.51741 10.45,-0.30436 20.03454,-0.76433 21.29897,-1.02216 1.58935,-0.32409 2.92854,-1.92531 4.33857,-5.18744 2.88245,-6.6686 2.31275,-25.97063 -1.64452,-55.71866 -0.80481,-6.05 -1.93056,-20.45 -2.50168,-32 -0.57111,-11.55 -1.46533,-26.4 -1.98715,-33 -1.48236,-18.74889 -1.88666,-24.30744 -2.50234,-34.40341 -0.31539,-5.17188 -0.79572,-9.76306 -1.06738,-10.20263 -0.67109,-1.08584 -1.42223,-7.83987 -1.88876,-16.98328 -0.21298,-4.17413 -0.8697,-13.62413 -1.45937,-21 -0.58967,-7.37587 -1.29761,-19.26068 -1.5732,-26.41068 -0.27559,-7.15 -0.72118,-15.475 -0.99021,-18.5 -0.26902,-3.025 -0.73502,-11.35 -1.03556,-18.5 -1.0384,-24.70471 -1.59045,-32.01361 -2.68134,-35.5 -1.19013,-3.80355 -5.46618,-10.46629 -10.26858,-16 -6.77917,-7.81152 -28.71445,-29.18682 -39.03745,-38.04089 -6.05,-5.1891 -12.35,-10.7377 -14,-12.330223 -5.59121,-5.396445 -15.98847,-8.406125 -29.5,-8.539328 -4.675,-0.04609 -32.125,0.02048 -61,0.147927 -102.75996,0.453562 -298.80589,-0.471197 -332,-1.566061 -13.02262,-0.429534 -20.71141,-0.352187 -19.5,0.196165 1.1,0.497922 4.025,2.673484 6.5,4.834583 2.475,2.161098 9.75165,8.067157 16.17034,13.124577 6.41869,5.05742 11.81869,9.53993 12,9.96114 0.18131,0.42121 3.70466,3.64781 7.82966,7.17022 26.6642,22.76905 33.36915,30.64352 38.04958,44.68642 l 3.28477,9.85547 -1.21083,14 c -1.95708,22.62828 -1.03791,77.96298 1.86044,112 1.4899,17.49675 2.42689,33.51425 3.56839,61 0.31979,7.7 1.01298,17.6 1.54042,22 0.91341,7.61978 2.16491,25.61581 3.37285,48.5 0.30483,5.775 0.79229,15 1.08325,20.5 0.60759,11.48534 2.26272,22.45566 3.65026,24.19417 0.5242,0.6568 2.60634,1.34112 4.62698,1.52071 6.52835,0.58025 132.55662,-0.01 136.17389,-0.63779 z M 349.03223,464.62687 c -6.67388,-3.56965 -8.50257,-7.91927 -10.56394,-25.12687 -0.26354,-2.2 -0.68018,-12.775 -0.92585,-23.5 -1.41479,-61.76426 -3.98431,-123.2799 -4.40675,-105.5 -0.0915,3.85 -0.54591,7.59879 -1.00986,8.33064 -0.4894,0.77201 -0.70509,-1.53705 -0.51375,-5.5 0.18138,-3.75685 0.53678,-11.30161 0.78977,-16.76612 0.40485,-8.74451 -1.13206,-55.91254 -3.02341,-92.78905 -0.74487,-14.52317 0.29848,-20.14366 4.47758,-24.12038 L 336.5,177.13914 364,176.52326 c 15.125,-0.33874 31.1,-0.85345 35.5,-1.1438 4.4,-0.29036 29.375,-0.68222 55.5,-0.8708 26.125,-0.18859 52,-0.84461 57.5,-1.45784 5.5,-0.61322 12.925,-1.06556 16.5,-1.00519 3.575,0.0604 14.6,-0.1547 24.5,-0.47792 36.68257,-1.19762 73.91008,-1.78889 106.33278,-1.68885 31.69955,0.0978 33.47114,0.20136 36.15652,2.11352 3.91825,2.79004 5.69711,8.84415 5.88133,20.01626 0.65806,39.90811 2.37089,80.1599 4.63791,108.99136 2.02361,25.73571 2.33182,30.95285 3.07199,52 0.35783,10.175 0.7852,19.22229 0.94971,20.10509 0.16451,0.88281 0.58052,14.83281 0.92447,31 0.34395,16.1672 1.01839,33.21991 1.49876,37.89491 0.80812,7.86468 0.71939,8.666 -1.18708,10.72098 -3.39503,3.65946 -7.27676,4.27578 -24.26639,3.85282 -10.70774,-0.26656 -16.43867,-0.0351 -17.32622,0.69964 -0.90756,0.75136 -1.53891,0.77034 -2,0.0601 -0.62718,-0.96605 -92.65455,-0.10899 -114.67378,1.06797 -10.01437,0.53528 -33.80559,1.44031 -56,2.13028 -9.35,0.29066 -21.05,0.72956 -26,0.97532 -4.95,0.24577 -22.725,0.91786 -39.5,1.49356 -16.775,0.57569 -33.2,1.46915 -36.5,1.98547 -3.3,0.51633 -14.18604,1.13837 -24.19119,1.38232 -17.24669,0.42051 -18.40331,0.33009 -22.27658,-1.74161 z M 434,461.47387 c 1.925,-0.26435 14.3,-0.92685 27.5,-1.47224 13.2,-0.54539 26.025,-1.42755 28.5,-1.96035 5.00012,-1.07639 29.09684,-3.3909 32.98123,-3.16787 1.36468,0.0784 4.90213,-0.30506 7.861,-0.85204 2.95887,-0.54698 15.11731,-1.2766 27.01877,-1.62138 42.09027,-1.21933 45.05106,-2.09053 6.139,-1.80637 -35.10558,0.25636 -78.71494,1.63552 -91.65699,2.89866 -2.83635,0.27683 -12.96135,0.75437 -22.5,1.0612 -9.53866,0.30683 -21.39301,0.96958 -26.34301,1.47277 -17.34114,1.76282 -46.56728,2.32303 -54.5,1.04467 -11.0564,-1.78174 -18.09832,-3.94463 -21.68328,-6.65989 -3.68759,-2.793 -4.31672,-2.93696 -4.31672,-0.98776 0,4.60752 10.01448,10.7054 20.62351,12.5578 4.82734,0.84289 63.63107,0.41908 70.37649,-0.5072 z m -22.41748,-6.89347 c 1.90615,-0.36709 13.87008,-1.03532 37.41748,-2.08992 6.325,-0.28327 14.425,-0.72613 18,-0.98414 21.28523,-1.53617 85.54739,-3.36735 121.5,-3.46221 18.7,-0.0493 35.62736,-0.4685 37.61635,-0.93146 1.98899,-0.46297 4.23899,-0.55176 5,-0.1973 1.76484,0.822 26.49405,-0.18229 27.41952,-1.11355 0.3816,-0.384 -1.04536,-2.73174 -3.17102,-5.21721 L 651.5,436.06559 638,435.92483 c -7.425,-0.0774 -14.625,-0.15392 -16,-0.17001 -1.375,-0.0161 -15.325,0.49213 -31,1.12937 -15.675,0.63724 -42,1.3658 -58.5,1.61902 -43.85502,0.67305 -91.68054,2.30783 -102,3.48659 -4.95,0.56542 -14.625,1.45344 -21.5,1.97337 -6.875,0.51993 -14.975,1.18175 -18,1.47071 -3.025,0.28897 -8.2,0.74064 -11.5,1.00371 -6.95444,0.55441 -14.91604,2.01229 -18.5,3.38761 l -2.5,0.95936 3,0.65964 c 1.65,0.36281 4.35,1.29007 6,2.06059 1.65,0.77051 4.125,1.61868 5.5,1.88482 2.65471,0.51383 35.26387,-0.1701 38.58252,-0.80921 z m -46.39502,-1.26351 c -0.72188,-0.28887 -1.58438,-0.25335 -1.91667,0.0789 -0.33229,0.33229 0.25834,0.56864 1.3125,0.52522 1.16495,-0.048 1.4019,-0.28494 0.60417,-0.60416 z m 330.28922,-3.83695 c 1.6372,-0.3307 4.35907,-1.25724 6.04859,-2.05898 2.81129,-1.33404 3.22976,-2.1984 4.93311,-10.18933 2.49359,-11.69822 3.14048,-38.23061 1.66356,-68.23163 -1.99085,-40.44065 -3.30985,-64.37922 -3.6424,-66.10602 -0.35271,-1.83148 -1.87827,-28.82854 -3.46927,-61.39398 -0.56428,-11.55 -1.25966,-25.725 -1.54529,-31.5 -0.28769,-5.81666 -1.46385,-14.06826 -2.63695,-18.5 -1.7838,-6.73885 -2.78146,-8.64554 -6.3286,-12.09496 -5.06071,-4.92128 -9.74705,-6.30467 -24.11375,-7.11824 -13.20102,-0.74757 -13.74492,-0.53672 -11.34085,4.39636 2.132,4.37481 5.89912,17.97609 5.78071,20.87146 -0.0437,1.06996 0.16719,3.29538 0.46875,4.94538 0.50783,2.77858 0.96293,7.59434 2.31533,24.5 0.28598,3.575 0.90414,10.1 1.37369,14.5 0.46954,4.4 0.91634,11.33805 0.9929,15.41788 0.0766,4.07984 0.60922,9.70484 1.18369,12.5 1.39832,6.80375 1.89446,25.86478 2.3317,89.58212 0.30412,44.31698 0.60751,62.92072 1.45429,89.17668 0.0297,0.92217 0.84157,1.89256 1.80407,2.15641 2.1527,0.59014 18.64686,-0.0291 22.72672,-0.85315 z M 686,422.82461 c -9.5962,-2.72808 -11.61071,-12.02664 -3.54642,-16.36954 3.07975,-1.65856 3.78795,-1.69548 7.70779,-0.40181 2.37404,0.7835 5.10893,2.21704 6.07754,3.18565 3.37733,3.37733 1.63575,11.58591 -2.89623,13.65082 -2.77886,1.26613 -2.65612,1.26722 -7.34268,-0.0651 z m 7.3317,-2.07789 c 0.94268,-0.6893 1.97935,-2.88865 2.30371,-4.88743 0.83954,-5.17346 -2.22606,-8.21431 -7.31812,-7.25903 -2.73611,0.51329 -3.42174,0.37776 -2.84117,-0.56162 1.52533,-2.46803 -3.42487,0.95351 -5.11797,3.53751 -2.17377,3.31759 -0.57244,6.99259 3.89254,8.93327 4.07606,1.77164 6.88239,1.84497 9.08101,0.2373 z m -10.08662,-2.90164 c -1.89514,-1.89514 -1.4868,-5.64535 0.74473,-6.83963 2.98814,-1.5992 7.21372,1.4363 6.81222,4.89365 -0.24105,2.07582 -0.90868,2.66047 -3.30695,2.89598 -1.65271,0.16229 -3.56521,-0.26521 -4.25,-0.95 z M 689,415 c 0,-2.12106 -3.34741,-2.86493 -4.5,-1 -0.9233,1.49394 0.36137,3 2.55902,3 1.27431,0 1.94098,-0.68694 1.94098,-2 z m -10.20208,-42.30711 c -2.31521,-2.1494 -2.61842,-3.0587 -2.11771,-6.35073 0.32141,-2.11319 1.53735,-4.89742 2.70209,-6.18717 5.04324,-5.58457 17.67325,0.81727 16.19494,8.20882 -0.90294,4.51468 -2.81444,5.90868 -8.77647,6.40044 -4.60887,0.38014 -5.65347,0.10977 -8.00285,-2.07136 z m 6.63698,-0.66814 c 3.17242,-1.20615 3.34917,-4.22642 0.51899,-8.86859 -1.91322,-3.13815 -2.17443,-3.25417 -4.24626,-1.88604 -2.94414,1.94415 -3.63633,8.57763 -1.08939,10.44 2.10607,1.53999 1.66884,1.51143 4.81666,0.31463 z m -5.74406,-47.38026 c -2.09503,-0.66984 -4.22564,-1.87638 -4.73468,-2.68119 -2.5668,-4.05821 0.60755,-12.89613 5.41942,-15.08856 3.50688,-1.59785 11.00292,2.19416 13.46108,6.80952 2.01262,3.77884 1.40074,7.01051 -1.7525,9.25581 -3.77338,2.68688 -7.65213,3.22032 -12.39332,1.70442 z M 688.8,320.8 c 1.68801,-1.68801 1.49324,-6.31175 -0.32961,-7.82458 -3.55052,-2.94667 -9.38612,4.01134 -6.391,7.62023 1.42724,1.71972 5.09375,1.83121 6.72061,0.20435 z M 664.37459,206.5 c -0.20349,-0.55 -0.0335,-6.59875 0.37772,-13.44166 l 0.74769,-12.44166 11,0.26436 c 6.05,0.1454 11.35748,0.61162 11.79439,1.03605 0.43692,0.42443 0.66192,6.26354 0.5,12.97581 l -0.29439,12.20412 -11.87772,0.20149 c -7.19374,0.12203 -12.02362,-0.19286 -12.24769,-0.79851 z M 682.5,193 l 0,-8.5 -6.75,-0.29569 -6.75,-0.29569 0,8.48532 0,8.48533 3.75,0.31713 c 2.0625,0.17442 5.1,0.31408 6.75,0.31036 l 3,-0.007 0,-8.5 z m -18.94121,231.53277 c 0.85292,-19.44382 1.0098,-120.69075 0.19838,-128.03277 -1.21699,-11.0117 -3.30289,-45.12266 -4.22721,-69.1279 -0.83574,-21.7048 -5.17759,-47.13298 -9.05954,-53.05759 C 649.26451,172.47406 648.05025,172 644.54202,172 l -4.41188,0 3.54873,7.68077 c 5.86697,12.6983 7.02144,18.67686 7.78569,40.31923 1.04221,29.51387 1.43034,37.84478 2.11984,45.5 0.34677,3.85 0.75491,20.05 0.90698,36 0.15207,15.95 0.66622,34.4 1.14256,41 1.09419,15.16091 0.80086,73.06413 -0.4306,85 l -0.92856,9 3.5985,3.78374 3.5985,3.78373 0.73572,-2.75097 c 0.40465,-1.51303 1.01273,-9.06571 1.35129,-16.78373 z M 394.5,440.95499 c 44.28363,-2.26059 104.00643,-4.08777 145,-4.43618 18.15,-0.15426 42.225,-0.77506 53.5,-1.37955 11.275,-0.6045 28.825,-1.37018 39,-1.70151 10.175,-0.33134 18.86645,-0.95433 19.31434,-1.38443 2.79194,-2.68107 4.1647,-58.97384 2.13509,-87.55332 -0.78118,-11 -1.43073,-30.8 -1.44343,-44 -0.0127,-13.2 -0.43728,-28.95 -0.94349,-35 -0.50621,-6.05 -1.19247,-21.125 -1.52501,-33.5 -0.33255,-12.375 -0.86479,-24.975 -1.18277,-28 -0.70021,-6.66141 -3.48482,-15.35501 -7.33468,-22.89901 -5.16284,-10.11685 0.81341,-9.19643 -52.52005,-8.08877 -47.20164,0.9803 -51.60612,1.12955 -87.5,2.96491 -10.725,0.5484 -31.875,1.21156 -47,1.4737 -15.125,0.26213 -38.525,1.14589 -52,1.9639 -13.475,0.818 -32.375,1.56937 -42,1.66969 -19.80867,0.20647 -22.04375,0.81331 -24.63842,6.68949 -2.39175,5.41665 -2.97436,31.28556 -0.88801,39.42939 1.26945,4.95516 1.43067,11.33729 0.97546,38.61647 -0.32695,19.59259 -0.1064,38.8876 0.55072,48.18023 0.60283,8.525 1.73303,39.8 2.51155,69.5 0.77853,29.7 1.57614,54.82349 1.77248,55.82997 0.19633,1.00648 1.0003,2.26383 1.78659,2.79411 1.46734,0.98958 16.87108,0.6461 52.42963,-1.16909 z m 31.5,-16.3 C 426,423.74474 426.54,423 427.2,423 c 0.93333,0 0.93333,-0.26667 0,-1.2 -0.66,-0.66 -1.2,-1.48756 -1.2,-1.83902 0,-1.14209 6.71722,-0.44055 8.29146,0.86595 1.032,0.85648 1.74156,0.92867 2.17853,0.22163 1.25198,-2.02575 3.32028,-1.08046 3.17422,1.45073 -0.1086,1.88223 -0.69973,2.49947 -2.39421,2.5 -2.90604,9.2e-4 -3.80927,-0.32148 -3.5,-1.24929 0.47943,-1.43828 -4.10646,-0.73738 -5.92126,0.90499 -1.70166,1.53998 -1.82874,1.53998 -1.82874,0 z m -8.87244,-1.31761 c 1.06996,-1.29619 1.09695,-1.75534 0.12244,-2.08333 -0.6875,-0.2314 -1.25,-0.86354 -1.25,-1.40477 0,-0.54123 0.883,-0.7038 1.96223,-0.36127 1.07922,0.34253 2.87922,0.13203 4,-0.46779 1.63904,-0.87719 2.03777,-0.7902 2.03777,0.4446 0,0.84435 -0.5625,1.54949 -1.25,1.56698 -0.70811,0.018 -0.41462,0.66381 0.677,1.48967 2.35346,1.7805 1.47431,3.03126 -1.14524,1.62933 -1.16461,-0.62329 -2.44433,-0.66024 -3.33564,-0.0963 -2.32466,1.47074 -3.30534,1.08404 -1.81856,-0.71708 z m 163.32854,0.73365 C 580.82016,423.48197 581.99148,423 583.05902,423 584.46273,423 585,422.308 585,420.5 c 0,-2.01635 -0.49581,-2.5 -2.56286,-2.5 -1.84196,0 -2.51278,0.49225 -2.38484,1.75 0.34987,3.43955 -0.163,3.70328 -1.45857,0.75 -1.72019,-3.92121 -0.43715,-5.5 4.4697,-5.5 4.212,0 5.72998,1.33907 3.9497,3.48418 -0.63748,0.76811 -1.01372,2.4359 -0.83609,3.70619 0.27531,1.96886 -0.17173,2.357 -3.02996,2.63066 -2.194,0.21007 -3.12412,-0.0492 -2.69098,-0.75 z M 396,421.19819 c 0,-2.51617 0.3566,-2.81192 3.49781,-2.90096 1.92379,-0.0545 3.24527,0.30946 2.93662,0.80887 -0.30866,0.49942 0.14233,1.17799 1.00219,1.50795 2.69539,1.03432 1.70201,2.36368 -1.31534,1.76021 -1.63691,-0.32739 -3.17218,-0.10091 -3.55902,0.525 -1.24398,2.0128 -2.56226,1.1376 -2.56226,-1.70107 z m 9.55466,0.0837 c -0.80892,-2.10801 -0.84369,-2.08185 2.76724,-2.08185 2.0905,0 3.73019,0.65377 4.42332,1.76364 0.98093,1.57073 0.67825,1.76363 -2.76725,1.76363 -2.45139,0 -4.07185,-0.52952 -4.42331,-1.44542 z M 590.79418,419.3066 C 589.78465,415.41513 590.80539,415 601.38333,415 610.90141,415 614,415.76289 614,418.10629 c 0,0.38846 -4.3875,0.89045 -9.75,1.11553 -5.3625,0.22508 -10.47836,0.7427 -11.36858,1.15027 -1.11816,0.51192 -1.76347,0.18249 -2.08724,-1.06553 z m -232.30167,-2.31867 c -0.23068,-0.37326 -0.70866,-2.48745 -1.06218,-4.69821 -0.59703,-3.73362 -0.4559,-4.06645 1.98398,-4.67882 3.19493,-0.80187 6.59064,0.83827 6.57204,3.17432 -0.0332,4.16644 -1.21904,6.02197 -4.1208,6.44786 -1.62448,0.23842 -3.14235,0.12811 -3.37304,-0.24515 z m 4.65289,-7.24249 C 361.5166,408.1166 359,409.7276 359,412.39906 c 0,3.50176 4.35357,4.1592 4.82818,0.72912 0.1805,-1.3045 -0.12676,-2.82676 -0.68278,-3.38278 z m 21.96466,5.17253 -2.38993,-0.95701 0.73459,-13.23046 c 0.40403,-7.27675 0.65218,-17.95546 0.55144,-23.73046 -0.10073,-5.775 -0.25582,-44.15798 -0.34465,-85.29551 l -0.16151,-74.7955 3.26483,0.2955 3.26483,0.29551 0.0879,24 c 0.0483,13.2 -0.241,45.08294 -0.64298,70.85098 l -0.73089,46.85097 14.62816,-0.59011 14.62815,-0.59011 0.0152,19.23914 c 0.0104,13.13898 0.44022,20.66594 1.35571,23.73913 l 1.34053,4.5 5.31502,0.30818 c 4.24591,0.24619 5.11716,0.045 4.33135,-1 -0.54102,-0.7195 -1.10088,-6.85802 -1.24413,-13.64115 -0.14325,-6.78313 -0.44524,-13.29247 -0.67108,-14.4652 -0.22585,-1.17273 -0.71249,-7.47336 -1.08142,-14.0014 l -0.67078,-11.86916 -10.89111,0.33436 -10.89111,0.33437 0.29592,-3 0.29592,-3 12.78494,-0.28014 c 7.03171,-0.15407 13.50058,0.12036 14.37526,0.60985 1.36746,0.76527 1.64292,4.23791 1.96562,24.78014 0.20641,13.13958 0.88653,26.47765 1.51138,29.64015 l 1.13609,5.75 15.36335,0 c 13.92902,0 15.3722,-0.16338 15.45809,-1.75 0.3478,-6.42479 -0.39996,-52.96098 -0.93598,-58.25 L 466.5,339.5 461,338.74436 c -5.66713,-0.7786 -20.37417,-0.24918 -22.06239,0.7942 -1.52283,0.94116 -2.19722,-2.18496 -0.96718,-4.4833 1.08548,-2.02826 1.72817,-2.09157 18.55634,-1.82814 l 17.4319,0.27288 0.50773,21.13434 c 0.27925,11.62389 0.7097,22.64889 0.95656,24.5 0.24687,1.85111 0.73413,7.64066 1.0828,12.86566 1.03383,15.49203 -0.77872,14 17.00749,14 l 15.29644,0 -0.40349,-3.75 c -0.85499,-7.94643 -2.40572,-36.56432 -2.93966,-54.25 -0.30719,-10.175 -0.79321,-20.43125 -1.08005,-22.79166 l -0.52153,-4.29166 -16.67282,0.1342 c -14.17818,0.11412 -16.82135,-0.10128 -17.66553,-1.43958 -0.70736,-1.12139 -0.56641,-1.98901 0.49034,-3.01832 1.55192,-1.51163 8.08165,-1.89041 29.18613,-1.69306 L 509.90617,315 l 1.66395,3.50652 c 1.25989,2.65502 1.38851,3.8384 0.52966,4.87325 -0.62386,0.7517 -0.93028,1.98627 -0.68094,2.74348 0.47552,1.44412 1.73248,21.6484 4.14173,66.5741 0.52174,9.72909 0.96021,12.25859 2.16679,12.5 0.83198,0.16646 7.42117,0.0777 14.64266,-0.19735 l 13.12998,-0.5 -0.0861,-5 c -0.39248,-22.78908 -4.88355,-94.83288 -6.02704,-96.68309 -0.30833,-0.49889 -7.15901,-0.83802 -15.22373,-0.75363 l -14.66312,0.15345 -0.30291,-2.46835 c -0.30092,-2.45209 -0.23503,-2.47224 10,-3.058 5.6666,-0.3243 14.4632,-0.27481 19.54801,0.10999 l 9.2451,0.69963 0.55971,16.5 c 0.30784,9.075 0.97818,21.675 1.48965,28 0.51146,6.325 1.41442,20.725 2.00657,32 0.59215,11.275 1.30761,22.87224 1.58991,25.77163 l 0.51328,5.27164 13.67534,-0.65915 c 7.52144,-0.36253 13.83676,-0.79619 14.03406,-0.96369 0.6244,-0.53009 -1.90398,-65.53833 -2.89445,-74.42043 -0.52132,-4.675 -0.95155,-11.91837 -0.95607,-16.09638 -0.005,-4.178 -0.29448,-11.603 -0.64437,-16.5 l -0.63617,-8.90362 -15.0003,0 c -14.15409,0 -15.0785,-0.11898 -16.38651,-2.1091 -1.63573,-2.48871 -0.7315,-5.75478 1.36998,-4.94837 0.79901,0.30661 9.44819,0.55747 19.2204,0.55747 l 17.76765,0 0.61775,24.25 c 0.33977,13.3375 0.81769,25.6 1.06205,27.25 0.24437,1.65 0.72132,10.425 1.0599,19.5 0.56944,15.2629 1.07814,23.05323 2.08953,32 0.21762,1.925 0.69226,7.12079 1.05476,11.5462 l 0.6591,8.0462 9.12901,-0.38148 c 5.02096,-0.20981 12.23909,-0.6806 16.04028,-1.0462 l 6.91126,-0.66472 -0.13435,-32 c -0.0739,-17.6 -0.59449,-36.275 -1.15689,-41.5 -1.50942,-14.02318 -2.87166,-31.99599 -3.39804,-44.8324 -0.2556,-6.23283 -0.76505,-11.63283 -1.13212,-12 -0.36707,-0.36718 -8.58149,-0.74775 -18.25427,-0.8457 -18.40919,-0.18643 -20.21156,-0.64433 -18.64146,-4.73596 0.70407,-1.83477 0.58221,-1.82142 14.39461,-1.57712 5.775,0.10214 14.775,0.25444 20,0.33845 9.47685,0.15236 9.49957,0.15882 9.32273,2.65273 -0.35193,4.96318 1.79367,45.83604 3.17592,60.5 1.9626,20.8207 3.37706,47.99165 3.47616,66.77475 0.022,4.1618 0.34613,4.89677 2.52519,5.72525 2.65814,1.01062 3.40844,4.32052 1.27787,5.63728 -0.67217,0.41543 -2.85728,0.63726 -4.85579,0.49297 -1.99851,-0.1443 -8.08605,0.19755 -13.52787,0.75966 -9.43611,0.9747 -17.62472,1.34769 -57.39421,2.61427 -9.625,0.30654 -19.74184,0.79785 -22.48187,1.09179 -2.74003,0.29394 -4.65021,0.20278 -4.24486,-0.20257 0.75429,-0.75429 43.8465,-3.03716 62.72078,-3.32272 5.77172,-0.0873 10.94389,-0.60862 11.49371,-1.15844 1.01456,-1.01456 -22.82786,-0.62526 -38.48776,0.62843 -7.6698,0.61403 -105.11938,2.67431 -135.16382,2.85765 -9.16511,0.0559 -17.00261,0.43918 -17.41667,0.85168 -0.9372,0.93366 81.5937,1.19909 89.08049,0.2865 5.24163,-0.63892 24.44068,-0.92916 24.99202,-0.37781 1.10985,1.10985 -32.87153,2.11439 -81.146,2.39879 -44.99074,0.26507 -52.43008,0.61845 -58.34602,2.77154 -0.825,0.30026 -2.57547,0.11527 -3.88994,-0.41109 z M 388,412.60699 c 0,-0.21616 -0.675,-0.65203 -1.5,-0.96862 -0.825,-0.31658 -1.5,-0.13972 -1.5,0.39301 0,0.53274 0.675,0.96862 1.5,0.96862 0.825,0 1.5,-0.17686 1.5,-0.39301 z M 410.28475,386.75 c -0.23716,-10.5875 -0.61241,-19.82103 -0.83387,-20.51896 -0.25803,-0.81317 -1.75829,-1.14974 -4.17677,-0.93703 -2.07576,0.18256 -4.99357,0.003 -6.48403,-0.39974 -1.49046,-0.40242 -4.29437,-0.24539 -6.23091,0.34895 l -3.52098,1.08062 0.006,13.08808 c 0.003,7.19844 0.27782,16.12558 0.61012,19.83808 l 0.60418,6.75 10.22877,0 10.22877,0 -0.43121,-19.25 z M 610.25,405.33772 c -0.6875,-0.27741 -1.8125,-0.27741 -2.5,0 -0.6875,0.27741 -0.125,0.50439 1.25,0.50439 1.375,0 1.9375,-0.22698 1.25,-0.50439 z M 415.93017,382.31307 c -0.13052,-14.84863 -0.40794,-18.16144 -1.44856,-17.29781 -0.93061,0.77234 -1.43068,0.71043 -1.80542,-0.22352 -0.73682,-1.83636 -0.77619,33.23309 -0.0404,35.97934 0.4909,1.8322 0.8836,2.04275 2.03215,1.08954 1.14831,-0.95302 1.39243,-4.73368 1.26222,-19.54755 z m 58.66,18.31255 c 0.29007,-0.7559 -0.17406,-11.73065 -1.03139,-24.38831 C 472.70145,363.57964 472,349.82466 472,345.6707 c 0,-6.87529 -0.99595,-10.1043 -2.41057,-7.8154 -0.77391,1.25221 0.97952,61.63823 1.82973,63.0139 0.95396,1.54353 2.53174,1.42234 3.17101,-0.24358 z M 432.6665,376.25 c -0.34094,-13.6125 -0.63038,-24.8625 -0.6432,-25 -0.0128,-0.1375 -0.6983,-0.25 -1.5233,-0.25 -1.79575,0 -1.93758,4.96206 -0.52877,18.5 0.51512,4.95 1.00754,12.825 1.09428,17.5 0.16272,8.77082 0.7987,14 1.70269,14 0.28501,0 0.23924,-11.1375 -0.1017,-24.75 z M 512.05337,361 c -0.58596,-7.975 -1.35363,-19.9 -1.70593,-26.5 -0.62451,-11.69931 -0.86556,-12.76837 -2.76212,-12.25 -2.40598,0.6576 1.27369,76.36602 3.78937,77.96545 1.61806,1.02874 2.00269,-21.19558 0.67868,-39.21545 z m 38.6447,19.73963 c -0.33283,-10.42521 -1.32268,-28.46898 -2.19966,-40.09728 -0.87699,-11.62829 -1.83829,-24.85485 -2.13623,-29.39235 -0.4632,-7.05418 -0.8008,-8.25 -2.32911,-8.25 -1.49551,0 -1.7256,0.69403 -1.40898,4.25 0.20813,2.3375 0.55843,8.3 0.77845,13.25 0.22002,4.95 0.87103,17.775 1.44669,28.5 0.57567,10.725 1.29688,25.05381 1.6027,31.84179 0.70888,15.73428 1.66852,20.81984 3.69262,19.56887 0.84734,-0.52368 0.99607,-5.80923 0.55352,-19.67103 z M 588,398.52347 c 0,-0.1338 -0.66414,-6.94382 -1.47586,-15.13337 -0.81172,-8.18956 -1.72013,-22.3151 -2.01869,-31.3901 -0.29856,-9.075 -1.01497,-21.56964 -1.59203,-27.76586 -0.57706,-6.19622 -1.13115,-16.88311 -1.23131,-23.74865 -0.14197,-9.73139 -0.48012,-12.48308 -1.53414,-12.48414 -1.48392,-10e-4 -1.10249,14.23766 1.31256,48.99865 0.66871,9.625 1.32532,24.025 1.45915,32 0.13383,7.975 0.37422,15.625 0.5342,17 0.15998,1.375 0.3483,5.04537 0.4185,8.15638 0.11587,5.13571 0.31172,5.60824 2.12762,5.13337 1.1,-0.28766 2,-0.63248 2,-0.76628 z M 627.55657,372.25 c -0.38845,-13.6125 -0.90704,-26.47064 -1.15243,-28.57364 -0.24539,-2.103 -0.62994,-6.153 -0.85456,-9 -0.22462,-2.847 -1.10266,-13.05136 -1.9512,-22.67636 -0.84853,-9.625 -1.83064,-23.76661 -2.18245,-31.42581 -0.47599,-10.36271 -0.90387,-13.45367 -1.67232,-12.08052 -1.1556,2.06492 0.69179,43.31197 2.32927,52.00633 0.51793,2.75 1.18051,19.175 1.47239,36.5 0.60929,36.16515 0.91103,40 3.14742,40 1.40359,0 1.49522,-2.62539 0.86388,-24.75 z M 386,353.44098 c 0,-5.25746 -0.3375,-9.35182 -0.75,-9.09857 C 384.48214,344.81381 384.795,363 385.57097,363 385.80694,363 386,358.69844 386,353.44098 z m -0.39583,-59.17015 c -0.33229,-0.33229 -0.56864,0.25834 -0.52522,1.3125 0.048,1.16495 0.28494,1.4019 0.60416,0.60417 0.28887,-0.72188 0.25335,-1.58438 -0.0789,-1.91667 z m 1.94771,-49.15709 c 0.65264,-22.49025 0.55768,-26.31696 -0.64309,-25.91693 -1.17544,0.3916 -1.4248,6.58414 -1.50547,37.38627 -0.10447,39.89082 0.79794,35.07361 2.14856,-11.46934 z m -28.98331,158.98925 c -1.46104,-0.57222 -1.99755,-1.89458 -2.20294,-5.42972 L 356.09412,394 l 3.8221,0 c 3.57785,0 3.85764,0.21903 4.37829,3.42744 1.07793,6.64252 -0.65418,8.6619 -5.72594,6.67555 z m 1.83619,-3.36489 C 362.29742,398.84543 361.95426,396 359.83333,396 358.46296,396 358,396.75758 358,399 c 0,3.28903 0.49561,3.64724 2.40476,1.7381 z m -2.16657,-13.61068 c -0.54074,-0.34508 -0.97918,-2.53992 -0.97431,-4.87742 l 0.009,-4.25 4.19697,0 c 2.30833,0 4.41557,0.2186 4.68275,0.48578 0.26718,0.26719 0.22968,2.39136 -0.0833,4.72038 -0.52608,3.91436 -0.80653,4.24648 -3.70845,4.39164 -1.72663,0.0864 -3.58175,-0.1253 -4.12248,-0.47038 z m 5.57492,-5.37742 c 0.49136,-2.57805 -3.44053,-2.28274 -4.11837,0.30932 -0.43541,1.66502 -0.12463,2.00009 1.62315,1.75 1.18892,-0.17013 2.31177,-1.09682 2.49522,-2.05932 z M 357,365.60699 c 0,-3.9483 1.6548,-4.94998 6.63424,-4.01583 3.03464,0.5693 3.36576,0.9648 3.36576,4.02013 l 0,3.38871 -5,0 -5,0 0,-3.39301 z m 8.38157,-0.055 c -0.73902,-1.92586 -4.30096,-3.03258 -5.5951,-1.73844 -1.53137,1.53137 -0.28813,2.72283 3.11146,2.98187 2.33231,0.17772 2.91671,-0.11486 2.48364,-1.24343 z m -7.43185,-14.98654 c -0.0276,-0.036 -0.2123,-1.93278 -0.41033,-4.21509 -0.34573,-3.98472 -0.23443,-4.16903 2.80028,-4.63696 3.57341,-0.551 7.07218,1.77097 6.17834,4.10027 -0.30388,0.79192 -0.0396,2.05781 0.58718,2.8131 0.62684,0.75529 0.7471,1.39782 0.26725,1.42785 -6.75711,0.42284 -9.38102,0.56509 -9.42272,0.51083 z M 363.5,346 c -0.99549,-1.1 -2.64404,-2 -3.66346,-2 -1.60316,0 -1.6848,0.27011 -0.60447,2 0.68877,1.10289 2.33203,2 3.66346,2 2.3511,0 2.36696,-0.0525 0.60447,-2 z m -6.60145,-14.14301 c -0.0558,-0.19635 -0.25525,-2.04449 -0.44322,-4.10699 -0.33974,-3.72776 -0.31952,-3.75 3.41032,-3.75 2.06365,0 4.6256,0.69551 5.69322,1.54557 1.80747,1.43914 1.64848,1.50195 -2.30887,0.9121 -3.5795,-0.53353 -4.25,-0.36569 -4.25,1.06384 0,1.35094 0.71424,1.61392 3.5,1.2887 2.41369,-0.28179 3.5,-0.005 3.5,0.89059 0,0.7688 -1.19137,1.2992 -2.91821,1.2992 -1.60502,0 -3.63002,0.27314 -4.5,0.60699 -0.86999,0.33384 -1.62744,0.44634 -1.68324,0.25 z m -2.09019,-16.34116 C 355.23392,311.87058 357,311.58868 357,315.16601 c 0,1.45664 0.45673,1.87271 1.58179,1.44098 0.86998,-0.33385 4.20285,-0.60699 7.40638,-0.60699 5.33226,0 5.78038,-0.16905 5.30158,-2 -0.43171,-1.65085 -1.41917,-2.02065 -5.65638,-2.11831 -10.21352,-0.23541 -11.46208,-1.62497 -1.51339,-1.68431 l 9.61998,-0.0574 -0.10036,3.8276 -0.10037,3.8276 -6.01961,-0.14178 c -3.31079,-0.078 -7.61717,0.19662 -9.56973,0.61021 l -3.55011,0.752 0.40858,-3.4998 z M 362,298.0637 c -9.37818,-0.62194 -7.29193,-1.81213 2.90388,-1.65666 3.35284,0.0511 6.09608,-0.24454 6.0961,-0.65704 1e-5,-0.4125 -3.37498,-0.75 -7.49998,-0.75 -4.22692,0 -7.5,-0.42732 -7.5,-0.97916 0,-0.57828 3.37769,-0.88534 8.25,-0.75 8.1921,0.22755 8.25222,0.24846 8.56642,2.97916 0.2108,1.83205 -0.123,2.68781 -1,2.5637 -0.72403,-0.10247 -5.14142,-0.43997 -9.81642,-0.75 z m -7.99754,-16.23191 c -10e-4,-0.36752 -0.30376,-1.49252 -0.67203,-2.5 -0.64536,-1.76558 -0.5954,-1.76679 1.3822,-0.0334 1.63623,1.43415 3.44266,1.73794 8.91956,1.5 9.25267,-0.40199 8.02659,-2.33417 -1.38219,-2.1782 -5.46586,0.0906 -7.25,-0.21079 -7.25,-1.22476 0,-1.02738 1.92084,-1.31321 8.13536,-1.21057 6.99386,0.11551 8.20288,0.39259 8.61663,1.97476 0.2647,1.01221 1.14129,1.84039 1.94797,1.84039 0.80669,0 1.28719,0.53854 1.06779,1.19676 -0.42653,1.27959 -20.76062,1.90143 -20.76529,0.63503 z m -0.49854,-16.81396 c -0.35866,-1.63297 -0.40389,-3.37066 -0.10052,-3.86153 0.30338,-0.49088 4.53893,-0.97318 9.41233,-1.07179 9.33697,-0.18891 11.73778,0.80284 11.01602,4.55062 -0.28509,1.48036 -1.48392,1.71437 -8.27341,1.61499 -4.36701,-0.0639 -8.71904,0.3007 -9.67117,0.81026 -1.41895,0.7594 -1.84875,0.39105 -2.38325,-2.04255 z M 370.5,263.42403 c 0,-1.25354 -7.09167,-1.74777 -11.456,-0.79839 l -3.544,0.77094 4.5,0.6025 c 6.00873,0.80452 10.5,0.55854 10.5,-0.57505 z m -16.01931,-18.48487 c -0.36482,-1.14943 -0.41336,-2.33982 -0.10788,-2.64531 0.30549,-0.30548 5.07158,-0.646 10.59131,-0.7567 9.88904,-0.19833 10.03588,-0.16732 10.03588,2.11919 0,2.25991 -0.23394,2.31865 -8.96362,2.25056 -4.92999,-0.0385 -9.39759,0.1983 -9.928,0.52612 -0.53041,0.32781 -1.26287,-0.34443 -1.62769,-1.49386 z M 369.5,244 c 1.46179,-0.62815 0.65447,-0.85152 -3,-0.83003 -3.94384,0.0232 -4.47192,0.19851 -2.5,0.83003 3.18329,1.01947 3.12757,1.01947 5.5,0 z M 351,227 c 0,-0.55 0.7875,-1.03553 1.75,-1.07895 1.04544,-0.0472 1.24674,-0.28201 0.5,-0.58333 C 352.5625,225.06031 352,223.74583 352,222.41667 352,220.0026 352.01227,220 363.3865,220 l 11.3865,0 0.49443,3.25 c 0.27194,1.7875 0.29645,3.5875 0.0545,4 C 374.64088,228.411 351,228.168 351,227 z m 21,-2.5 c -0.275,-0.55 -2.975,-1.01728 -6,-1.03839 -6.66232,-0.0465 -9.1674,0.45851 -8.40372,1.69417 0.78954,1.2775 15.04582,0.62843 14.40372,-0.65578 z m -44.02467,37.29649 c -0.26529,-2.58693 -0.11257,-4.33373 0.33938,-3.88178 0.45195,0.45195 0.66901,2.56853 0.48235,4.70351 l -0.33938,3.88178 -0.48235,-4.70351 z M 327.32814,248.5 c -0.004,-3.85 0.17268,-5.54754 0.39359,-3.7723 0.22091,1.77523 0.22454,4.92523 0.008,7 -0.21648,2.07476 -0.39722,0.6223 -0.40166,-3.2277 z m -1.82192,-25.22306 c -0.40425,-7.54768 -1.3138,-15.95439 -2.02122,-18.68156 -0.77388,-2.9834 -0.95273,-5.78242 -0.449,-7.02694 0.46048,-1.13764 0.92499,-1.61844 1.03225,-1.06844 0.10727,0.55 0.53977,-0.575 0.96112,-2.5 0.56897,-2.59944 0.74604,-1.44157 0.68818,4.5 -0.0429,4.4 0.28575,14.8625 0.73022,23.25 0.44448,8.3875 0.57983,15.25 0.30079,15.25 -0.27904,0 -0.83809,-6.17538 -1.24234,-13.72306 z m 33.46625,-81.38506 C 358.95733,141.12635 357.34827,139.375 355.39679,138 349.42866,133.7949 342.895,128.17943 334,119.61011 c -4.675,-4.50382 -9.71291,-9.1165 -11.19536,-10.25038 -1.95384,-1.49444 -2.54075,-2.65284 -2.13337,-4.21067 0.56862,-2.1744 3.41249,-2.60789 14.82873,-2.26037 1.65,0.0502 10.425,-0.55158 19.5,-1.33735 12.25019,-1.0607 27.31769,-1.31751 58.5,-0.99706 54.97955,0.56502 141.12594,0.57322 150,0.0143 3.85,-0.24249 13.53269,-0.740116 21.51709,-1.105835 l 14.51709,-0.664944 5.08267,4.851109 c 13.63065,13.00967 20.1851,19.10072 23.38315,21.73 8.70234,7.15462 11.0961,9.74297 10.56323,11.42189 -0.49674,1.56509 -3.70447,1.73924 -37.80301,2.05237 -52.93742,0.48614 -69.48067,0.73063 -101.76022,1.50392 -15.675,0.3755 -47.4,0.89231 -70.5,1.14846 -23.1,0.25615 -48.1875,0.76104 -55.75,1.12197 -11.38853,0.54355 -13.75473,0.41721 -13.77753,-0.73562 z M 421.5,139.44076 c 19.37024,-0.42145 27.10752,-0.91996 27.38049,-1.76411 1.69647,-5.24631 7.35425,-6.1951 9.91602,-1.66288 L 460.5,139.02755 479,138.5544 c 10.175,-0.26023 30.65,-0.74915 45.5,-1.08648 14.85,-0.33734 33.3,-0.77153 41,-0.96486 7.7,-0.19333 19.35724,-0.38561 25.90499,-0.42729 11.71045,-0.0745 11.87634,-0.10742 10.15204,-2.01276 -2.29626,-2.53733 -1.06033,-4.82847 1.40239,-2.59973 1.38748,1.25565 2.33845,1.37397 4.48464,0.55799 2.7072,-1.02928 4.55594,-0.6555 4.55594,0.92112 0,0.45339 -0.99285,1.08398 -2.20633,1.40132 -3.30865,0.86523 -1.92346,1.4506 4.20633,1.77757 l 5.5,0.29337 0.5,-3.45589 c 0.48209,-3.33212 0.63831,-3.44389 4.36209,-3.12105 2.12415,0.18416 3.69915,-0.0415 3.5,-0.50144 -0.95701,-2.21029 -13.70329,-13.31266 -14.05894,-12.24573 -0.30397,0.91191 -1.1289,0.9431 -3.35315,0.12676 -2.84411,-1.04383 -2.86924,-1.10725 -0.7,-1.76663 1.2375,-0.37616 2.25,-1.01567 2.25,-1.42112 0,-0.72103 -9.43731,-9.2028 -13.22011,-11.88155 -2.53871,-1.79776 -3.53483,-0.63968 -1.44043,1.67461 1.45079,1.6031 2.33629,5.17739 1.28266,5.17739 -0.20783,0 -2.06705,-0.70578 -4.13159,-1.5684 -2.6627,-1.11255 -4.06425,-1.25788 -4.82213,-0.5 -3.00143,3.00143 -3.61899,-0.29084 -0.6478,-3.45353 l 2.02061,-2.15084 -9.77061,0.37801 c -5.37383,0.20791 -16.0706,0.74124 -23.7706,1.18519 -7.7,0.44395 -16.7,0.7124 -20,0.59655 -23.52155,-0.82573 -179.17461,-0.49298 -185.5,0.39655 -4.125,0.5801 -11.86094,1.06861 -17.19098,1.08559 -5.33004,0.017 -9.91996,0.40137 -10.19983,0.8542 -1.1006,1.78082 22.36816,23.56033 34.39081,31.91541 l 4.5,3.12725 15.5,-0.41889 c 8.525,-0.23038 27.65,-0.68323 42.5,-1.00633 z m -42.77776,-2.45219 c -0.94723,-1.10629 -1.72224,-2.45629 -1.72224,-3 0,-1.35521 1.72223,-1.24703 2.59363,0.16292 0.4987,0.80691 1.08612,0.63938 1.96301,-0.55984 1.96279,-2.68428 2.76834,-0.0173 0.86991,2.8801 -0.91111,1.39054 -1.72981,2.52825 -1.81932,2.52825 -0.0895,0 -0.93776,-0.90514 -1.88499,-2.01143 z m 32.30956,-1.19326 c 0.0416,-1.6949 2.41669,-4.79531 3.67346,-4.79531 1.13599,0 4.82066,3.83203 4.20528,4.37347 -0.2258,0.19867 -2.09804,0.6663 -4.16054,1.03918 -2.75865,0.49875 -3.74159,0.33555 -3.7182,-0.61734 z m 75.52089,-1.81131 c -2.44071,-1.56957 -2.66123,-2.00512 -1.28298,-2.534 2.2945,-0.88049 7.23029,0.90782 7.23029,2.61964 0,2.09155 -2.6204,2.05382 -5.94731,-0.0856 z m -25.15312,-1.38513 c -0.75847,-1.97654 2.17632,-5.6091 4.50542,-5.57663 0.87725,0.0122 2.72001,0.88793 4.09501,1.946 1.86275,1.43341 2.21143,2.21337 1.3679,3.05987 -0.84504,0.84802 -1.65495,0.80957 -3.19406,-0.15162 -1.75312,-1.09484 -2.36678,-1.01186 -4.09705,0.55402 -1.872,1.69413 -2.08655,1.70762 -2.67722,0.16836 z M 445.75,131.7996 c -1.5125,-0.53145 -2.75,-1.60377 -2.75,-2.38293 0,-1.60574 2.5663,-1.92743 3.48734,-0.43715 0.38253,0.61894 1.30782,0.54084 2.51354,-0.21214 2.69748,-1.6846 3.77652,-0.0825 1.44356,2.14333 -1.55576,1.48433 -2.49415,1.66201 -4.69444,0.88889 z m 63.87141,-0.66544 C 507.59074,128.89029 507.53523,127 509.5,127 c 0.825,0 1.5,0.37206 1.5,0.82681 0,0.45474 1.35,0.62867 3,0.3865 3.84606,-0.56448 3.91485,1.26224 0.12141,3.22391 -2.62066,1.35519 -3.02387,1.32804 -4.5,-0.30306 z m -151.23086,-0.55878 c -0.66783,-1.74035 2.1113,-5.58813 4.01444,-5.5581 1.06553,0.0168 5.59501,4.27237 5.59501,5.25665 0,0.27062 -1.4625,0.39594 -3.25,0.27848 -1.7875,-0.11745 -3.80718,0.21089 -4.48817,0.72965 -0.84483,0.64356 -1.43929,0.41907 -1.87128,-0.70668 z m 142.04314,-0.54169 c -0.98879,-0.98879 -5.38803,-1.40778 -8.89538,-0.84722 -3.77748,0.60374 -2.82432,-2.75375 1.31117,-4.6186 5.77669,-2.60492 7.29888,-1.81516 10.95177,5.68213 0.53376,1.09552 -2.23348,0.91777 -3.36756,-0.21631 z m 21.94315,-0.23297 c -0.66714,-1.07945 4.33668,-5.70343 6.2383,-5.76476 1.75612,-0.0566 6.38486,3.95717 6.38486,5.53662 0,1.7517 -1.39583,1.82168 -3.9923,0.20015 -1.50195,-0.93798 -2.6763,-0.95884 -4.98211,-0.0885 -2.03162,0.76685 -3.22329,0.80489 -3.64875,0.11648 z m 21.28983,0.53261 c -1.55325,-1.55325 -0.46081,-3.97256 2.25705,-4.99843 2.62951,-0.99254 3.20077,-0.8144 5.67709,1.77033 3.23638,3.37804 2.52812,4.75937 -1.63465,3.1881 -1.73385,-0.65446 -3.19059,-0.73921 -3.52085,-0.20483 -0.66413,1.07458 -1.84486,1.17862 -2.77864,0.24483 z m 31.9638,-0.48032 c -1.02824,-0.59739 -3.84074,-0.86399 -6.25,-0.59243 -5.33944,0.60184 -5.84955,-1.07831 -1.309,-4.31147 3.03168,-2.15874 3.11588,-2.16316 6.5,-0.34069 2.35731,1.2695 3.42853,2.55644 3.42853,4.11898 0,2.60341 0.0958,2.55791 -2.36953,1.12561 z M 391,126.61406 c 0,-0.82536 0.94319,-2.16129 2.09597,-2.96873 1.77606,-1.244 2.57738,-1.26624 5.25,-0.14569 5.23133,2.19333 4.48296,3.96646 -1.81995,4.31206 C 392.14499,128.05193 391,127.80377 391,126.61406 z m 30.40162,-0.77325 c -0.75278,-1.21802 1.27179,-3.60238 3.71804,-4.37879 1.77366,-0.56294 6.81395,2.86865 6.86306,4.6726 0.0275,1.01092 -9.94589,0.73399 -10.5811,-0.29381 z m 183.0769,0.12443 c -0.51925,-0.84015 -2.40767,-1.01387 -6.18961,-0.56938 -4.70095,0.55251 -5.39788,0.41735 -5.11565,-0.99205 0.4228,-2.11139 8.03297,-5.28512 8.59927,-3.58623 0.21677,0.65033 1.27076,1.18242 2.34219,1.18242 2.25874,0 3.62388,2.6614 2.13093,4.15435 -0.69322,0.69322 -1.25926,0.63264 -1.76713,-0.18911 z M 451.25,121.2766 c -3.47014,-0.43064 -3.99554,-1.71069 -1.85795,-4.5266 2.43964,-3.21382 5.55412,-1.88907 7.05295,3 0.48179,1.57157 0.29255,2.20174 -0.62761,2.08996 -0.72457,-0.088 -2.77989,-0.34153 -4.56739,-0.56336 z M 351,119.5 c 0,-0.825 0.45,-1.5 1,-1.5 0.55,0 1,0.675 1,1.5 0,0.825 -0.45,1.5 -1,1.5 -0.55,0 -1,-0.675 -1,-1.5 z m 189.50779,0.51261 c -1.85024,-2.99375 5.28872,-5.03118 9.03285,-2.57794 1.35265,0.88629 2.45936,1.95443 2.45936,2.37364 0,1.16613 -10.77933,1.35776 -11.49221,0.2043 z m 37.0992,-0.5944 c -1.1693,-3.04714 -0.72705,-4.58478 1.03504,-3.59866 0.90312,0.50541 2.47812,0.70028 3.5,0.43306 2.36983,-0.61973 2.44075,1.58451 0.10797,3.35534 -2.35061,1.78437 -3.90993,1.72065 -4.64301,-0.18974 z m -196.16621,-0.51402 c -0.43242,-0.69967 -2.288,-0.85427 -5.13292,-0.42765 -4.73217,0.70964 -4.77149,0.5959 -1.48654,-4.30063 1.38699,-2.06745 8.17868,1.06575 8.17868,3.77306 0,2.27986 -0.53716,2.60894 -1.55922,0.95522 z m 32.11305,-0.84471 c -1.84443,-2.03807 -1.25211,-4.62407 0.76527,-3.3411 0.64949,0.41304 1.5934,0.75789 2.09757,0.76631 1.55513,0.026 1.72496,2.15288 0.26843,3.36169 -1.07049,0.88843 -1.77545,0.71127 -3.13127,-0.7869 z m 17.84773,0.78076 c -0.75258,-1.21683 0.74485,-3.70615 3.19521,-5.31169 2.33841,-1.53218 2.47276,-1.48789 3.60892,1.19001 0.64905,1.52979 1.20579,3.2264 1.2372,3.77025 0.0628,1.087 -7.38509,1.41249 -8.04133,0.35143 z m 35.32301,0.551 c -1.56273,-1.56273 -0.57233,-3.36965 2.69743,-4.92125 2.65253,-1.25871 3.88926,-1.37378 5.5,-0.51173 2.91874,1.56206 2.58436,3.71899 -0.672,4.33475 -1.5125,0.28601 -3.66144,0.81314 -4.77543,1.1714 -1.11398,0.35827 -2.35148,0.32534 -2.75,-0.0732 z m 37.31061,-2.3255 C 503.46583,116.0019 503,114.4269 503,113.56574 c 0,-1.75185 1.55014,-2.10264 2.5,-0.56574 0.33992,0.55 1.94148,1 3.55902,1 3.76491,0 3.7608,1.52469 -0.009,3.47432 -3.71864,1.92298 -3.76885,1.91889 -5.01448,-0.40858 z m 92.71482,-0.133 c -3.41117,-2.01185 -1.94844,-3.44185 3.44071,-3.36372 4.65006,0.0674 7.25681,1.45528 5.11208,2.72174 -2.0379,1.20338 -6.97285,1.57379 -8.55279,0.64198 z M 487,114.41029 c 0,-0.87434 0.99579,-2.39605 2.21286,-3.38157 2.60373,-2.10837 6.34724,-0.99008 7.35922,2.1984 0.80179,2.5262 0.0365,3.16896 -2.29032,1.92368 -1.16461,-0.62329 -2.44433,-0.66024 -3.33564,-0.0963 C 488.73094,116.45593 487,116.17337 487,114.41029 z m -139.41229,-1.26838 c -0.79098,-1.27983 3.25423,-8.15675 4.76107,-8.09388 2.48511,0.10369 8.15122,3.55245 8.15122,4.96136 0,1.14362 -1.00535,1.41083 -4.3188,1.14789 -2.99824,-0.23793 -4.87896,0.16421 -6.15073,1.31514 -1.09629,0.99213 -2.07721,1.26097 -2.44276,0.66949 z M 396,112.43856 c 0,-1.83283 4.06271,-5.51476 5.30961,-4.81197 1.78791,1.00773 5.69039,4.64091 5.69039,5.29772 0,0.31663 -2.475,0.57569 -5.5,0.57569 -3.21224,0 -5.5,-0.44151 -5.5,-1.06144 z m 117.55322,0.22401 c -1.68808,-1.23435 -1.47252,-1.53668 2.79692,-3.92292 l 4.62596,-2.5855 2.01195,2.55779 c 3.01464,3.83249 2.38134,7.25745 -0.76092,4.11519 -0.89717,-0.89717 -1.77799,-0.89717 -3.74706,0 -3.14078,1.43103 -2.7258,1.44489 -4.92685,-0.16456 z m 21.13368,-0.45604 C 533.75911,111.18132 533,109.81545 533,109.17126 c 0,-1.56784 2.71326,-1.50282 3.28601,0.0787 0.36017,0.99454 0.89644,0.98761 2.62401,-0.0339 1.19424,-0.70613 2.60303,-1.01707 3.13066,-0.69098 1.56532,0.96742 1.09328,3.20308 -0.79068,3.74478 -0.9625,0.27674 -2.45339,0.7951 -3.3131,1.15189 -0.92315,0.38314 -2.25372,-0.11441 -3.25,-1.21528 z m 21.5631,1.05206 c -4.47553,-0.39341 -5.48668,-1.98734 -2.71827,-4.28493 2.17136,-1.80206 9.72897,0.43925 9.28029,2.7522 -0.36719,1.89278 -0.94104,2.02682 -6.56202,1.53273 z m -98.79044,-1.67779 c -1.4681,-1.08346 -1.67437,-1.73569 -0.82243,-2.60061 0.84608,-0.85897 1.31679,-0.86377 1.83903,-0.0188 0.51982,0.84109 1.07417,0.82673 2.13703,-0.0554 1.87228,-1.55386 3.11138,-0.27829 1.78,1.83238 -1.45369,2.30458 -2.67074,2.51237 -4.93363,0.84236 z m 118.54875,0.44455 c -0.82043,-0.51817 -2.55248,-0.67589 -3.84899,-0.35049 -3.48912,0.87571 -2.46724,-2.76068 1.28057,-4.55696 2.69983,-1.294 3.05262,-1.2279 4.77064,0.89377 2.71082,3.34771 1.17506,6.14673 -2.20222,4.01368 z M 425.75,110.93334 c -2.78624,-1.64423 -2.04154,-2.74365 1.78497,-2.63518 2.61213,0.074 3.45757,0.50205 3.23851,1.63954 -0.36685,1.9049 -2.69931,2.36719 -5.02348,0.99564 z m -41,-0.62267 C 382.92288,109.8332 382.25596,106 384,106 c 0.55,0 1,0.50246 1,1.11658 0,0.6546 1.04422,0.91696 2.52387,0.63411 3.17183,-0.60634 4.17809,0.80326 1.56988,2.19914 -1.07925,0.57759 -2.10435,0.99797 -2.27801,0.93417 -0.17366,-0.0638 -1.10324,-0.3218 -2.06574,-0.57333 z m 70.90362,27.5553 c -1.32326,-0.76916 -2.15905,-0.76054 -2.95,0.0304 -0.80483,0.80483 -0.30495,1.09539 1.84638,1.07321 2.58611,-0.0267 2.72225,-0.16279 1.10362,-1.10362 z M 626.5,135 c -0.33992,-0.55 -1.26648,-1 -2.05902,-1 -0.79254,0 -1.44098,0.45 -1.44098,1 0,0.55 0.92656,1 2.05902,1 1.13246,0 1.7809,-0.45 1.44098,-1 z m 6.91016,0.14536 c 0.29051,-0.47005 -0.58293,-1.89849 -1.94098,-3.17431 C 629.51499,130.13518 629,129.98352 629,131.2439 c 0,0.87589 -0.27314,2.30433 -0.60699,3.17431 -0.45562,1.18733 0.0284,1.58179 1.94098,1.58179 1.40139,0 2.78566,-0.38459 3.07617,-0.85464 z m -320.84995,331.945 C 312.1674,460.71566 311.43157,448.975 310.92504,441 c -0.50653,-7.975 -1.34291,-21.475 -1.85862,-30 -0.51572,-8.525 -1.38998,-18.425 -1.94281,-22 -0.55283,-3.575 -1.27629,-13.7 -1.60768,-22.5 -0.33138,-8.8 -0.77574,-17.575 -0.98745,-19.5 -0.21172,-1.925 -0.6701,-10.475 -1.01864,-19 -0.34853,-8.525 -0.82645,-16.4 -1.06205,-17.5 -0.23559,-1.1 -1.11028,-16.4 -1.94376,-34 -0.83348,-17.6 -1.79855,-34.25 -2.1446,-37 -0.34605,-2.75 -0.72631,-18.05 -0.84502,-34 -0.24297,-32.64341 -0.68751,-35.29422 -7.65639,-45.65515 -4.71401,-7.00852 -16.22921,-17.4864 -27.67565,-25.18255 -4.7753,-3.21074 -9.61137,-6.69824 -10.74682,-7.75 C 250.3001,125.86053 248.77471,125 248.04579,125 c -0.72892,0 -1.82491,-0.63906 -2.43555,-1.42012 C 243.50581,120.88807 230.74284,111 229.37285,111 228.61778,111 228,110.62203 228,110.16006 c 0,-1.23469 -7.59241,-3.53 -8.93394,-2.70089 -1.97238,1.219 -6.19273,8.59589 -8.11623,14.18665 -1.08525,3.15433 -2.30535,11.20124 -2.96646,19.56461 -0.61765,7.81357 -1.33609,14.55127 -1.59653,14.97267 -0.26044,0.4214 -0.65508,5.84009 -0.87699,12.04154 -0.2219,6.20145 -1.33369,31.30036 -2.47064,55.77536 -1.21275,26.10675 -1.98264,55.86661 -1.86265,72 0.11249,15.125 0.23128,31.775 0.26398,37 0.0327,5.225 -0.14471,15.35 -0.39425,22.5 -0.24953,7.15 -0.0805,16.80854 0.37569,21.46342 l 0.82939,8.46342 12.12432,11.63487 c 12.69443,12.18198 20.71517,19.25123 30.83721,27.17905 3.32909,2.60742 10.41665,8.90742 15.75013,14 17.00783,16.23963 22.71972,21.23756 34.62896,30.30047 2.92074,2.22268 6.60443,5.19419 8.18599,6.60337 3.96857,3.53601 6.34654,4.74485 8.04883,4.09162 1.20646,-0.46296 1.32864,-2.48631 0.7334,-12.14586 z"
     id="path2987"
     style="fill:#262626" />
</svg>
