<?xml version="1.0" encoding="utf-8"?>
<!-- Generated by IcoMoon.io -->
<!DOCTYPE svg PUBLIC "-//W3C//DTD SVG 1.1//EN" "http://www.w3.org/Graphics/SVG/1.1/DTD/svg11.dtd">
<svg version="1.1" xmlns="http://www.w3.org/2000/svg" xmlns:xlink="http://www.w3.org/1999/xlink" width="26" height="28" viewBox="0 0 26 28">
<path d="M9.141 15.359l-7.281 7.281c-0.203 0.203-0.516 0.203-0.719 0l-0.781-0.781c-0.203-0.203-0.203-0.516 0-0.719l6.141-6.141-6.141-6.141c-0.203-0.203-0.203-0.516 0-0.719l0.781-0.781c0.203-0.203 0.516-0.203 0.719 0l7.281 7.281c0.203 0.203 0.203 0.516 0 0.719zM26 22.5v1c0 0.281-0.219 0.5-0.5 0.5h-15c-0.281 0-0.5-0.219-0.5-0.5v-1c0-0.281 0.219-0.5 0.5-0.5h15c0.281 0 0.5 0.219 0.5 0.5z"></path>
</svg>
