<?xml version="1.0" standalone="no"?>
<!DOCTYPE svg PUBLIC "-//W3C//DTD SVG 1.1//EN" "http://www.w3.org/Graphics/SVG/1.1/DTD/svg11.dtd" >
<svg>
<metadata>
Created by FontForge 20120731 at Thu Nov 17 22:11:18 2016
 By Apache
Phitradesign 2016 (C) ALL RIGHTS RESERVED
</metadata>
<defs>
<font id="Sequel-Regular" horiz-adv-x="1500" >
  <font-face 
    font-family="Sequel"
    font-weight="400"
    font-stretch="normal"
    units-per-em="4000"
    panose-1="0 0 5 0 0 0 0 0 0 0"
    ascent="3200"
    descent="-800"
    x-height="3500"
    cap-height="3495"
    bbox="-690 -895 4349 4460"
    underline-thickness="50"
    underline-position="-50"
    unicode-range="U+0020-20AC"
  />
<missing-glyph horiz-adv-x="2500" 
 />
    <glyph glyph-name="o_f.liga" unicode="of" horiz-adv-x="3250" 
d="M485 1195q0 10 6 60l4 30l155 875q22 140 110.5 257t217.5 185t267 68h90q121 0 218 -55t152 -150.5t55 -214.5q0 -65 -5 -85l-155 -875q-27 -141 -116.5 -260t-218 -189.5t-265.5 -70.5h-85q-121 0 -219 56t-154.5 153.5t-56.5 215.5zM189 220q0 10 1 15l25 215
q4 35 21.5 57.5t43.5 22.5h2330q23 0 37 -18.5t14 -48.5q0 -8 -1 -13l-30 -215q-4 -29 -24.5 -52t-40.5 -23h-2330q-22 0 -34 17t-12 43zM1015 1085q56 0 109 29.5t89.5 79t46.5 106.5l155 870q3 18 3 35q0 48 -23 87t-63.5 61t-91.5 22h-10q-59 -2 -111.5 -29.5t-88 -73
t-45.5 -102.5l-155 -870q-3 -18 -3 -35q0 -50 23 -91t64 -65t91 -24h10zM1685 850v15l300 1710q4 30 29.5 52.5t55.5 22.5h170q26 0 43 -19t17 -46v-10l-300 -1710q-12 -28 -34.5 -46.5t-50.5 -18.5h-170q-25 0 -42.5 15.5t-17.5 34.5zM1825 1650v15l30 185q12 28 33.5 46.5
t46.5 18.5h645q19 0 37 -16t18 -34v-15l-30 -185q-12 -28 -33.5 -46.5t-46.5 -18.5h-645q-55 0 -55 50zM1950 2380v10l35 185q4 30 29.5 52.5t55.5 22.5h765q26 0 43 -19t17 -46v-10l-35 -185q-4 -26 -29 -43t-56 -17h-760q-26 0 -45.5 15.5t-19.5 34.5zM579 3013q0 8 1 12
l30 215q4 35 21.5 57.5t43.5 22.5h2330q22 0 34 -17.5t12 -46.5q0 -10 -1 -16l-25 -215q-4 -29 -24.5 -52t-40.5 -23h-2330q-23 0 -37 18t-14 45z" />
    <glyph glyph-name="t_h_e.liga" unicode="the" horiz-adv-x="4650" 
d="M1535 855l300 1700q4 30 30 50t60 20h190q28 0 44.5 -16.5t16.5 -43.5l-1 -10l-115 -645h495l120 645q4 30 28 50t57 20h190q30 0 50 -20t20 -50l-310 -1700q-4 -29 -28.5 -49.5t-51.5 -20.5h-195q-24 0 -40 17t-16 43l1 10l120 735h-495l-135 -735q-4 -29 -28.5 -49.5
t-51.5 -20.5h-195q-27 0 -45.5 20.5t-14.5 49.5zM397 219q0 9 3 16l25 215q12 31 39.5 53t60.5 22h3420q36 0 56 -18.5t20 -46.5l-1 -10l-30 -215q-4 -27 -33 -51t-62 -24h-3425q-28 0 -50.5 18t-22.5 41zM779 843q0 8 1 12l260 1485h-215q-34 0 -56.5 17t-18.5 43l40 170
q0 12 13 26.5t33 24t39 9.5h770q30 0 50 -17t20 -43l-35 -170q-4 -26 -29 -43t-56 -17h-215l-265 -1485q-4 -30 -27.5 -50t-57.5 -20h-195q-26 0 -41 16t-15 42zM2915 860l30 180l115 615l35 180l90 545l35 180q4 27 29.5 48.5t55.5 21.5h760q26 0 45 -22t15 -48l-30 -180
q-4 -26 -28.5 -45.5t-51.5 -19.5h-525l-70 -405h395q24 0 39 -13.5t15 -36.5q0 -13 -4 -25l-25 -180q-4 -29 -28.5 -49.5t-51.5 -20.5h-395l-85 -475h515q27 0 45.5 -15.5t18.5 -36.5q0 -10 -4 -18l-30 -180q-12 -31 -34 -50.5t-51 -19.5h-765q-27 0 -45.5 20.5t-14.5 49.5z
M715 2995l35 215q4 31 34 53t71 22h3420q33 0 53.5 -15.5t20.5 -39.5q0 -11 -4 -20l-25 -215q-4 -33 -35 -59t-65 -26h-3425q-40 0 -62 25t-18 60z" />
    <glyph glyph-name=".notdef" horiz-adv-x="2500" 
 />
    <glyph glyph-name="space" unicode=" " horiz-adv-x="750" 
 />
    <glyph glyph-name="A" unicode="A" horiz-adv-x="2420" 
d="M54 102q0 15 2 23l660 3240q11 56 63.5 93t116.5 37h630q68 0 121 -37t64 -93l655 -3240q2 -8 2 -24q0 -47 -35 -76.5t-92 -29.5h-425q-115 0 -130 110l-150 815h-645l-150 -815q-12 -59 -40 -84.5t-90 -25.5h-425q-57 0 -94.5 30t-37.5 77zM1451 1505l-215 1255
q-4 13 -9.5 19t-15.5 6t-15.5 -6t-9.5 -19l-210 -1255h475z" />
    <glyph glyph-name="B" unicode="B" horiz-adv-x="2400" 
d="M250 160v3125q0 59 30 108.5t81.5 78t113.5 28.5h1020q161 0 301.5 -79t228.5 -226q85 -155 85 -350l5 -380q0 -119 -32 -249.5t-114.5 -241t-223.5 -149.5q225 -41 344.5 -225.5t130.5 -489.5l5 -340q2 -196 -56.5 -341t-153 -234t-205.5 -130q-157 -60 -250 -60h-1150
q-42 0 -79 21t-59 56.5t-22 77.5zM1300 465q154 26 229 125t71 275l5 255q2 153 -42 243.5t-128 128.5t-210 38h-300q-38 0 -56.5 -28t-18.5 -67l5 -905q0 -34 19.5 -49.5t60.5 -15.5h365zM1230 2070q73 0 134.5 46t97 130.5t33.5 193.5l-5 240q0 180 -78 270t-232 90h-275
q-30 0 -52.5 -28t-22.5 -62l10 -840q0 -45 60 -45z" />
    <glyph glyph-name="C" unicode="C" horiz-adv-x="2435" 
d="M375 455q-125 221 -125 490v1655q0 171 55.5 328t159 284.5t245.5 212.5q206 125 460 125h160q168 0 321.5 -57t277.5 -162.5t206 -250.5q120 -217 120 -480v-5q2 -39 -17 -75t-52.5 -58t-70.5 -22h-340q-39 0 -73.5 22t-55.5 58t-21 75v15q0 111 -49 198.5t-135.5 137
t-195.5 49.5h-20q-102 0 -191.5 -52t-142.5 -141.5t-51 -196.5v-1635q0 -107 54 -202t143.5 -151.5t187.5 -56.5h20q105 0 192.5 55.5t137.5 149.5t50 205q0 41 20.5 75.5t55 54.5t74.5 20h340q40 0 73 -20t52.5 -54t19.5 -76v-25q0 -176 -55 -336.5t-157.5 -291
t-242.5 -217.5q-217 -135 -470 -135h-160q-168 0 -321 59.5t-276 170t-203 260.5z" />
    <glyph glyph-name="D" unicode="D" horiz-adv-x="2515" 
d="M250 135v3195q0 42 21 79t55.5 59t73.5 22h1005q168 0 321.5 -55t277.5 -157.5t206 -242.5q120 -217 120 -470l5 -1600q0 -169 -54 -328t-154 -291t-237 -221q-210 -135 -460 -135h-560q-3 -3 -8 -4t-12 -1h-465q-37 0 -68 20t-49 54t-18 76zM1280 590q110 0 207 58
t155 155t58 207v1525q0 101 -51 187t-137 137t-187 51h-420q-30 0 -52.5 -21.5t-22.5 -48.5v-2210q0 -19 10.5 -29.5t29.5 -10.5h410z" />
    <glyph glyph-name="E" unicode="E" horiz-adv-x="2170" 
d="M255 145v3230q0 57 37.5 93.5t97.5 36.5h1475q57 0 96 -37t39 -93v-345q0 -37 -18 -68t-49 -49t-68 -18h-1010v-765h765q56 0 90.5 -34.5t34.5 -90.5v-350q0 -56 -34.5 -90.5t-90.5 -34.5h-765v-910h1010q57 0 96 -37t39 -93v-345q0 -37 -18 -68t-49 -49t-68 -18h-1475
q-59 0 -97 39t-38 96z" />
    <glyph glyph-name="F" unicode="F" horiz-adv-x="2090" 
d="M250 140v3225q0 32 18.5 59.5t50.5 44t71 16.5h1480q41 0 74.5 -16.5t52 -44t18.5 -59.5v-355q0 -32 -19.5 -62.5t-53 -49t-72.5 -18.5h-1015v-765h775q60 0 95 -34t35 -91v-350q0 -50 -35.5 -82.5t-94.5 -32.5h-775v-1385q0 -32 -18 -61t-49 -46.5t-68 -17.5h-330
q-61 0 -100.5 34.5t-39.5 90.5z" />
    <glyph glyph-name="G" unicode="G" horiz-adv-x="2500" 
d="M360 445q-130 229 -130 495v1660q0 176 57 334t164 284.5t254 211.5q213 125 480 125h160q159 3 310 -41t280 -132.5t220 -216.5q138 -199 145 -475q0 -35 -25 -60t-65 -25h-425q-47 0 -79 22.5t-36 62.5q-17 122 -71.5 189t-137.5 91.5t-201 24.5h-20
q-109 0 -200.5 -50.5t-145.5 -138.5t-54 -196v-1645q0 -108 55.5 -202.5t148.5 -151t201 -56.5h15q105 0 193.5 56.5t140 150.5t51.5 203v235h-260q-41 0 -73 32t-32 73v370q0 32 17.5 61t46.5 46.5t61 17.5h780q32 0 59.5 -17.5t44 -46.5t16.5 -61v-730q0 -178 -58 -341
t-165 -296t-252 -223q-217 -135 -480 -135h-160q-171 0 -328 60t-286 171.5t-216 263.5z" />
    <glyph glyph-name="H" unicode="H" horiz-adv-x="2645" 
d="M250 135v3230q0 32 19 62t49 49t62 19h370q57 0 96 -37t39 -93v-1235l945 5v1230q0 32 19.5 62t52 49t68.5 19h360q36 0 68.5 -19t52 -49t19.5 -62v-3230q0 -37 -19 -68t-51.5 -49t-69.5 -18h-360q-37 0 -69.5 18t-51.5 49t-19 68v1390l-945 -5v-1385q0 -37 -18 -68
t-49 -49t-68 -18h-370q-32 0 -62.5 18.5t-49 49.5t-18.5 67z" />
    <glyph glyph-name="I" unicode="I" horiz-adv-x="1275" 
d="M325 125v3235q0 57 37 96t93 39h370q32 0 61 -18t46.5 -49t17.5 -68v-3235q0 -37 -17.5 -68t-46.5 -49t-61 -18h-370q-56 0 -93 39t-37 96z" />
    <glyph glyph-name="J" unicode="J" horiz-adv-x="2220" 
d="M715 -10q-65 25 -110 49.5t-92.5 59t-152.5 116.5q-235 227 -235 545v10q0 30 21 61.5t56 52.5t73 21h320q59 0 97 -39t38 -96v-20q0 -56 23 -106t72 -99q49 -34 108 -52t122 -18h15q93 0 167 23t116 67t42 105l-5 725v2000q0 32 18.5 59.5t50.5 44t71 16.5h310
q32 0 62 -16.5t49 -44t19 -59.5v-2635q0 -405 -185 -575q-121 -109 -285 -179.5t-320 -70.5q-189 0 -281 9.5t-184 45.5z" />
    <glyph glyph-name="K" unicode="K" horiz-adv-x="2465" 
d="M250 110v3250q0 33 17 63t47 48.5t66 18.5h365q32 0 59.5 -19t44 -49t16.5 -62v-920l620 955q31 39 74 68.5t81 26.5l370 5q46 -2 84 -25t59.5 -58t21.5 -72q0 -50 -20 -70l-875 -1340l1110 -1695q25 -58 25 -90q0 -43 -19 -79.5t-54.5 -57t-81.5 -18.5h-420
q-42 0 -78 23.5t-62 71.5l-835 1310v-1285q0 -30 -16.5 -57.5t-44 -45t-59.5 -17.5h-365q-36 0 -66 17t-47 45t-17 58z" />
    <glyph glyph-name="L" unicode="L" horiz-adv-x="1735" 
d="M230 120v3270q0 36 17.5 66t46.5 47t61 17h370q32 0 61 -17t46.5 -47t17.5 -66v-2775h750q56 0 88 -32t32 -88v-375q0 -51 -32.5 -85.5t-87.5 -34.5h-1250q-32 0 -59.5 16.5t-44 44t-16.5 59.5z" />
    <glyph glyph-name="M" unicode="M" horiz-adv-x="3050" 
d="M240 135v3240q0 36 18.5 66t48.5 47t63 17h570q37 0 72 -13.5t58 -36.5t25 -50l455 -1470l455 1470q11 42 57.5 71t102.5 29h570q56 0 93 -37t37 -93v-3240q0 -56 -37 -93t-93 -37h-360q-56 0 -90.5 36.5t-34.5 93.5v2075l-380 -1220q-4 -14 -17 -29t-38 -36l-25 -15
q-47 -20 -80 -20h-320q-33 0 -80 20l-25 15q-35 28 -50 65l-380 1220v-2075q0 -32 -17.5 -62t-46.5 -49t-61 -19h-360q-32 0 -62 19t-49 49t-19 62z" />
    <glyph glyph-name="N" unicode="N" horiz-adv-x="2660" 
d="M250 140v3235q0 37 19 68t51.5 49t69.5 18h595q39 0 78 -17.5t68 -46.5t39 -61l725 -2170l-50 2160q0 57 37 96t93 39h380q31 0 61 -16.5t49.5 -40t19.5 -43.5v-3235q0 -78 -36.5 -124t-93.5 -46h-515q-55 0 -108 37.5t-72 87.5l-810 2215l45 -2205q0 -57 -38 -96
t-97 -39h-370q-37 0 -69.5 18t-51.5 49t-19 68z" />
    <glyph glyph-name="O" unicode="O" horiz-adv-x="2485" 
d="M350 455q-130 229 -130 490v1645q0 175 58 334.5t166.5 287.5t255.5 213q213 125 480 125h165q171 0 329.5 -57t287.5 -163t213 -250q125 -213 125 -485l5 -1650q0 -171 -58.5 -331t-166.5 -292t-255 -222q-218 -135 -475 -135h-165q-171 0 -329.5 59.5t-288.5 170
t-217 260.5zM1265 555q105 0 195 56.5t142.5 151t52.5 202.5v1635q0 108 -52.5 196t-143 138.5t-199.5 50.5h-15q-109 0 -200.5 -50.5t-145.5 -138.5t-54 -196v-1635q0 -108 54 -202.5t146 -151t200 -56.5h20z" />
    <glyph glyph-name="P" unicode="P" horiz-adv-x="2320" 
d="M250 130v3235q0 62 40 101t110 39h990q178 0 302.5 -39.5t204 -105t138.5 -155.5q61 -97 98 -240t37 -320v-445q0 -126 -47.5 -242.5t-135.5 -209.5t-207 -153q-175 -95 -390 -95h-360q-65 0 -90 5v-1375q0 -55 -44 -90t-106 -35h-390q-70 0 -110 34t-40 91zM1295 2040
q79 0 144 39t103 105.5t38 145.5v400q0 81 -37 146t-102 102t-146 37h-305q-31 0 -55.5 -20.5t-24.5 -49.5v-810q0 -22 13 -44t34 -36.5t43 -14.5h295z" />
    <glyph glyph-name="Q" unicode="Q" horiz-adv-x="2560" 
d="M1985 -645l-1230 725l-155 95l-35 25q-172 137 -268.5 337t-96.5 433v1645q0 170 58 327.5t165 285t252 212.5q108 63 225.5 94t249.5 31h165q171 0 327 -57t283.5 -162.5t214.5 -250.5q130 -222 130 -480v-1645q2 -174 -56.5 -336t-167 -294t-251.5 -220l475 -285
q40 -18 65 -58t25 -82q0 -7 -4 -22t-6 -23l-170 -280q-22 -45 -95 -45q-47 0 -100 30zM1225 585q108 0 197 56t141 150.5t52 203.5l-5 1630q0 106 -51.5 194t-141 139.5t-197.5 51.5h-15q-109 -2 -202 -53.5t-148 -139t-55 -192.5l10 -1630q0 -108 55 -202.5t147 -151
t198 -56.5h15z" />
    <glyph glyph-name="R" unicode="R" horiz-adv-x="2455" 
d="M260 115v3235q0 37 18.5 69.5t50.5 51.5t71 19h980q227 -2 402 -92.5t271.5 -248.5t96.5 -359v-610q0 -120 -46.5 -233t-130 -205t-193.5 -152l5 -10l500 -1470q5 -5 5 -35q0 -31 -27 -53t-68 -22h-435q-32 0 -65 16t-59 41.5t-36 52.5l-405 1250q-63 35 -125 35
q-83 0 -135 -60v-1220q0 -49 -39.5 -82t-95.5 -33h-400q-60 0 -100 33t-40 82zM1230 2000q76 0 140.5 36t102 97t37.5 132v455q0 76 -37.5 139t-102 99.5t-140.5 36.5h-275q-26 0 -45.5 -21.5t-19.5 -48.5v-840q0 -34 25.5 -59.5t59.5 -25.5h255z" />
    <glyph glyph-name="S" unicode="S" horiz-adv-x="2335" 
d="M390 230q-125 137 -195 314t-70 366v5q0 46 22 85t59 62t79 23h355q3 -3 8 -4t12 -1h10q45 -19 75 -59.5t30 -85.5v-50q0 -77 31 -145t86.5 -116.5t127.5 -68.5q52 -15 105 -15h15q17 0 29.5 1t15.5 4h5q91 7 165.5 54t117 122t42.5 164l10 250q-4 131 -56 218.5
t-154 136.5q-120 67 -370 75l-95 10q-289 21 -439 166.5t-195.5 338.5t-45.5 425l5 175l5 70q-4 163 53 305t172 250q119 119 284 179t361 56h155q175 0 335 -67.5t285 -192.5q123 -123 189 -291.5t66 -353.5v-5q0 -42 -19.5 -76t-52.5 -54t-73 -20h-345q-56 4 -93 44
t-37 96v35q0 72 -31 135.5t-86.5 110.5t-127.5 69q-45 15 -100 15h-40q-5 -5 -25 -5q-92 -10 -162 -54t-109 -114t-39 -157v-290q10 -99 66 -155t162 -81.5t282 -33.5q304 -19 499 -134t288 -325t93 -521q0 -131 -12.5 -251.5t-54.5 -253t-123 -250.5
q-132 -193 -329.5 -301.5t-420.5 -108.5h-155q-183 0 -348 72t-297 208z" />
    <glyph glyph-name="T" unicode="T" horiz-adv-x="1870" 
d="M610 135v2795h-405q-65 0 -105 32.5t-40 87.5v335q0 55 40 87.5t105 32.5h1460q39 0 72.5 -16.5t53 -44t19.5 -59.5v-335q0 -32 -19.5 -59.5t-53 -44t-72.5 -16.5h-425v-2795q0 -57 -37 -96t-93 -39h-370q-32 0 -62.5 18.5t-49 49.5t-18.5 67z" />
    <glyph glyph-name="U" unicode="U" horiz-adv-x="2585" 
d="M390 480q-135 225 -135 490l-5 2305q0 88 25.5 137t74 68.5t125.5 19.5h180q76 0 102.5 -1.5t41 -8t36.5 -25.5q26 -19 38 -64t12 -121l5 -2280q0 -110 53.5 -204.5t144.5 -150t197 -55.5h80q108 0 198.5 55.5t143.5 149.5t53 205l5 2280q0 87 25 135t72.5 66.5
t122.5 18.5h195q87 0 135.5 -18.5t71.5 -66.5t23 -140l-5 -2305q0 -175 -61 -335.5t-172.5 -291t-261.5 -218.5q-225 -135 -490 -135h-180q-178 0 -339.5 59.5t-292.5 170t-218 260.5z" />
    <glyph glyph-name="V" unicode="V" horiz-adv-x="2410" 
d="M705 130l-655 3240q-2 8 -2 24q0 47 35 76.5t92 29.5h425q50 0 82 -42.5t43 -127.5l435 -2495q4 -15 20.5 -27.5t34.5 -12.5q27 0 35 40l425 2555q12 59 40 84.5t90 25.5h425q57 0 94.5 -30t37.5 -77q0 -15 -2 -23l-660 -3240q-11 -56 -63.5 -93t-116.5 -37h-630
q-42 0 -82 17t-68 46.5t-35 66.5z" />
    <glyph glyph-name="W" unicode="W" horiz-adv-x="3470" 
d="M690 125l-590 3250q-2 7 -2 21q0 43 33.5 73.5t83.5 30.5h360q55 0 99 -37.5t56 -87.5l330 -2005q4 -12 9 -16t16 -4t16 4t9 16l270 1995q7 36 31.5 67.5t58 49.5t65.5 18h395q32 0 65 -17.5t58 -46.5t32 -61l335 -2045q3 -17 19 -17q7 0 13 4.5t8 12.5l275 2035
q11 57 55 96t100 39h360q31 0 60 -16.5t45.5 -40t14.5 -43.5l-515 -3235q-11 -75 -55.5 -120t-104.5 -45h-500q-55 0 -99 37.5t-56 87.5l-290 1605l-245 -1565q-15 -75 -60 -120t-105 -45h-495q-37 0 -72 17.5t-58 46.5t-25 61z" />
    <glyph glyph-name="X" unicode="X" horiz-adv-x="2300" 
d="M100 195q0 43 15 80l660 1545l-595 1395q-20 33 -20 85q0 57 30 105t82 76.5t113 28.5h265q65 0 123.5 -37.5t76.5 -92.5l285 -750l325 750q26 59 80 94.5t115 35.5h265q61 0 113 -28.5t82 -76.5t30 -105q0 -52 -20 -85l-610 -1395l665 -1545q20 -33 20 -85
q0 -57 -30 -104t-81.5 -74t-113.5 -27h-265q-64 0 -119 35t-81 95l-370 895l-365 -895q-27 -59 -79 -94.5t-121 -35.5h-255q-59 0 -109.5 28.5t-80.5 77t-30 104.5z" />
    <glyph glyph-name="Y" unicode="Y" horiz-adv-x="2150" 
d="M750 115v1425q-14 112 -70 240l-580 1515q-15 30 -15 65q0 40 22.5 74.5t62 55t85.5 20.5h310q110 0 170 -105l335 -995q10 -10 25 -10q5 0 15 10l345 995q15 45 58 75t92 30h315q48 0 87 -21.5t61 -57.5t22 -76q0 -12 -4 -32t-6 -28l-590 -1515q-45 -120 -60 -240v-1425
q0 -37 -22 -68t-59 -49t-79 -18h-365q-40 0 -75.5 18t-57.5 49.5t-22 67.5z" />
    <glyph glyph-name="Z" unicode="Z" horiz-adv-x="2360" 
d="M149 177q0 21 1 33v5l1105 2630l5 15q0 35 -40 35h-840q-39 0 -72.5 21.5t-53 56.5t-19.5 72v315q-2 39 17.5 71t53.5 50.5t74 18.5h1690q53 -15 81.5 -59t28.5 -111q0 -11 -2 -27q-3 -13 -3 -28l-1090 -2600l-5 -15q0 -15 12.5 -27.5t27.5 -12.5h950q128 0 135 -150
l5 -295q0 -37 -19.5 -74.5t-52 -61.5t-68.5 -24h-1835q-50 30 -68 65t-18 97z" />
    <glyph glyph-name="a" unicode="a" horiz-adv-x="2420" 
d="M53 102q0 15 2 23l660 3240q11 56 63.5 93t116.5 37h630q42 0 82 -17t68 -46.5t35 -66.5l655 -3240q2 -8 2 -24q0 -47 -35 -76.5t-92 -29.5h-425q-115 0 -130 110l-150 815h-645l-150 -815q-12 -59 -40 -84.5t-90 -25.5h-425q-57 0 -94.5 30t-37.5 77zM1450 1505
l-215 1255q-4 13 -9.5 19t-15.5 6t-15.5 -6t-9.5 -19l-210 -1255h475z" />
    <glyph glyph-name="b" unicode="b" horiz-adv-x="2400" 
d="M250 160v3125q0 59 30 108.5t81.5 78t113.5 28.5h1020q188 -11 314 -83.5t216 -221.5q85 -155 85 -350l5 -380q0 -119 -32 -249.5t-114.5 -241t-223.5 -149.5q225 -41 344.5 -225.5t130.5 -489.5l5 -340q2 -196 -56.5 -341t-153 -234t-205.5 -130q-157 -60 -250 -60
h-1150q-42 0 -79 21t-59 56.5t-22 77.5zM1300 465q154 26 229 125t71 275l5 255q2 153 -42 243.5t-128 128.5t-210 38h-300q-38 0 -56.5 -28t-18.5 -67l5 -905q0 -34 19.5 -49.5t60.5 -15.5h365zM1230 2070q73 0 134.5 46t97 130.5t33.5 193.5l-5 240q0 180 -78 270t-232 90
h-275q-30 0 -52.5 -28t-22.5 -62l10 -840q0 -45 60 -45z" />
    <glyph glyph-name="c" unicode="c" horiz-adv-x="2420" 
d="M375 455q-125 221 -125 490v1655q0 171 55.5 328t159 284.5t245.5 212.5q206 125 460 125h160q168 0 321.5 -57t277.5 -162.5t206 -250.5q120 -217 120 -480v-5q2 -39 -17 -75t-52.5 -58t-70.5 -22h-340q-39 0 -73.5 22t-55.5 58t-21 75v15q0 111 -49 198.5t-135.5 137
t-195.5 49.5h-20q-102 0 -191.5 -52t-142.5 -141.5t-51 -196.5v-1635q0 -107 54 -202t143.5 -151.5t187.5 -56.5h20q105 0 192.5 55.5t137.5 149.5t50 205q0 41 20.5 75.5t55 54.5t74.5 20h340q40 0 73 -20t52.5 -54t19.5 -76v-25q0 -176 -55 -336.5t-157.5 -291
t-242.5 -217.5q-217 -135 -470 -135h-160q-168 0 -321 59.5t-276 170t-203 260.5z" />
    <glyph glyph-name="d" unicode="d" horiz-adv-x="2510" 
d="M245 135v3195q0 42 21 79t55.5 59t73.5 22h1005q168 0 321.5 -55t277.5 -157.5t206 -242.5q120 -217 120 -470l5 -1600q0 -169 -54 -328t-154 -291t-237 -221q-210 -135 -460 -135h-560q-3 -3 -8 -4t-12 -1h-465q-37 0 -68 20t-49 54t-18 76zM1275 590q110 0 207 58
t155 155t58 207v1525q0 101 -51 187t-137 137t-187 51h-420q-30 0 -52.5 -21.5t-22.5 -48.5v-2210q0 -19 10.5 -29.5t29.5 -10.5h410z" />
    <glyph glyph-name="e" unicode="e" horiz-adv-x="2170" 
d="M255 145v3230q0 57 37.5 93.5t97.5 36.5h1475q57 0 96 -37t39 -93v-345q0 -37 -18 -68t-49 -49t-68 -18h-1010v-765h765q56 0 90.5 -34.5t34.5 -90.5v-350q0 -56 -34.5 -90.5t-90.5 -34.5h-765v-910h1010q57 0 96 -37t39 -93v-345q0 -37 -18 -68t-49 -49t-68 -18h-1475
q-59 0 -97 39t-38 96z" />
    <glyph glyph-name="f" unicode="f" horiz-adv-x="2110" 
d="M250 140v3225q0 50 38 85t97 35h1445q39 0 71 -16.5t50.5 -44t18.5 -59.5v-355q0 -33 -18.5 -63t-50.5 -48.5t-71 -18.5h-990v-765h755q56 0 90.5 -34.5t34.5 -90.5v-350q0 -49 -35 -82t-90 -33h-755v-1385q0 -32 -18 -61t-49 -46.5t-68 -17.5h-320q-60 0 -97.5 34.5
t-37.5 90.5z" />
    <glyph glyph-name="g" unicode="g" horiz-adv-x="2500" 
d="M360 445q-130 229 -130 495v1660q0 176 57 334t164 284.5t254 211.5q213 125 480 125h160q159 3 310 -41t280 -132.5t220 -216.5q138 -199 145 -475q0 -35 -25 -60t-65 -25h-425q-47 0 -79 22.5t-36 62.5q-17 122 -71.5 189t-137.5 91.5t-201 24.5h-20
q-109 0 -200.5 -50.5t-145.5 -138.5t-54 -196v-1645q0 -108 55.5 -202.5t148.5 -151t201 -56.5h15q105 0 193.5 56.5t140 150.5t51.5 203v235h-260q-41 0 -73 32t-32 73v370q0 32 17.5 61t46.5 46.5t61 17.5h780q32 0 59.5 -17.5t44 -46.5t16.5 -61v-730q0 -178 -58 -341
t-165 -296t-252 -223q-217 -135 -480 -135h-160q-171 0 -328 60t-286 171.5t-216 263.5z" />
    <glyph glyph-name="h" unicode="h" horiz-adv-x="2645" 
d="M250 135v3230q0 32 19 62t49 49t62 19h370q57 0 96 -37t39 -93v-1235l945 5v1230q0 32 19.5 62t52 49t68.5 19h360q36 0 68.5 -19t52 -49t19.5 -62v-3230q0 -37 -19 -68t-51.5 -49t-69.5 -18h-360q-37 0 -69.5 18t-51.5 49t-19 68v1390l-945 -5v-1385q0 -37 -18 -68
t-49 -49t-68 -18h-370q-32 0 -62.5 18.5t-49 49.5t-18.5 67z" />
    <glyph glyph-name="i" unicode="i" horiz-adv-x="1275" 
d="M325 125v3235q0 57 37 96t93 39h370q32 0 61 -18t46.5 -49t17.5 -68v-3235q0 -37 -17.5 -68t-46.5 -49t-61 -18h-370q-56 0 -93 39t-37 96z" />
    <glyph glyph-name="j" unicode="j" horiz-adv-x="2220" 
d="M715 -10q-65 25 -110 49.5t-92.5 59t-152.5 116.5q-235 227 -235 545v10q0 30 21 61.5t56 52.5t73 21h320q59 0 97 -39t38 -96v-20q0 -56 23 -106t72 -99q49 -34 108 -52t122 -18h15q93 0 167 23t116 67t42 105l-5 725v2000q0 32 18.5 59.5t50.5 44t71 16.5h310
q32 0 62 -16.5t49 -44t19 -59.5v-2635q0 -405 -185 -575q-121 -109 -285 -179.5t-320 -70.5q-189 0 -281 9.5t-184 45.5z" />
    <glyph glyph-name="k" unicode="k" horiz-adv-x="2465" 
d="M250 110v3250q0 33 17 63t47 48.5t66 18.5h365q32 0 59.5 -19t44 -49t16.5 -62v-920l620 955q31 39 74 68.5t81 26.5l370 5q46 -2 84 -25t59.5 -58t21.5 -72q0 -50 -20 -70l-875 -1340l1110 -1695q25 -58 25 -90q0 -43 -19 -79.5t-54.5 -57t-81.5 -18.5h-420
q-42 0 -78 23.5t-62 71.5l-835 1310v-1285q0 -30 -16.5 -57.5t-44 -45t-59.5 -17.5h-365q-36 0 -66 17t-47 45t-17 58z" />
    <glyph glyph-name="l" unicode="l" horiz-adv-x="1760" 
d="M230 120v3270q0 36 17.5 66t46.5 47t61 17h370q32 0 61 -17t46.5 -47t17.5 -66v-2775h750q56 0 88 -32t32 -88v-375q0 -51 -32.5 -85.5t-87.5 -34.5h-1250q-32 0 -59.5 16.5t-44 44t-16.5 59.5z" />
    <glyph glyph-name="m" unicode="m" horiz-adv-x="3050" 
d="M240 135v3240q0 36 18.5 66t48.5 47t63 17h570q37 0 72 -13.5t58 -36.5t25 -50l455 -1470l455 1470q11 42 57.5 71t102.5 29h570q56 0 93 -37t37 -93v-3240q0 -56 -37 -93t-93 -37h-360q-56 0 -90.5 36.5t-34.5 93.5v2075l-380 -1220q-4 -14 -17 -29t-38 -36l-25 -15
q-47 -20 -80 -20h-320q-33 0 -80 20l-25 15q-35 28 -50 65l-380 1220v-2075q0 -32 -17.5 -62t-46.5 -49t-61 -19h-360q-32 0 -62 19t-49 49t-19 62z" />
    <glyph glyph-name="n" unicode="n" horiz-adv-x="2660" 
d="M250 140v3235q0 37 19 68t51.5 49t69.5 18h595q39 0 78 -17.5t68 -46.5t39 -61l725 -2170l-50 2160q0 57 37 96t93 39h380q31 0 61 -16.5t49.5 -40t19.5 -43.5v-3235q0 -78 -36.5 -124t-93.5 -46h-515q-55 0 -108 37.5t-72 87.5l-810 2215l45 -2205q0 -57 -38 -96
t-97 -39h-370q-37 0 -69.5 18t-51.5 49t-19 68z" />
    <glyph glyph-name="o" unicode="o" horiz-adv-x="2485" 
d="M350 455q-130 229 -130 490v1645q0 175 58 334.5t166.5 287.5t255.5 213q213 125 480 125h165q171 0 329.5 -57t287.5 -163t213 -250q125 -213 125 -485l5 -1650q0 -171 -58.5 -331t-166.5 -292t-255 -222q-218 -135 -475 -135h-165q-171 0 -329.5 59.5t-288.5 170
t-217 260.5zM1265 555q105 0 195 56.5t142.5 151t52.5 202.5v1635q0 108 -52.5 196t-143 138.5t-199.5 50.5h-15q-109 0 -200.5 -50.5t-145.5 -138.5t-54 -196v-1635q0 -108 54 -202.5t146 -151t200 -56.5h20z" />
    <glyph glyph-name="p" unicode="p" horiz-adv-x="2320" 
d="M250 130v3235q0 62 40 101t110 39h990q178 0 302.5 -39.5t204 -105t138.5 -155.5q61 -97 98 -240t37 -320v-445q0 -126 -47.5 -242.5t-135.5 -209.5t-207 -153q-175 -95 -390 -95h-360q-65 0 -90 5v-1375q0 -55 -44 -90t-106 -35h-390q-70 0 -110 34t-40 91zM1295 2040
q79 0 144 39t103 105.5t38 145.5v400q0 81 -37 146t-102 102t-146 37h-305q-31 0 -55.5 -20.5t-24.5 -49.5v-810q0 -22 13 -44t34 -36.5t43 -14.5h295z" />
    <glyph glyph-name="q" unicode="q" horiz-adv-x="2560" 
d="M1985 -645l-1230 725l-155 95l-35 25q-172 137 -268.5 337t-96.5 433v1645q0 170 58 327.5t165 285t252 212.5q108 63 225.5 94t249.5 31h165q171 0 327 -57t283.5 -162.5t214.5 -250.5q130 -222 130 -480v-1645q2 -174 -56.5 -336t-167 -294t-251.5 -220l475 -285
q40 -18 65 -58t25 -82q0 -7 -4 -22t-6 -23l-170 -280q-22 -45 -95 -45q-47 0 -100 30zM1225 585q108 0 197 56t141 150.5t52 203.5l-5 1630q0 106 -51.5 194t-141 139.5t-197.5 51.5h-15q-109 -2 -202 -53.5t-148 -139t-55 -192.5l10 -1630q0 -108 55 -202.5t147 -151
t198 -56.5h15z" />
    <glyph glyph-name="r" unicode="r" horiz-adv-x="2455" 
d="M260 115v3235q0 37 18.5 69.5t50.5 51.5t71 19h980q227 -2 402 -92.5t271.5 -248.5t96.5 -359v-610q0 -120 -46.5 -233t-130 -205t-193.5 -152l5 -10l500 -1470q5 -5 5 -35q0 -31 -27 -53t-68 -22h-435q-32 0 -65 16t-59 41.5t-36 52.5l-405 1250q-63 35 -125 35
q-83 0 -135 -60v-1220q0 -49 -39.5 -82t-95.5 -33h-400q-60 0 -100 33t-40 82zM1230 2000q76 0 140.5 36t102 97t37.5 132v455q0 76 -37.5 139t-102 99.5t-140.5 36.5h-275q-26 0 -45.5 -21.5t-19.5 -48.5v-840q0 -34 25.5 -59.5t59.5 -25.5h255z" />
    <glyph glyph-name="s" unicode="s" horiz-adv-x="2280" 
d="M365 230q-125 137 -195 314t-70 366v5q0 46 22 85t59 62t79 23h355q3 -3 8 -4t12 -1h10q45 -19 75 -59.5t30 -85.5v-50q0 -77 31 -145t86.5 -116.5t127.5 -68.5q52 -15 105 -15h15q17 0 29.5 1t15.5 4h5q91 7 165.5 54t117 122t42.5 164l10 250q-4 131 -56 218.5
t-154 136.5q-120 67 -370 75l-95 10q-289 21 -439 166.5t-195.5 338.5t-45.5 425l5 175l5 70q26 166 47.5 254t61.5 159t116 142q119 119 284 179t361 56h155q175 0 335 -67.5t285 -192.5q123 -123 189 -291.5t66 -353.5v-5q0 -42 -19.5 -76t-52.5 -54t-73 -20h-345
q-56 4 -93 44t-37 96v35q0 72 -31 135.5t-86.5 110.5t-127.5 69q-45 15 -100 15h-40q-5 -5 -25 -5q-92 -10 -162 -54t-109 -114t-39 -157v-290q10 -99 66 -155t162 -81.5t282 -33.5q445 -31 662.5 -274.5t217.5 -705.5q0 -131 -12.5 -251.5t-54.5 -253t-123 -250.5
q-132 -193 -329.5 -301.5t-420.5 -108.5h-155q-183 0 -348 72t-297 208z" />
    <glyph glyph-name="t" unicode="t" horiz-adv-x="1850" 
d="M600 135v2795h-405q-65 0 -105 32.5t-40 87.5v335q0 55 40 87.5t105 32.5h1460q39 0 72.5 -16.5t53 -44t19.5 -59.5v-335q0 -32 -19.5 -59.5t-53 -44t-72.5 -16.5h-425v-2795q0 -57 -37 -96t-93 -39h-370q-32 0 -62.5 18.5t-49 49.5t-18.5 67z" />
    <glyph glyph-name="u" unicode="u" horiz-adv-x="2560" 
d="M390 480q-135 225 -135 490l-5 2305q0 88 25.5 137t74 68.5t125.5 19.5h180q76 0 102.5 -1.5t41 -8t36.5 -25.5q26 -19 38 -64t12 -121l5 -2280q0 -110 53.5 -204.5t144.5 -150t197 -55.5h80q108 0 198.5 55.5t143.5 149.5t53 205l5 2280q0 87 25 135t72.5 66.5
t122.5 18.5h195q87 0 135.5 -18.5t71.5 -66.5t23 -140l-5 -2305q0 -175 -61 -335.5t-172.5 -291t-261.5 -218.5q-225 -135 -490 -135h-180q-178 0 -339.5 59.5t-292.5 170t-218 260.5z" />
    <glyph glyph-name="v" unicode="v" horiz-adv-x="2410" 
d="M705 130l-655 3240q-2 8 -2 24q0 47 35 76.5t92 29.5h425q50 0 82 -42.5t43 -127.5l435 -2495q4 -15 20.5 -27.5t34.5 -12.5q27 0 35 40l425 2555q12 59 40 84.5t90 25.5h425q57 0 94.5 -30t37.5 -77q0 -15 -2 -23l-660 -3240q-11 -56 -63.5 -93t-116.5 -37h-630
q-42 0 -82 17t-68 46.5t-35 66.5z" />
    <glyph glyph-name="w" unicode="w" horiz-adv-x="3470" 
d="M690 125l-590 3250q-2 7 -2 21q0 43 33.5 73.5t83.5 30.5h360q55 0 99 -37.5t56 -87.5l330 -2005q4 -12 9 -16t16 -4t16 4t9 16l270 1995q7 36 31.5 67.5t58 49.5t65.5 18h395q32 0 65 -17.5t58 -46.5t32 -61l335 -2045q3 -17 19 -17q7 0 13 4.5t8 12.5l275 2035
q11 57 55 96t100 39h360q31 0 60 -16.5t45.5 -40t14.5 -43.5l-515 -3235q-11 -75 -55.5 -120t-104.5 -45h-500q-55 0 -99 37.5t-56 87.5l-290 1605l-245 -1565q-15 -75 -60 -120t-105 -45h-495q-37 0 -72 17.5t-58 46.5t-25 61z" />
    <glyph glyph-name="x" unicode="x" horiz-adv-x="2300" 
d="M100 195q0 43 15 80l660 1545l-595 1395q-20 33 -20 85q0 57 30 105t82 76.5t113 28.5h265q65 0 123.5 -37.5t76.5 -92.5l285 -750l325 750q26 59 80 94.5t115 35.5h265q61 0 113 -28.5t82 -76.5t30 -105q0 -52 -20 -85l-610 -1395l665 -1545q20 -33 20 -85
q0 -57 -30 -104t-81.5 -74t-113.5 -27h-265q-64 0 -119 35t-81 95l-370 895l-365 -895q-27 -59 -79 -94.5t-121 -35.5h-255q-59 0 -109.5 28.5t-80.5 77t-30 104.5z" />
    <glyph glyph-name="y" unicode="y" horiz-adv-x="2150" 
d="M750 115v1425q-14 112 -70 240l-580 1515q-15 30 -15 65q0 40 22.5 74.5t62 55t85.5 20.5h310q110 0 170 -105l335 -995q10 -10 25 -10q5 0 15 10l345 995q15 45 58 75t92 30h315q48 0 87 -21.5t61 -57.5t22 -76q0 -12 -4 -32t-6 -28l-590 -1515q-45 -120 -60 -240v-1425
q0 -37 -22 -68t-59 -49t-79 -18h-365q-40 0 -75.5 18t-57.5 49.5t-22 67.5z" />
    <glyph glyph-name="z" unicode="z" horiz-adv-x="2360" 
d="M149 177q0 21 1 33v5l1105 2630l5 15q0 35 -40 35h-840q-39 0 -72.5 21.5t-53 56.5t-19.5 72v315q-2 39 17.5 71t53.5 50.5t74 18.5h1690q53 -15 81.5 -59t28.5 -111q0 -11 -2 -27q-3 -13 -3 -28l-1090 -2600l-5 -15q0 -15 12.5 -27.5t27.5 -12.5h950q128 0 135 -150
l5 -295q0 -37 -19.5 -74.5t-52 -61.5t-68.5 -24h-1835q-50 30 -68 65t-18 97z" />
    <glyph glyph-name="fraction" unicode="&#x2044;" horiz-adv-x="2000" 
d="M135 215q0 53 20 100l1230 3065q22 55 67.5 85t102.5 30h160q68 0 121.5 -29.5t83.5 -80t30 -110.5q0 -53 -20 -100l-1230 -3065q-22 -55 -67.5 -85t-102.5 -30h-160q-68 0 -121.5 29.5t-83.5 80t-30 110.5z" />
    <glyph glyph-name="asterisk" unicode="*" horiz-adv-x="1944" 
d="M489 2074l-137 161q-15 21 -15 48q0 28 15 43l917 1045q7 11 17.5 17.5t20.5 6.5q26 0 43 -24l138 -152q19 -19 19 -47q0 -18 -4.5 -30t-14.5 -23l-913 -1045q-7 -11 -17.5 -15t-25.5 -4q-24 0 -43 19zM775 1941v1482q0 25 19 46t38 21h204q18 0 35 -21t17 -46v-1482
q0 -25 -16.5 -43.5t-35.5 -18.5h-204q-25 0 -41 18t-16 44zM1269 2055l-917 1050q-15 15 -15 43q0 26 15 47l137 157q26 24 43 24q10 0 20.5 -6.5t17.5 -17.5l918 -1046q19 -19 19 -47q0 -24 -19 -43l-138 -161q-19 -19 -43 -19q-11 0 -19.5 4t-18.5 15zM228 2634v229
q0 26 14 43.5t38 17.5h1303q25 0 43 -18t18 -43v-229q0 -28 -18 -47t-43 -19h-1303q-24 0 -38 18.5t-14 47.5z" />
    <glyph glyph-name="backslash" unicode="\" 
d="M685 115l-585 3305q-2 8 -2 24q0 48 33.5 79.5t83.5 31.5h375q59 0 106.5 -39t58.5 -96l580 -3305q3 -13 3 -26q0 -47 -32 -78t-81 -31h-380q-56 0 -102.5 39.5t-57.5 95.5z" />
    <glyph glyph-name="periodcentered" unicode="&#xb7;" horiz-adv-x="1000" 
d="M80 1710q0 116 58.5 214.5t157 157t214.5 58.5t214.5 -58.5t157 -157t58.5 -214.5t-58.5 -214.5t-157 -157t-214.5 -58.5t-214.5 58.5t-157 157t-58.5 214.5z" />
    <glyph glyph-name="bullet" unicode="&#x2022;" horiz-adv-x="1700" 
d="M200 1750q0 180 88.5 331.5t240 240t331.5 88.5q177 0 330 -89t244 -240.5t91 -330.5q0 -177 -91 -330t-244 -244t-330 -91q-179 0 -330.5 91t-240.5 244t-89 330z" />
    <glyph glyph-name="colon" unicode=":" horiz-adv-x="1000" 
d="M130 1945v380q0 51 24 92.5t65 64.5t91 23h380q52 0 94.5 -23t66.5 -64t24 -93v-380q0 -52 -24.5 -94t-66.5 -66.5t-94 -24.5h-380q-49 0 -90.5 24.5t-65.5 66.5t-24 94zM130 185v380q0 51 24 92.5t65 64.5t91 23h380q52 0 94.5 -23t66.5 -64t24 -93v-380
q0 -52 -24.5 -94t-66.5 -66.5t-94 -24.5h-380q-49 0 -90.5 24.5t-65.5 66.5t-24 94z" />
    <glyph glyph-name="comma" unicode="," horiz-adv-x="1025" 
d="M150 -295q0 25 20 45l110 195q3 3 4 8t1 12q0 15 -7 25.5t-18 14.5q-49 19 -79.5 65t-30.5 105v375q0 51 23.5 92.5t64 64.5t87.5 23h385q49 0 90.5 -24t65.5 -65.5t24 -90.5v-375q0 -73 -50 -130l-275 -380q-11 -11 -30 -15.5t-50 -4.5h-275q-26 0 -43 17t-17 43z" />
    <glyph glyph-name="ellipsis" unicode="&#x2026;" horiz-adv-x="2600" 
d="M1940 0q-49 0 -90.5 24.5t-65.5 66.5t-24 94v380q0 51 24 92.5t65 64.5t91 23h380q52 0 94.5 -23t66.5 -64t24 -93v-380q0 -52 -24.5 -94t-66.5 -66.5t-94 -24.5h-380zM95 175v380q0 51 24 92.5t65 64.5t91 23h380q52 0 94.5 -23t66.5 -64t24 -93v-380q0 -52 -24.5 -94
t-66.5 -66.5t-94 -24.5h-380q-49 0 -90.5 24.5t-65.5 66.5t-24 94zM95 175v380q0 51 24 92.5t65 64.5t91 23h380q52 0 94.5 -23t66.5 -64t24 -93v-380q0 -52 -24.5 -94t-66.5 -66.5t-94 -24.5h-380q-49 0 -90.5 24.5t-65.5 66.5t-24 94zM95 175v380q0 51 24 92.5t65 64.5
t91 23h380q52 0 94.5 -23t66.5 -64t24 -93v-380q0 -52 -24.5 -94t-66.5 -66.5t-94 -24.5h-380q-49 0 -90.5 24.5t-65.5 66.5t-24 94zM925 185v380q0 51 24 92.5t65 64.5t91 23h380q52 0 94.5 -23t66.5 -64t24 -93v-380q0 -52 -24.5 -94t-66.5 -66.5t-94 -24.5h-380
q-49 0 -90.5 24.5t-65.5 66.5t-24 94zM925 185v380q0 51 24 92.5t65 64.5t91 23h380q52 0 94.5 -23t66.5 -64t24 -93v-380q0 -52 -24.5 -94t-66.5 -66.5t-94 -24.5h-380q-49 0 -90.5 24.5t-65.5 66.5t-24 94zM925 185v380q0 51 24 92.5t65 64.5t91 23h380q52 0 94.5 -23
t66.5 -64t24 -93v-380q0 -52 -24.5 -94t-66.5 -66.5t-94 -24.5h-380q-49 0 -90.5 24.5t-65.5 66.5t-24 94zM1760 185v380q0 51 24 92.5t65 64.5t91 23h380q52 0 94.5 -23t66.5 -64t24 -93v-380q0 -52 -24.5 -94t-66.5 -66.5t-94 -24.5h-380q-49 0 -90.5 24.5t-65.5 66.5
t-24 94zM1940 0q-49 0 -90.5 24.5t-65.5 66.5t-24 94v380q0 51 24 92.5t65 64.5t91 23h380q52 0 94.5 -23t66.5 -64t24 -93v-380q0 -52 -24.5 -94t-66.5 -66.5t-94 -24.5h-380z" />
    <glyph glyph-name="exclam" unicode="!" horiz-adv-x="1380" 
d="M340 1045l-40 2305q-4 89 37.5 129t132.5 36h435q66 0 101.5 -9t54.5 -40t19 -96l-50 -2330q0 -46 -34.5 -75.5t-90.5 -29.5h-435q-58 0 -94 32t-36 78zM315 185v380q0 51 24 92.5t65 64.5t91 23h380q52 0 94.5 -23t66.5 -64t24 -93v-380q0 -52 -24.5 -94t-66.5 -66.5
t-94 -24.5h-380q-49 0 -90.5 24.5t-65.5 66.5t-24 94z" />
    <glyph glyph-name="exclamdown" unicode="&#xa1;" horiz-adv-x="1380" 
d="M280 130l50 2330q0 46 34.5 75.5t90.5 29.5h435q58 0 94 -32t36 -78l40 -2305q4 -89 -37.5 -129t-132.5 -36h-435q-66 0 -101.5 9t-54.5 40t-19 96zM300 2935v380q0 52 24.5 94t66.5 66.5t94 24.5h380q49 0 90.5 -24.5t65.5 -66.5t24 -94v-380q0 -51 -24 -92.5t-65 -64.5
t-91 -23h-380q-52 0 -94.5 23t-66.5 64t-24 93z" />
    <glyph glyph-name="numbersign" unicode="#" horiz-adv-x="3000" 
d="M1327 107q0 13 3 28l570 3235q11 57 55 96t100 39h370q43 0 73 -31t30 -78q0 -12 -3 -26l-570 -3235q-7 -37 -30.5 -68t-55.5 -49t-64 -18h-370q-48 0 -78 30.5t-30 76.5zM0 1045v30l65 370q12 50 48.5 87.5t76.5 37.5l2480 5q34 0 59.5 -29.5t25.5 -70.5q0 -20 -5 -25
l-65 -370q-2 -36 -20.5 -66t-46.5 -47t-58 -17l-2475 -5q-41 0 -63 27t-22 73zM387 122q0 13 3 28l570 3235q11 57 55 96t100 39h370q43 0 73 -31t30 -78q0 -12 -3 -26l-570 -3235q-7 -37 -30.5 -68t-55.5 -49t-64 -18h-370q-48 0 -78 30.5t-30 76.5zM215 2145q0 10 1 18.5
t4 11.5l65 370q2 31 21.5 60t48 47t55.5 18h2475q41 0 63 -27t22 -73q0 -20 -5 -25l-65 -370q-2 -36 -20.5 -66t-46.5 -47t-58 -17h-2475q-35 0 -60 28t-25 72z" />
    <glyph glyph-name="period" unicode="." horiz-adv-x="1000" 
d="M120 175v380q0 51 24 92.5t65 64.5t91 23h380q52 0 94.5 -23t66.5 -64t24 -93v-380q0 -52 -24.5 -94t-66.5 -66.5t-94 -24.5h-380q-49 0 -90.5 24.5t-65.5 66.5t-24 94z" />
    <glyph glyph-name="question" unicode="?" horiz-adv-x="2100" 
d="M605 1090q-1 22 -2 46t-3 49q-5 93 -5 125q0 172 52.5 294t186 221t376.5 185q111 67 150.5 145t44.5 165v330q0 87 -38.5 160t-109.5 119t-167 56q-20 0 -25 5h-35q-55 0 -100 -15q-71 -22 -125.5 -71t-84.5 -115.5t-30 -138.5v-35q0 -56 -39 -96t-96 -44h-340
q-40 0 -73 20t-52.5 54t-19.5 76v5q0 184 65 354t185 301q118 133 279 201.5t341 68.5h150q203 4 365 -57t285 -188q205 -190 220 -490q20 -160 20 -360q0 -331 -76 -527.5t-194 -272.5t-255 -110q-63 -15 -95 -27t-53.5 -36t-31.5 -67q-11 -52 -20 -205q0 -84 -7 -146.5
t-33.5 -108t-79.5 -45.5l-355 -5q-47 0 -86 24t-63 65.5t-26 90.5zM620 175v375q0 51 23.5 92.5t64 64.5t87.5 23h375q49 0 89 -23t63 -64t23 -93v-375q0 -51 -24 -93.5t-64 -67t-87 -24.5h-375q-47 0 -87 24.5t-64 67t-24 93.5z" />
    <glyph glyph-name="questiondown" unicode="&#xbf;" horiz-adv-x="2100" 
d="M345 190q-205 190 -220 490q-20 160 -20 360q0 226 37 390.5t97.5 265.5t135.5 149q105 68 255 105q60 14 93.5 28t55 38.5t31.5 68.5q12 53 20 200q0 88 7 150.5t33.5 106t79.5 43.5l355 5q47 0 86 -24t63 -65.5t26 -90.5q1 -22 2 -46t3 -49q5 -93 5 -125
q0 -172 -52.5 -294t-186 -221t-376.5 -185q-111 -68 -150.5 -144.5t-39.5 -160.5q-5 -45 -5 -95v-240q0 -83 38.5 -156t110 -121t166.5 -58q20 0 25 -5h35q55 0 100 15q71 22 125.5 71t84.5 115.5t30 138.5v35q0 56 39 96t96 44h340q40 0 73 -20t52.5 -54t19.5 -76v-5
q0 -184 -65 -354t-185 -301q-118 -133 -279 -201.5t-341 -68.5h-150q-203 -4 -365 57t-285 188zM740 2950v375q0 51 24 93.5t64 67t87 24.5h375q47 0 87 -24.5t64 -67t24 -93.5v-375q0 -49 -23 -90.5t-63 -65.5t-89 -24h-375q-47 0 -87 24t-64 65.5t-24 90.5z" />
    <glyph glyph-name="quotedbl" unicode="&#x22;" horiz-adv-x="1665" 
d="M905 2455v835q0 90 24 136.5t70.5 62.5t125.5 16h120q68 0 99 -3t53.5 -15.5t42.5 -41.5q25 -58 25 -155v-835q0 -91 -22 -137t-68 -62t-130 -16h-120q-220 0 -220 215zM200 2455v835q0 88 24 134.5t69.5 63.5t121.5 17h125q79 0 125.5 -16t70.5 -62.5t24 -136.5v-835
q0 -88 -24 -134.5t-71 -63.5t-125 -17h-125q-77 0 -122 16t-69 62.5t-24 136.5z" />
    <glyph glyph-name="quotesingle" unicode="'" horiz-adv-x="890" 
d="M110 2563q0 23 18 42l101 179q3 3 4 7.5t1 10.5q0 13 -6 23t-17 14q-46 18 -73.5 59.5t-27.5 96.5v344q0 47 21.5 84.5t58.5 59t81 21.5h353q45 0 83 -22t60 -60t22 -83v-344q0 -67 -46 -120l-252 -348q-10 -10 -28 -14.5t-46 -4.5h-252q-24 0 -39.5 15.5t-15.5 39.5z
" />
    <glyph glyph-name="semicolon" unicode=";" horiz-adv-x="1000" 
d="M135 -295q0 25 20 45l110 195q3 3 4 8t1 12q0 15 -7 25.5t-18 14.5q-49 19 -79.5 65t-30.5 105v375q0 51 23.5 92.5t64 64.5t87.5 23h385q49 0 90.5 -24t65.5 -65.5t24 -90.5v-375q0 -73 -50 -130l-275 -380q-11 -11 -30 -15.5t-50 -4.5h-275q-26 0 -43 17t-17 43z
M125 1945v380q0 51 24 92.5t65 64.5t91 23h380q52 0 94.5 -23t66.5 -64t24 -93v-380q0 -52 -24.5 -94t-66.5 -66.5t-94 -24.5h-380q-49 0 -90.5 24.5t-65.5 66.5t-24 94z" />
    <glyph glyph-name="slash" unicode="/" 
d="M158 96q0 16 2 24l580 3285q7 32 31 61t58.5 46.5t70.5 17.5h370q51 0 84.5 -30t33.5 -72q0 -11 -3 -23l-580 -3285q-2 -36 -26 -67t-60.5 -49.5t-73.5 -18.5h-370q-50 0 -83.5 31.5t-33.5 79.5z" />
    <glyph glyph-name="underscore" unicode="_" horiz-adv-x="2000" 
d="M45 110v390q0 48 32.5 81.5t77.5 33.5h1680q27 0 51.5 -15.5t39 -41.5t14.5 -58v-390q0 -29 -14.5 -54.5t-39 -40.5t-51.5 -15h-1680q-45 0 -77.5 32.5t-32.5 77.5z" />
    <glyph glyph-name="parenleft" unicode="(" 
d="M295 -385v15l-10 35v4140v0v145q0 140 65 257t176 185t244 68h1350q23 0 44 -25t21 -55v-395q0 -38 -27 -64t-68 -26h-1095q-26 0 -43.5 -13.5t-21.5 -36.5v-4100q0 -37 17.5 -58.5t47.5 -21.5h1090q49 0 77 -28t28 -77v-305q0 -67 -37.5 -108.5t-97.5 -41.5h-1280
q-130 0 -240.5 69t-175 186t-64.5 255z" />
    <glyph glyph-name="parenright" unicode=")" 
d="M-690 -745v305q0 49 28 77t77 28h1090q30 0 47.5 21.5t17.5 58.5v4100q-4 23 -21.5 36.5t-43.5 13.5h-1095q-41 0 -68 26t-27 64v395q0 30 21 55t44 25h1350q133 0 244 -68t176 -185t65 -257v-4285l-10 -35v-15q0 -138 -64.5 -255t-175 -186t-240.5 -69h-1280
q-60 0 -97.5 41.5t-37.5 108.5z" />
    <glyph glyph-name="dollar" unicode="$" horiz-adv-x="2405" 
d="M870 -165v150q-113 34 -216 97.5t-189 152.5q-128 135 -196.5 310.5t-68.5 369.5v5q0 44 22 83.5t59 63t79 23.5h335q7 0 12 -1t8 -4h25l5 -5q45 -15 75 -55t30 -85v-50q0 -77 31 -145t86.5 -118t127.5 -72q70 -10 105 -10h65q91 7 165.5 55t117 124.5t42.5 165.5l10 250
q-4 129 -55 216t-155 139q-70 34 -150 48t-194 25q-10 0 -26 2q-30 0 -55 3q-30 2 -40 2q-472 45 -615 475q-65 183 -65 460q0 54 3 100q2 52 2 70q5 35 5 75q-4 158 54.5 302t170.5 248q151 151 390 215v220q0 59 28.5 108.5t78 78t108.5 28.5h230q59 0 108.5 -28.5t78 -78
t28.5 -108.5v-235q210 -60 370 -220q123 -127 189 -294t66 -351v-5q0 -42 -19.5 -77.5t-53 -56.5t-72.5 -21h-345q-54 8 -92 49t-38 96v35q0 72 -29.5 135.5t-84 110.5t-126.5 69q-52 15 -105 15h-15q-4 0 -11.5 -2.5t-13.5 -2.5t-13.5 -2.5t-11.5 -2.5q-64 -4 -121.5 -29.5
t-98.5 -70.5q-44 -44 -67 -101.5t-23 -118.5v-290q7 -78 44 -129t106 -81q61 -29 148.5 -42.5t211.5 -17.5h5q218 0 384.5 -67t275.5 -198q105 -124 160 -307t55 -408q0 -165 -30 -330q-22 -189 -110 -351t-226.5 -277t-308.5 -167v-160q0 -59 -28.5 -108.5t-76.5 -78
t-105 -28.5h-235q-57 0 -106.5 29t-79 78t-29.5 108z" />
    <glyph glyph-name="Euro" unicode="&#x20ac;" horiz-adv-x="2650" 
d="M640 445q-130 229 -130 485l-5 230h-255q-60 0 -97.5 37.5t-37.5 97.5v255q0 57 38 96t97 39h255l-5 165h-250q-60 0 -97.5 36.5t-37.5 93.5v255q0 61 38 100.5t97 39.5h250l-5 195q0 170 58 328.5t164 287.5t248 214q213 125 465 125l170 5q169 0 321 -55.5t274.5 -160
t204.5 -249.5q125 -213 125 -480v-10q0 -40 -18.5 -73t-50.5 -52.5t-71 -19.5l-350 -5q-40 0 -74.5 20t-55 54.5t-20.5 75.5v15q-2 106 -53.5 193t-138.5 137t-193 50h-20q-99 0 -185.5 -51.5t-138 -140t-51.5 -193.5l5 -210h430q42 0 76.5 -18.5t54 -50.5t19.5 -71v-255
q0 -56 -43 -93t-107 -37h-430l5 -165h425q42 0 76 -18t54 -49t20 -68v-255q0 -59 -43 -97t-107 -38h-425l5 -205q0 -106 52 -199.5t140 -149.5t188 -56h15q105 0 193.5 56.5t140 150.5t51.5 203q0 39 19.5 72.5t53 53t72.5 19.5l350 5q37 0 69.5 -20t51.5 -54t19 -76v-20
q0 -171 -54 -331t-155.5 -292.5t-240.5 -221.5q-210 -135 -460 -135h-170q-166 0 -320 58.5t-281 168t-214 258.5z" />
    <glyph glyph-name="equal" unicode="=" 
d="M150 2090v315q0 71 50.5 115.5t129.5 44.5h820q49 0 90.5 -22t65.5 -59t24 -79v-315q0 -42 -24 -79t-65.5 -59t-90.5 -22h-820q-49 0 -90.5 22t-65.5 59t-24 79zM165 1220v315q0 71 50.5 115.5t129.5 44.5h820q49 0 90.5 -22t65.5 -59t24 -79v-315q0 -42 -24 -79
t-65.5 -59t-90.5 -22h-820q-49 0 -90.5 22t-65.5 59t-24 79z" />
    <glyph glyph-name="percent" unicode="%" horiz-adv-x="2500" 
d="M195 90q0 20 1.5 32.5t8.5 22.5l1570 3305q30 62 75 62q5 0 15 -2h440q29 0 49.5 -28.5t20.5 -66.5q0 -15 -10 -45l-1595 -3330q-8 -19 -21.5 -32t-28.5 -13h-465q-26 0 -43 28.5t-17 66.5zM1615 170h5q-60 90 -60 205v605q0 105 53.5 200t146.5 155q93 50 205 50h60
q106 0 200 -53.5t150 -146.5q50 -79 50 -200l5 -610q0 -105 -55.5 -202t-149.5 -153q-110 -55 -200 -55h-60q-108 0 -202.5 55.5t-147.5 149.5zM1995 280q38 0 66.5 30.5t28.5 74.5v600q0 38 -27 64t-68 26h-5q-44 0 -72 -26t-28 -64v-600q0 -45 29 -75t71 -30h5zM210 2340
h5q-60 90 -60 205v605q0 105 53.5 200t146.5 155q93 50 205 50h60q106 0 200 -53.5t150 -146.5q50 -79 50 -200l5 -610q0 -105 -55.5 -202t-149.5 -153q-96 -55 -200 -55h-60q-108 0 -202.5 55.5t-147.5 149.5zM590 2450q38 0 66.5 30.5t28.5 74.5v600q0 38 -27 64t-68 26
h-5q-44 0 -72 -26t-28 -64v-600q0 -45 29 -75t71 -30h5z" />
  </font>
</defs>
</svg>
